<mxfile host="Electron" agent="Mozilla/5.0 (Windows NT 10.0; Win64; x64) AppleWebKit/537.36 (KHTML, like Gecko) draw.io/26.0.9 Chrome/128.0.6613.186 Electron/32.2.5 Safari/537.36" version="26.0.9">
  <diagram name="Page-1" id="TLtxB7esEMijS6krM0kL">
    <mxGraphModel dx="2100" dy="1942" grid="1" gridSize="10" guides="1" tooltips="1" connect="1" arrows="1" fold="1" page="1" pageScale="1" pageWidth="900" pageHeight="700" math="0" shadow="0">
      <root>
        <mxCell id="0" />
        <mxCell id="1" parent="0" />
        <mxCell id="ecnfo4OH-dt6vmVNhMm7-327" style="edgeStyle=orthogonalEdgeStyle;rounded=0;orthogonalLoop=1;jettySize=auto;html=1;exitX=1;exitY=0.25;exitDx=0;exitDy=0;entryX=0.109;entryY=1.004;entryDx=0;entryDy=0;entryPerimeter=0;" parent="1" target="ecnfo4OH-dt6vmVNhMm7-306" edge="1">
          <mxGeometry relative="1" as="geometry">
            <mxPoint x="788.33" y="522.6600000000001" as="targetPoint" />
            <mxPoint x="529.9966666666666" y="239.84749999999994" as="sourcePoint" />
            <Array as="points">
              <mxPoint x="698" y="240" />
              <mxPoint x="698" y="546" />
              <mxPoint x="808" y="546" />
            </Array>
          </mxGeometry>
        </mxCell>
        <mxCell id="ecnfo4OH-dt6vmVNhMm7-375" style="edgeStyle=orthogonalEdgeStyle;rounded=0;orthogonalLoop=1;jettySize=auto;html=1;exitX=0;exitY=0.25;exitDx=0;exitDy=0;entryX=0;entryY=0.25;entryDx=0;entryDy=0;" parent="1" target="ecnfo4OH-dt6vmVNhMm7-204" edge="1">
          <mxGeometry relative="1" as="geometry">
            <mxPoint x="200.0000000000001" y="241.38709677419354" as="sourcePoint" />
          </mxGeometry>
        </mxCell>
        <mxCell id="ecnfo4OH-dt6vmVNhMm7-204" value="" style="rounded=0;whiteSpace=wrap;html=1;container=0;" parent="1" vertex="1">
          <mxGeometry x="458.3333333333333" y="214" width="83.33333333333333" height="108.74999999999999" as="geometry" />
        </mxCell>
        <mxCell id="ecnfo4OH-dt6vmVNhMm7-205" value="in_0" style="text;html=1;align=center;verticalAlign=middle;resizable=0;points=[];autosize=1;strokeColor=none;fillColor=none;container=0;" parent="1" vertex="1">
          <mxGeometry x="453" y="226.25" width="50" height="30" as="geometry" />
        </mxCell>
        <mxCell id="ecnfo4OH-dt6vmVNhMm7-206" value="en_0" style="text;html=1;align=center;verticalAlign=middle;resizable=0;points=[];autosize=1;strokeColor=none;fillColor=none;container=0;" parent="1" vertex="1">
          <mxGeometry x="453" y="257.04999999999995" width="50" height="30" as="geometry" />
        </mxCell>
        <mxCell id="ecnfo4OH-dt6vmVNhMm7-207" value="rst" style="text;html=1;align=center;verticalAlign=middle;resizable=0;points=[];autosize=1;strokeColor=none;fillColor=none;container=0;" parent="1" vertex="1">
          <mxGeometry x="468" y="330.72499999999997" width="40" height="30" as="geometry" />
        </mxCell>
        <mxCell id="ecnfo4OH-dt6vmVNhMm7-208" value="" style="triangle;whiteSpace=wrap;html=1;container=0;" parent="1" vertex="1">
          <mxGeometry x="458.3333333333333" y="286.5" width="16.666666666666668" height="21.749999999999996" as="geometry" />
        </mxCell>
        <mxCell id="ecnfo4OH-dt6vmVNhMm7-209" value="" style="endArrow=none;html=1;rounded=0;" parent="1" edge="1">
          <mxGeometry width="50" height="50" relative="1" as="geometry">
            <mxPoint x="499.8083333333333" y="322.75" as="sourcePoint" />
            <mxPoint x="500" y="359" as="targetPoint" />
          </mxGeometry>
        </mxCell>
        <mxCell id="ecnfo4OH-dt6vmVNhMm7-210" value="out_0" style="text;html=1;align=center;verticalAlign=middle;resizable=0;points=[];autosize=1;strokeColor=none;fillColor=none;container=0;" parent="1" vertex="1">
          <mxGeometry x="496" y="225.25" width="50" height="30" as="geometry" />
        </mxCell>
        <mxCell id="ecnfo4OH-dt6vmVNhMm7-376" style="edgeStyle=orthogonalEdgeStyle;rounded=0;orthogonalLoop=1;jettySize=auto;html=1;exitX=0;exitY=0.25;exitDx=0;exitDy=0;entryX=0;entryY=0.25;entryDx=0;entryDy=0;" parent="1" target="ecnfo4OH-dt6vmVNhMm7-219" edge="1">
          <mxGeometry relative="1" as="geometry">
            <mxPoint x="200.0000000000001" y="385.9032258064516" as="sourcePoint" />
          </mxGeometry>
        </mxCell>
        <mxCell id="ecnfo4OH-dt6vmVNhMm7-219" value="" style="rounded=0;whiteSpace=wrap;html=1;container=0;" parent="1" vertex="1">
          <mxGeometry x="458.3333333333333" y="359" width="83.33333333333333" height="108.74999999999999" as="geometry" />
        </mxCell>
        <mxCell id="ecnfo4OH-dt6vmVNhMm7-220" value="in_1" style="text;html=1;align=center;verticalAlign=middle;resizable=0;points=[];autosize=1;strokeColor=none;fillColor=none;container=0;" parent="1" vertex="1">
          <mxGeometry x="453" y="371.25" width="50" height="30" as="geometry" />
        </mxCell>
        <mxCell id="ecnfo4OH-dt6vmVNhMm7-221" value="en_1" style="text;html=1;align=center;verticalAlign=middle;resizable=0;points=[];autosize=1;strokeColor=none;fillColor=none;container=0;" parent="1" vertex="1">
          <mxGeometry x="453" y="398.05" width="50" height="30" as="geometry" />
        </mxCell>
        <mxCell id="ecnfo4OH-dt6vmVNhMm7-222" value="rst" style="text;html=1;align=center;verticalAlign=middle;resizable=0;points=[];autosize=1;strokeColor=none;fillColor=none;container=0;" parent="1" vertex="1">
          <mxGeometry x="468" y="475.72499999999997" width="40" height="30" as="geometry" />
        </mxCell>
        <mxCell id="ecnfo4OH-dt6vmVNhMm7-223" value="" style="triangle;whiteSpace=wrap;html=1;container=0;" parent="1" vertex="1">
          <mxGeometry x="458.3333333333333" y="431.5" width="16.666666666666668" height="21.749999999999996" as="geometry" />
        </mxCell>
        <mxCell id="ecnfo4OH-dt6vmVNhMm7-224" value="" style="endArrow=none;html=1;rounded=0;" parent="1" edge="1">
          <mxGeometry width="50" height="50" relative="1" as="geometry">
            <mxPoint x="499.8083333333333" y="467.75" as="sourcePoint" />
            <mxPoint x="500" y="504" as="targetPoint" />
          </mxGeometry>
        </mxCell>
        <mxCell id="ecnfo4OH-dt6vmVNhMm7-225" value="out_1" style="text;html=1;align=center;verticalAlign=middle;resizable=0;points=[];autosize=1;strokeColor=none;fillColor=none;container=0;" parent="1" vertex="1">
          <mxGeometry x="496" y="370.25" width="50" height="30" as="geometry" />
        </mxCell>
        <mxCell id="ecnfo4OH-dt6vmVNhMm7-377" style="edgeStyle=orthogonalEdgeStyle;rounded=0;orthogonalLoop=1;jettySize=auto;html=1;exitX=0;exitY=0.25;exitDx=0;exitDy=0;entryX=0;entryY=0.25;entryDx=0;entryDy=0;" parent="1" target="ecnfo4OH-dt6vmVNhMm7-230" edge="1">
          <mxGeometry relative="1" as="geometry">
            <mxPoint x="200.0000000000001" y="531.0645161290322" as="sourcePoint" />
          </mxGeometry>
        </mxCell>
        <mxCell id="ecnfo4OH-dt6vmVNhMm7-230" value="" style="rounded=0;whiteSpace=wrap;html=1;container=0;" parent="1" vertex="1">
          <mxGeometry x="458.3333333333333" y="504" width="83.33333333333333" height="108.74999999999999" as="geometry" />
        </mxCell>
        <mxCell id="ecnfo4OH-dt6vmVNhMm7-231" value="in_2" style="text;html=1;align=center;verticalAlign=middle;resizable=0;points=[];autosize=1;strokeColor=none;fillColor=none;container=0;" parent="1" vertex="1">
          <mxGeometry x="453" y="516.25" width="50" height="30" as="geometry" />
        </mxCell>
        <mxCell id="ecnfo4OH-dt6vmVNhMm7-232" value="en_2" style="text;html=1;align=center;verticalAlign=middle;resizable=0;points=[];autosize=1;strokeColor=none;fillColor=none;container=0;" parent="1" vertex="1">
          <mxGeometry x="453" y="543.05" width="50" height="30" as="geometry" />
        </mxCell>
        <mxCell id="ecnfo4OH-dt6vmVNhMm7-233" value="rst" style="text;html=1;align=center;verticalAlign=middle;resizable=0;points=[];autosize=1;strokeColor=none;fillColor=none;container=0;" parent="1" vertex="1">
          <mxGeometry x="468" y="620.7249999999999" width="40" height="30" as="geometry" />
        </mxCell>
        <mxCell id="ecnfo4OH-dt6vmVNhMm7-234" value="" style="triangle;whiteSpace=wrap;html=1;container=0;" parent="1" vertex="1">
          <mxGeometry x="458.3333333333333" y="576.5" width="16.666666666666668" height="21.749999999999996" as="geometry" />
        </mxCell>
        <mxCell id="ecnfo4OH-dt6vmVNhMm7-235" value="" style="endArrow=none;html=1;rounded=0;" parent="1" edge="1">
          <mxGeometry width="50" height="50" relative="1" as="geometry">
            <mxPoint x="499.8083333333333" y="612.75" as="sourcePoint" />
            <mxPoint x="500" y="649" as="targetPoint" />
          </mxGeometry>
        </mxCell>
        <mxCell id="ecnfo4OH-dt6vmVNhMm7-236" value="out_2" style="text;html=1;align=center;verticalAlign=middle;resizable=0;points=[];autosize=1;strokeColor=none;fillColor=none;container=0;" parent="1" vertex="1">
          <mxGeometry x="496" y="515.25" width="50" height="30" as="geometry" />
        </mxCell>
        <mxCell id="ecnfo4OH-dt6vmVNhMm7-378" style="edgeStyle=orthogonalEdgeStyle;rounded=0;orthogonalLoop=1;jettySize=auto;html=1;exitX=0;exitY=0.25;exitDx=0;exitDy=0;entryX=0;entryY=0.25;entryDx=0;entryDy=0;" parent="1" target="ecnfo4OH-dt6vmVNhMm7-241" edge="1">
          <mxGeometry relative="1" as="geometry">
            <mxPoint x="200.0000000000001" y="676.2258064516129" as="sourcePoint" />
          </mxGeometry>
        </mxCell>
        <mxCell id="ecnfo4OH-dt6vmVNhMm7-241" value="" style="rounded=0;whiteSpace=wrap;html=1;container=0;" parent="1" vertex="1">
          <mxGeometry x="458.3333333333333" y="649" width="83.33333333333333" height="108.74999999999999" as="geometry" />
        </mxCell>
        <mxCell id="ecnfo4OH-dt6vmVNhMm7-242" value="in_3" style="text;html=1;align=center;verticalAlign=middle;resizable=0;points=[];autosize=1;strokeColor=none;fillColor=none;container=0;" parent="1" vertex="1">
          <mxGeometry x="453" y="661.25" width="50" height="30" as="geometry" />
        </mxCell>
        <mxCell id="ecnfo4OH-dt6vmVNhMm7-243" value="en_3" style="text;html=1;align=center;verticalAlign=middle;resizable=0;points=[];autosize=1;strokeColor=none;fillColor=none;container=0;" parent="1" vertex="1">
          <mxGeometry x="453" y="687.05" width="50" height="30" as="geometry" />
        </mxCell>
        <mxCell id="ecnfo4OH-dt6vmVNhMm7-244" value="rst" style="text;html=1;align=center;verticalAlign=middle;resizable=0;points=[];autosize=1;strokeColor=none;fillColor=none;container=0;" parent="1" vertex="1">
          <mxGeometry x="468" y="765.725" width="40" height="30" as="geometry" />
        </mxCell>
        <mxCell id="ecnfo4OH-dt6vmVNhMm7-245" value="" style="triangle;whiteSpace=wrap;html=1;container=0;" parent="1" vertex="1">
          <mxGeometry x="458.3333333333333" y="721.5" width="16.666666666666668" height="21.749999999999996" as="geometry" />
        </mxCell>
        <mxCell id="ecnfo4OH-dt6vmVNhMm7-246" value="" style="endArrow=none;html=1;rounded=0;" parent="1" edge="1">
          <mxGeometry width="50" height="50" relative="1" as="geometry">
            <mxPoint x="499.8083333333333" y="757.75" as="sourcePoint" />
            <mxPoint x="500" y="794" as="targetPoint" />
          </mxGeometry>
        </mxCell>
        <mxCell id="ecnfo4OH-dt6vmVNhMm7-247" value="out_3" style="text;html=1;align=center;verticalAlign=middle;resizable=0;points=[];autosize=1;strokeColor=none;fillColor=none;container=0;" parent="1" vertex="1">
          <mxGeometry x="496" y="660.25" width="50" height="30" as="geometry" />
        </mxCell>
        <mxCell id="ecnfo4OH-dt6vmVNhMm7-379" style="edgeStyle=orthogonalEdgeStyle;rounded=0;orthogonalLoop=1;jettySize=auto;html=1;exitX=0;exitY=0.25;exitDx=0;exitDy=0;entryX=0;entryY=0.25;entryDx=0;entryDy=0;" parent="1" target="ecnfo4OH-dt6vmVNhMm7-252" edge="1">
          <mxGeometry relative="1" as="geometry">
            <mxPoint x="200.0000000000001" y="821.3870967741934" as="sourcePoint" />
          </mxGeometry>
        </mxCell>
        <mxCell id="ecnfo4OH-dt6vmVNhMm7-252" value="" style="rounded=0;whiteSpace=wrap;html=1;container=0;" parent="1" vertex="1">
          <mxGeometry x="458.3333333333333" y="794" width="83.33333333333333" height="108.74999999999999" as="geometry" />
        </mxCell>
        <mxCell id="ecnfo4OH-dt6vmVNhMm7-253" value="in_4" style="text;html=1;align=center;verticalAlign=middle;resizable=0;points=[];autosize=1;strokeColor=none;fillColor=none;container=0;" parent="1" vertex="1">
          <mxGeometry x="453" y="806.25" width="50" height="30" as="geometry" />
        </mxCell>
        <mxCell id="ecnfo4OH-dt6vmVNhMm7-254" value="en_4" style="text;html=1;align=center;verticalAlign=middle;resizable=0;points=[];autosize=1;strokeColor=none;fillColor=none;container=0;" parent="1" vertex="1">
          <mxGeometry x="453" y="833.05" width="50" height="30" as="geometry" />
        </mxCell>
        <mxCell id="ecnfo4OH-dt6vmVNhMm7-255" value="rst" style="text;html=1;align=center;verticalAlign=middle;resizable=0;points=[];autosize=1;strokeColor=none;fillColor=none;container=0;" parent="1" vertex="1">
          <mxGeometry x="468" y="910.725" width="40" height="30" as="geometry" />
        </mxCell>
        <mxCell id="ecnfo4OH-dt6vmVNhMm7-256" value="" style="triangle;whiteSpace=wrap;html=1;container=0;" parent="1" vertex="1">
          <mxGeometry x="458.3333333333333" y="866.5" width="16.666666666666668" height="21.749999999999996" as="geometry" />
        </mxCell>
        <mxCell id="ecnfo4OH-dt6vmVNhMm7-257" value="" style="endArrow=none;html=1;rounded=0;" parent="1" edge="1">
          <mxGeometry width="50" height="50" relative="1" as="geometry">
            <mxPoint x="499.8083333333333" y="902.75" as="sourcePoint" />
            <mxPoint x="500" y="939" as="targetPoint" />
          </mxGeometry>
        </mxCell>
        <mxCell id="ecnfo4OH-dt6vmVNhMm7-258" value="out_4" style="text;html=1;align=center;verticalAlign=middle;resizable=0;points=[];autosize=1;strokeColor=none;fillColor=none;container=0;" parent="1" vertex="1">
          <mxGeometry x="496" y="805.25" width="50" height="30" as="geometry" />
        </mxCell>
        <mxCell id="ecnfo4OH-dt6vmVNhMm7-380" style="edgeStyle=orthogonalEdgeStyle;rounded=0;orthogonalLoop=1;jettySize=auto;html=1;exitX=0;exitY=0.25;exitDx=0;exitDy=0;entryX=0;entryY=0.25;entryDx=0;entryDy=0;" parent="1" target="ecnfo4OH-dt6vmVNhMm7-274" edge="1">
          <mxGeometry relative="1" as="geometry">
            <mxPoint x="200.0000000000001" y="965.9032258064515" as="sourcePoint" />
          </mxGeometry>
        </mxCell>
        <mxCell id="ecnfo4OH-dt6vmVNhMm7-274" value="" style="rounded=0;whiteSpace=wrap;html=1;container=0;" parent="1" vertex="1">
          <mxGeometry x="458.3333333333333" y="938.9999999999999" width="83.33333333333333" height="108.74999999999999" as="geometry" />
        </mxCell>
        <mxCell id="ecnfo4OH-dt6vmVNhMm7-275" value="in_5" style="text;html=1;align=center;verticalAlign=middle;resizable=0;points=[];autosize=1;strokeColor=none;fillColor=none;container=0;" parent="1" vertex="1">
          <mxGeometry x="453" y="951.2499999999999" width="50" height="30" as="geometry" />
        </mxCell>
        <mxCell id="ecnfo4OH-dt6vmVNhMm7-276" value="en_5" style="text;html=1;align=center;verticalAlign=middle;resizable=0;points=[];autosize=1;strokeColor=none;fillColor=none;container=0;" parent="1" vertex="1">
          <mxGeometry x="453" y="978.0499999999998" width="50" height="30" as="geometry" />
        </mxCell>
        <mxCell id="ecnfo4OH-dt6vmVNhMm7-277" value="rst" style="text;html=1;align=center;verticalAlign=middle;resizable=0;points=[];autosize=1;strokeColor=none;fillColor=none;container=0;" parent="1" vertex="1">
          <mxGeometry x="468" y="1055.725" width="40" height="30" as="geometry" />
        </mxCell>
        <mxCell id="ecnfo4OH-dt6vmVNhMm7-278" value="" style="triangle;whiteSpace=wrap;html=1;container=0;" parent="1" vertex="1">
          <mxGeometry x="458.3333333333333" y="1011.4999999999999" width="16.666666666666668" height="21.749999999999996" as="geometry" />
        </mxCell>
        <mxCell id="ecnfo4OH-dt6vmVNhMm7-279" value="" style="endArrow=none;html=1;rounded=0;" parent="1" edge="1">
          <mxGeometry width="50" height="50" relative="1" as="geometry">
            <mxPoint x="499.8083333333333" y="1047.75" as="sourcePoint" />
            <mxPoint x="500" y="1084" as="targetPoint" />
          </mxGeometry>
        </mxCell>
        <mxCell id="ecnfo4OH-dt6vmVNhMm7-280" value="out_5" style="text;html=1;align=center;verticalAlign=middle;resizable=0;points=[];autosize=1;strokeColor=none;fillColor=none;container=0;" parent="1" vertex="1">
          <mxGeometry x="496" y="950.2499999999999" width="50" height="30" as="geometry" />
        </mxCell>
        <mxCell id="ecnfo4OH-dt6vmVNhMm7-384" style="edgeStyle=orthogonalEdgeStyle;rounded=0;orthogonalLoop=1;jettySize=auto;html=1;exitX=0;exitY=0.25;exitDx=0;exitDy=0;entryX=0;entryY=0.25;entryDx=0;entryDy=0;" parent="1" target="ecnfo4OH-dt6vmVNhMm7-285" edge="1">
          <mxGeometry relative="1" as="geometry">
            <mxPoint x="200.0000000000001" y="1111.0645161290322" as="sourcePoint" />
          </mxGeometry>
        </mxCell>
        <mxCell id="ecnfo4OH-dt6vmVNhMm7-285" value="" style="rounded=0;whiteSpace=wrap;html=1;container=0;" parent="1" vertex="1">
          <mxGeometry x="458.3333333333333" y="1084" width="83.33333333333333" height="108.74999999999999" as="geometry" />
        </mxCell>
        <mxCell id="ecnfo4OH-dt6vmVNhMm7-286" value="in_6" style="text;html=1;align=center;verticalAlign=middle;resizable=0;points=[];autosize=1;strokeColor=none;fillColor=none;container=0;" parent="1" vertex="1">
          <mxGeometry x="453" y="1096.25" width="50" height="30" as="geometry" />
        </mxCell>
        <mxCell id="ecnfo4OH-dt6vmVNhMm7-287" value="en_6" style="text;html=1;align=center;verticalAlign=middle;resizable=0;points=[];autosize=1;strokeColor=none;fillColor=none;container=0;" parent="1" vertex="1">
          <mxGeometry x="453" y="1123.0499999999997" width="50" height="30" as="geometry" />
        </mxCell>
        <mxCell id="ecnfo4OH-dt6vmVNhMm7-288" value="rst" style="text;html=1;align=center;verticalAlign=middle;resizable=0;points=[];autosize=1;strokeColor=none;fillColor=none;container=0;" parent="1" vertex="1">
          <mxGeometry x="468" y="1200.725" width="40" height="30" as="geometry" />
        </mxCell>
        <mxCell id="ecnfo4OH-dt6vmVNhMm7-289" value="" style="triangle;whiteSpace=wrap;html=1;container=0;" parent="1" vertex="1">
          <mxGeometry x="458.3333333333333" y="1156.5" width="16.666666666666668" height="21.749999999999996" as="geometry" />
        </mxCell>
        <mxCell id="ecnfo4OH-dt6vmVNhMm7-290" value="" style="endArrow=none;html=1;rounded=0;" parent="1" edge="1">
          <mxGeometry width="50" height="50" relative="1" as="geometry">
            <mxPoint x="499.8083333333333" y="1192.7499999999998" as="sourcePoint" />
            <mxPoint x="500" y="1229" as="targetPoint" />
          </mxGeometry>
        </mxCell>
        <mxCell id="ecnfo4OH-dt6vmVNhMm7-291" value="out_6" style="text;html=1;align=center;verticalAlign=middle;resizable=0;points=[];autosize=1;strokeColor=none;fillColor=none;container=0;" parent="1" vertex="1">
          <mxGeometry x="496" y="1095.25" width="50" height="30" as="geometry" />
        </mxCell>
        <mxCell id="ecnfo4OH-dt6vmVNhMm7-385" style="edgeStyle=orthogonalEdgeStyle;rounded=0;orthogonalLoop=1;jettySize=auto;html=1;exitX=0;exitY=0.25;exitDx=0;exitDy=0;entryX=0;entryY=0.25;entryDx=0;entryDy=0;" parent="1" edge="1">
          <mxGeometry relative="1" as="geometry">
            <mxPoint x="458.33333333333326" y="1254.1874999999998" as="targetPoint" />
            <mxPoint x="200.0000000000001" y="1254.225806451613" as="sourcePoint" />
          </mxGeometry>
        </mxCell>
        <mxCell id="ecnfo4OH-dt6vmVNhMm7-296" value="" style="rounded=0;whiteSpace=wrap;html=1;container=0;" parent="1" vertex="1">
          <mxGeometry x="458.3333333333333" y="1228.9999999999998" width="83.33333333333333" height="108.74999999999999" as="geometry" />
        </mxCell>
        <mxCell id="ecnfo4OH-dt6vmVNhMm7-297" value="in_7" style="text;html=1;align=center;verticalAlign=middle;resizable=0;points=[];autosize=1;strokeColor=none;fillColor=none;container=0;" parent="1" vertex="1">
          <mxGeometry x="453" y="1241.2499999999998" width="50" height="30" as="geometry" />
        </mxCell>
        <mxCell id="ecnfo4OH-dt6vmVNhMm7-298" value="en_7" style="text;html=1;align=center;verticalAlign=middle;resizable=0;points=[];autosize=1;strokeColor=none;fillColor=none;container=0;" parent="1" vertex="1">
          <mxGeometry x="453" y="1268.0499999999997" width="50" height="30" as="geometry" />
        </mxCell>
        <mxCell id="ecnfo4OH-dt6vmVNhMm7-299" value="rst" style="text;html=1;align=center;verticalAlign=middle;resizable=0;points=[];autosize=1;strokeColor=none;fillColor=none;container=0;" parent="1" vertex="1">
          <mxGeometry x="468" y="1364.0049999999997" width="40" height="30" as="geometry" />
        </mxCell>
        <mxCell id="ecnfo4OH-dt6vmVNhMm7-300" value="" style="triangle;whiteSpace=wrap;html=1;container=0;" parent="1" vertex="1">
          <mxGeometry x="458.3333333333333" y="1301.4999999999998" width="16.666666666666668" height="21.749999999999996" as="geometry" />
        </mxCell>
        <mxCell id="ecnfo4OH-dt6vmVNhMm7-301" value="" style="endArrow=none;html=1;rounded=0;" parent="1" edge="1">
          <mxGeometry width="50" height="50" relative="1" as="geometry">
            <mxPoint x="499.8083333333333" y="1337.7499999999998" as="sourcePoint" />
            <mxPoint x="500" y="1414" as="targetPoint" />
          </mxGeometry>
        </mxCell>
        <mxCell id="ecnfo4OH-dt6vmVNhMm7-302" value="out_7" style="text;html=1;align=center;verticalAlign=middle;resizable=0;points=[];autosize=1;strokeColor=none;fillColor=none;container=0;" parent="1" vertex="1">
          <mxGeometry x="496" y="1240.2499999999998" width="50" height="30" as="geometry" />
        </mxCell>
        <mxCell id="ecnfo4OH-dt6vmVNhMm7-342" style="edgeStyle=orthogonalEdgeStyle;rounded=0;orthogonalLoop=1;jettySize=auto;html=1;exitX=0.5;exitY=0;exitDx=0;exitDy=0;" parent="1" source="ecnfo4OH-dt6vmVNhMm7-306" edge="1">
          <mxGeometry relative="1" as="geometry">
            <mxPoint x="1030" y="787.7058823529412" as="targetPoint" />
          </mxGeometry>
        </mxCell>
        <mxCell id="0WWqZJ1e9FoO65VM5oEF-97" style="edgeStyle=orthogonalEdgeStyle;rounded=0;orthogonalLoop=1;jettySize=auto;html=1;exitX=1;exitY=0.5;exitDx=0;exitDy=0;entryX=1;entryY=0.5;entryDx=0;entryDy=0;" parent="1" edge="1">
          <mxGeometry relative="1" as="geometry">
            <mxPoint x="841.5957894736848" y="1061.3544736842105" as="targetPoint" />
            <mxPoint x="1598" y="12.799967447916671" as="sourcePoint" />
            <Array as="points">
              <mxPoint x="1598" y="586" />
              <mxPoint x="910" y="586" />
              <mxPoint x="910" y="1116" />
              <mxPoint x="842" y="1116" />
            </Array>
          </mxGeometry>
        </mxCell>
        <mxCell id="ecnfo4OH-dt6vmVNhMm7-306" value="" style="shape=trapezoid;perimeter=trapezoidPerimeter;whiteSpace=wrap;html=1;fixedSize=1;rotation=90;size=75.25;container=0;" parent="1" vertex="1">
          <mxGeometry x="534.3063157894737" y="752.4887164979154" width="618.578947368421" height="70.40256700416914" as="geometry" />
        </mxCell>
        <mxCell id="ecnfo4OH-dt6vmVNhMm7-310" value="000" style="text;html=1;align=center;verticalAlign=middle;resizable=0;points=[];autosize=1;strokeColor=none;fillColor=none;fontSize=16;container=0;" parent="1" vertex="1">
          <mxGeometry x="809" y="531.2473525908279" width="50" height="30" as="geometry" />
        </mxCell>
        <mxCell id="ecnfo4OH-dt6vmVNhMm7-311" value="001" style="text;html=1;align=center;verticalAlign=middle;resizable=0;points=[];autosize=1;strokeColor=none;fillColor=none;fontSize=16;container=0;" parent="1" vertex="1">
          <mxGeometry x="807.6" y="582.3596456223943" width="50" height="30" as="geometry" />
        </mxCell>
        <mxCell id="ecnfo4OH-dt6vmVNhMm7-312" value="010" style="text;html=1;align=center;verticalAlign=middle;resizable=0;points=[];autosize=1;strokeColor=none;fillColor=none;fontSize=16;container=0;" parent="1" vertex="1">
          <mxGeometry x="805.6" y="669.7691036331149" width="50" height="30" as="geometry" />
        </mxCell>
        <mxCell id="ecnfo4OH-dt6vmVNhMm7-313" value="011" style="text;html=1;align=center;verticalAlign=middle;resizable=0;points=[];autosize=1;strokeColor=none;fillColor=none;fontSize=16;container=0;" parent="1" vertex="1">
          <mxGeometry x="805.6" y="718.2258040500298" width="50" height="30" as="geometry" />
        </mxCell>
        <mxCell id="ecnfo4OH-dt6vmVNhMm7-314" value="100" style="text;html=1;align=center;verticalAlign=middle;resizable=0;points=[];autosize=1;strokeColor=none;fillColor=none;fontSize=16;container=0;" parent="1" vertex="1">
          <mxGeometry x="805.6" y="805.2495920190589" width="50" height="30" as="geometry" />
        </mxCell>
        <mxCell id="ecnfo4OH-dt6vmVNhMm7-315" value="101" style="text;html=1;align=center;verticalAlign=middle;resizable=0;points=[];autosize=1;strokeColor=none;fillColor=none;fontSize=16;container=0;" parent="1" vertex="1">
          <mxGeometry x="805.6" y="847.1992048838595" width="50" height="30" as="geometry" />
        </mxCell>
        <mxCell id="ecnfo4OH-dt6vmVNhMm7-316" value="110" style="text;html=1;align=center;verticalAlign=middle;resizable=0;points=[];autosize=1;strokeColor=none;fillColor=none;fontSize=16;container=0;" parent="1" vertex="1">
          <mxGeometry x="805.6" y="915.4459053007743" width="50" height="30" as="geometry" />
        </mxCell>
        <mxCell id="ecnfo4OH-dt6vmVNhMm7-317" value="111" style="text;html=1;align=center;verticalAlign=middle;resizable=0;points=[];autosize=1;strokeColor=none;fillColor=none;fontSize=16;container=0;" parent="1" vertex="1">
          <mxGeometry x="805.6" y="950.2526057176891" width="50" height="30" as="geometry" />
        </mxCell>
        <mxCell id="ecnfo4OH-dt6vmVNhMm7-308" value="&lt;font style=&quot;font-size: 15px;&quot;&gt;8x1 MUX&lt;/font&gt;" style="text;html=1;align=center;verticalAlign=middle;resizable=0;points=[];autosize=1;strokeColor=none;fillColor=none;rotation=0;fontSize=30;container=0;" parent="1" vertex="1">
          <mxGeometry x="787.5936842105264" y="417.7464346634902" width="90" height="50" as="geometry" />
        </mxCell>
        <mxCell id="ecnfo4OH-dt6vmVNhMm7-330" style="edgeStyle=orthogonalEdgeStyle;rounded=0;orthogonalLoop=1;jettySize=auto;html=1;exitX=1;exitY=0.25;exitDx=0;exitDy=0;entryX=0.192;entryY=0.998;entryDx=0;entryDy=0;entryPerimeter=0;" parent="1" source="ecnfo4OH-dt6vmVNhMm7-219" target="ecnfo4OH-dt6vmVNhMm7-306" edge="1">
          <mxGeometry relative="1" as="geometry" />
        </mxCell>
        <mxCell id="ecnfo4OH-dt6vmVNhMm7-331" style="edgeStyle=orthogonalEdgeStyle;rounded=0;orthogonalLoop=1;jettySize=auto;html=1;exitX=1;exitY=0.25;exitDx=0;exitDy=0;entryX=0.335;entryY=1.005;entryDx=0;entryDy=0;entryPerimeter=0;" parent="1" source="ecnfo4OH-dt6vmVNhMm7-230" target="ecnfo4OH-dt6vmVNhMm7-306" edge="1">
          <mxGeometry relative="1" as="geometry">
            <Array as="points">
              <mxPoint x="640" y="531" />
              <mxPoint x="640" y="686" />
              <mxPoint x="730" y="686" />
            </Array>
          </mxGeometry>
        </mxCell>
        <mxCell id="ecnfo4OH-dt6vmVNhMm7-332" style="edgeStyle=orthogonalEdgeStyle;rounded=0;orthogonalLoop=1;jettySize=auto;html=1;exitX=1;exitY=0.25;exitDx=0;exitDy=0;entryX=0.052;entryY=0.509;entryDx=0;entryDy=0;entryPerimeter=0;" parent="1" source="ecnfo4OH-dt6vmVNhMm7-241" target="ecnfo4OH-dt6vmVNhMm7-313" edge="1">
          <mxGeometry relative="1" as="geometry">
            <Array as="points">
              <mxPoint x="630" y="676" />
              <mxPoint x="630" y="734" />
            </Array>
          </mxGeometry>
        </mxCell>
        <mxCell id="ecnfo4OH-dt6vmVNhMm7-333" style="edgeStyle=orthogonalEdgeStyle;rounded=0;orthogonalLoop=1;jettySize=auto;html=1;exitX=1;exitY=0.25;exitDx=0;exitDy=0;entryX=0.554;entryY=0.99;entryDx=0;entryDy=0;entryPerimeter=0;" parent="1" source="ecnfo4OH-dt6vmVNhMm7-252" target="ecnfo4OH-dt6vmVNhMm7-306" edge="1">
          <mxGeometry relative="1" as="geometry" />
        </mxCell>
        <mxCell id="ecnfo4OH-dt6vmVNhMm7-334" style="edgeStyle=orthogonalEdgeStyle;rounded=0;orthogonalLoop=1;jettySize=auto;html=1;exitX=1;exitY=0.25;exitDx=0;exitDy=0;entryX=0.623;entryY=1.003;entryDx=0;entryDy=0;entryPerimeter=0;" parent="1" source="ecnfo4OH-dt6vmVNhMm7-274" target="ecnfo4OH-dt6vmVNhMm7-306" edge="1">
          <mxGeometry relative="1" as="geometry">
            <mxPoint x="800" y="864" as="targetPoint" />
            <Array as="points">
              <mxPoint x="630" y="966" />
              <mxPoint x="630" y="864" />
            </Array>
          </mxGeometry>
        </mxCell>
        <mxCell id="ecnfo4OH-dt6vmVNhMm7-337" style="edgeStyle=orthogonalEdgeStyle;rounded=0;orthogonalLoop=1;jettySize=auto;html=1;exitX=1;exitY=0.25;exitDx=0;exitDy=0;entryX=0.786;entryY=1.014;entryDx=0;entryDy=0;entryPerimeter=0;" parent="1" source="ecnfo4OH-dt6vmVNhMm7-296" target="ecnfo4OH-dt6vmVNhMm7-306" edge="1">
          <mxGeometry relative="1" as="geometry">
            <Array as="points">
              <mxPoint x="680" y="1256" />
              <mxPoint x="680" y="964" />
              <mxPoint x="807" y="964" />
            </Array>
          </mxGeometry>
        </mxCell>
        <mxCell id="ecnfo4OH-dt6vmVNhMm7-339" style="edgeStyle=orthogonalEdgeStyle;rounded=0;orthogonalLoop=1;jettySize=auto;html=1;exitX=1;exitY=0.25;exitDx=0;exitDy=0;entryX=0.732;entryY=1.01;entryDx=0;entryDy=0;entryPerimeter=0;" parent="1" source="ecnfo4OH-dt6vmVNhMm7-285" target="ecnfo4OH-dt6vmVNhMm7-306" edge="1">
          <mxGeometry relative="1" as="geometry">
            <Array as="points">
              <mxPoint x="640" y="1111" />
              <mxPoint x="640" y="931" />
            </Array>
          </mxGeometry>
        </mxCell>
        <mxCell id="ecnfo4OH-dt6vmVNhMm7-344" value="&lt;div&gt;Seven Segment Display Decoder&lt;/div&gt;" style="rounded=0;whiteSpace=wrap;html=1;" parent="1" vertex="1">
          <mxGeometry x="1030" y="725.46" width="110" height="138.54" as="geometry" />
        </mxCell>
        <mxCell id="ecnfo4OH-dt6vmVNhMm7-345" value="" style="endArrow=none;html=1;rounded=0;" parent="1" edge="1">
          <mxGeometry width="50" height="50" relative="1" as="geometry">
            <mxPoint x="590" y="250.25" as="sourcePoint" />
            <mxPoint x="610" y="230.25" as="targetPoint" />
          </mxGeometry>
        </mxCell>
        <mxCell id="ecnfo4OH-dt6vmVNhMm7-346" value="4" style="text;html=1;align=center;verticalAlign=middle;resizable=0;points=[];autosize=1;strokeColor=none;fillColor=none;" parent="1" vertex="1">
          <mxGeometry x="585" y="212" width="30" height="30" as="geometry" />
        </mxCell>
        <mxCell id="ecnfo4OH-dt6vmVNhMm7-347" value="" style="endArrow=none;html=1;rounded=0;" parent="1" edge="1">
          <mxGeometry width="50" height="50" relative="1" as="geometry">
            <mxPoint x="590" y="396.25" as="sourcePoint" />
            <mxPoint x="610" y="376.25" as="targetPoint" />
          </mxGeometry>
        </mxCell>
        <mxCell id="ecnfo4OH-dt6vmVNhMm7-348" value="4" style="text;html=1;align=center;verticalAlign=middle;resizable=0;points=[];autosize=1;strokeColor=none;fillColor=none;" parent="1" vertex="1">
          <mxGeometry x="585" y="358" width="30" height="30" as="geometry" />
        </mxCell>
        <mxCell id="ecnfo4OH-dt6vmVNhMm7-349" value="" style="endArrow=none;html=1;rounded=0;" parent="1" edge="1">
          <mxGeometry width="50" height="50" relative="1" as="geometry">
            <mxPoint x="590" y="542.25" as="sourcePoint" />
            <mxPoint x="610" y="522.25" as="targetPoint" />
          </mxGeometry>
        </mxCell>
        <mxCell id="ecnfo4OH-dt6vmVNhMm7-350" value="4" style="text;html=1;align=center;verticalAlign=middle;resizable=0;points=[];autosize=1;strokeColor=none;fillColor=none;" parent="1" vertex="1">
          <mxGeometry x="585" y="504" width="30" height="30" as="geometry" />
        </mxCell>
        <mxCell id="ecnfo4OH-dt6vmVNhMm7-351" value="" style="endArrow=none;html=1;rounded=0;" parent="1" edge="1">
          <mxGeometry width="50" height="50" relative="1" as="geometry">
            <mxPoint x="590" y="686.25" as="sourcePoint" />
            <mxPoint x="610" y="666.25" as="targetPoint" />
          </mxGeometry>
        </mxCell>
        <mxCell id="ecnfo4OH-dt6vmVNhMm7-352" value="4" style="text;html=1;align=center;verticalAlign=middle;resizable=0;points=[];autosize=1;strokeColor=none;fillColor=none;" parent="1" vertex="1">
          <mxGeometry x="585" y="648" width="30" height="30" as="geometry" />
        </mxCell>
        <mxCell id="ecnfo4OH-dt6vmVNhMm7-353" value="" style="endArrow=none;html=1;rounded=0;" parent="1" edge="1">
          <mxGeometry width="50" height="50" relative="1" as="geometry">
            <mxPoint x="590" y="831.25" as="sourcePoint" />
            <mxPoint x="610" y="811.25" as="targetPoint" />
          </mxGeometry>
        </mxCell>
        <mxCell id="ecnfo4OH-dt6vmVNhMm7-354" value="4" style="text;html=1;align=center;verticalAlign=middle;resizable=0;points=[];autosize=1;strokeColor=none;fillColor=none;" parent="1" vertex="1">
          <mxGeometry x="585" y="793" width="30" height="30" as="geometry" />
        </mxCell>
        <mxCell id="ecnfo4OH-dt6vmVNhMm7-355" value="" style="endArrow=none;html=1;rounded=0;" parent="1" edge="1">
          <mxGeometry width="50" height="50" relative="1" as="geometry">
            <mxPoint x="590" y="976.25" as="sourcePoint" />
            <mxPoint x="610" y="956.25" as="targetPoint" />
          </mxGeometry>
        </mxCell>
        <mxCell id="ecnfo4OH-dt6vmVNhMm7-356" value="4" style="text;html=1;align=center;verticalAlign=middle;resizable=0;points=[];autosize=1;strokeColor=none;fillColor=none;" parent="1" vertex="1">
          <mxGeometry x="585" y="938" width="30" height="30" as="geometry" />
        </mxCell>
        <mxCell id="ecnfo4OH-dt6vmVNhMm7-359" value="" style="endArrow=none;html=1;rounded=0;" parent="1" edge="1">
          <mxGeometry width="50" height="50" relative="1" as="geometry">
            <mxPoint x="590" y="1121.25" as="sourcePoint" />
            <mxPoint x="610" y="1101.25" as="targetPoint" />
          </mxGeometry>
        </mxCell>
        <mxCell id="ecnfo4OH-dt6vmVNhMm7-360" value="4" style="text;html=1;align=center;verticalAlign=middle;resizable=0;points=[];autosize=1;strokeColor=none;fillColor=none;" parent="1" vertex="1">
          <mxGeometry x="585" y="1083" width="30" height="30" as="geometry" />
        </mxCell>
        <mxCell id="ecnfo4OH-dt6vmVNhMm7-361" value="" style="endArrow=none;html=1;rounded=0;" parent="1" edge="1">
          <mxGeometry width="50" height="50" relative="1" as="geometry">
            <mxPoint x="590" y="1266.25" as="sourcePoint" />
            <mxPoint x="610" y="1246.25" as="targetPoint" />
          </mxGeometry>
        </mxCell>
        <mxCell id="ecnfo4OH-dt6vmVNhMm7-362" value="4" style="text;html=1;align=center;verticalAlign=middle;resizable=0;points=[];autosize=1;strokeColor=none;fillColor=none;" parent="1" vertex="1">
          <mxGeometry x="585" y="1228" width="30" height="30" as="geometry" />
        </mxCell>
        <mxCell id="ecnfo4OH-dt6vmVNhMm7-367" value="" style="endArrow=none;html=1;rounded=0;" parent="1" edge="1">
          <mxGeometry width="50" height="50" relative="1" as="geometry">
            <mxPoint x="1140" y="794" as="sourcePoint" />
            <mxPoint x="1250" y="794" as="targetPoint" />
          </mxGeometry>
        </mxCell>
        <mxCell id="ecnfo4OH-dt6vmVNhMm7-368" value="" style="endArrow=none;html=1;rounded=0;" parent="1" edge="1">
          <mxGeometry width="50" height="50" relative="1" as="geometry">
            <mxPoint x="1190" y="804.25" as="sourcePoint" />
            <mxPoint x="1210" y="784.25" as="targetPoint" />
          </mxGeometry>
        </mxCell>
        <mxCell id="ecnfo4OH-dt6vmVNhMm7-369" value="7" style="text;html=1;align=center;verticalAlign=middle;resizable=0;points=[];autosize=1;strokeColor=none;fillColor=none;" parent="1" vertex="1">
          <mxGeometry x="1180" y="766.72" width="30" height="30" as="geometry" />
        </mxCell>
        <mxCell id="ecnfo4OH-dt6vmVNhMm7-372" value="" style="endArrow=none;html=1;rounded=0;" parent="1" edge="1">
          <mxGeometry width="50" height="50" relative="1" as="geometry">
            <mxPoint x="1250" y="834" as="sourcePoint" />
            <mxPoint x="1250" y="754" as="targetPoint" />
          </mxGeometry>
        </mxCell>
        <mxCell id="ecnfo4OH-dt6vmVNhMm7-175" value="" style="endArrow=classic;html=1;rounded=0;endFill=1;" parent="1" edge="1">
          <mxGeometry width="50" height="50" relative="1" as="geometry">
            <mxPoint x="1428.3333333333335" y="986.6170798898072" as="sourcePoint" />
            <mxPoint x="1428.3333333333335" y="861.4628099173553" as="targetPoint" />
          </mxGeometry>
        </mxCell>
        <mxCell id="ecnfo4OH-dt6vmVNhMm7-194" value="seg_sel_7" style="edgeLabel;html=1;align=center;verticalAlign=middle;resizable=0;points=[];container=0;" parent="ecnfo4OH-dt6vmVNhMm7-175" vertex="1" connectable="0">
          <mxGeometry x="0.1299" y="1" relative="1" as="geometry">
            <mxPoint x="-29" as="offset" />
          </mxGeometry>
        </mxCell>
        <mxCell id="ecnfo4OH-dt6vmVNhMm7-176" value="" style="endArrow=classic;html=1;rounded=0;endFill=1;" parent="1" edge="1">
          <mxGeometry width="50" height="50" relative="1" as="geometry">
            <mxPoint x="1590.8333333333335" y="988" as="sourcePoint" />
            <mxPoint x="1590.8333333333335" y="862.8457300275483" as="targetPoint" />
          </mxGeometry>
        </mxCell>
        <mxCell id="ecnfo4OH-dt6vmVNhMm7-195" value="seg_sel_6" style="edgeLabel;html=1;align=center;verticalAlign=middle;resizable=0;points=[];container=0;" parent="ecnfo4OH-dt6vmVNhMm7-176" vertex="1" connectable="0">
          <mxGeometry x="0.123" y="1" relative="1" as="geometry">
            <mxPoint x="-29" as="offset" />
          </mxGeometry>
        </mxCell>
        <mxCell id="ecnfo4OH-dt6vmVNhMm7-177" value="" style="endArrow=classic;html=1;rounded=0;endFill=1;" parent="1" edge="1">
          <mxGeometry width="50" height="50" relative="1" as="geometry">
            <mxPoint x="1753.3333333333335" y="987.3085399449036" as="sourcePoint" />
            <mxPoint x="1753.3333333333335" y="862.1542699724517" as="targetPoint" />
          </mxGeometry>
        </mxCell>
        <mxCell id="ecnfo4OH-dt6vmVNhMm7-196" value="seg_sel_5" style="edgeLabel;html=1;align=center;verticalAlign=middle;resizable=0;points=[];container=0;" parent="ecnfo4OH-dt6vmVNhMm7-177" vertex="1" connectable="0">
          <mxGeometry x="0.1265" y="-1" relative="1" as="geometry">
            <mxPoint x="-29" as="offset" />
          </mxGeometry>
        </mxCell>
        <mxCell id="ecnfo4OH-dt6vmVNhMm7-178" value="" style="endArrow=classic;html=1;rounded=0;endFill=1;" parent="1" edge="1">
          <mxGeometry width="50" height="50" relative="1" as="geometry">
            <mxPoint x="1915.8333333333335" y="987.3085399449036" as="sourcePoint" />
            <mxPoint x="1915.8333333333335" y="862.1542699724517" as="targetPoint" />
          </mxGeometry>
        </mxCell>
        <mxCell id="ecnfo4OH-dt6vmVNhMm7-197" value="seg_sel_4" style="edgeLabel;html=1;align=center;verticalAlign=middle;resizable=0;points=[];container=0;" parent="ecnfo4OH-dt6vmVNhMm7-178" vertex="1" connectable="0">
          <mxGeometry x="0.122" y="-1" relative="1" as="geometry">
            <mxPoint x="-29" as="offset" />
          </mxGeometry>
        </mxCell>
        <mxCell id="ecnfo4OH-dt6vmVNhMm7-179" value="" style="endArrow=classic;html=1;rounded=0;endFill=1;" parent="1" edge="1">
          <mxGeometry width="50" height="50" relative="1" as="geometry">
            <mxPoint x="2078.3333333333335" y="987.3085399449036" as="sourcePoint" />
            <mxPoint x="2078.3333333333335" y="862.1542699724517" as="targetPoint" />
          </mxGeometry>
        </mxCell>
        <mxCell id="ecnfo4OH-dt6vmVNhMm7-198" value="seg_sel_3" style="edgeLabel;html=1;align=center;verticalAlign=middle;resizable=0;points=[];container=0;" parent="ecnfo4OH-dt6vmVNhMm7-179" vertex="1" connectable="0">
          <mxGeometry x="0.1431" y="1" relative="1" as="geometry">
            <mxPoint x="-29" as="offset" />
          </mxGeometry>
        </mxCell>
        <mxCell id="ecnfo4OH-dt6vmVNhMm7-181" value="" style="endArrow=classic;html=1;rounded=0;endFill=1;" parent="1" edge="1">
          <mxGeometry width="50" height="50" relative="1" as="geometry">
            <mxPoint x="2403.3333333333335" y="988" as="sourcePoint" />
            <mxPoint x="2403.3333333333335" y="862.8457300275483" as="targetPoint" />
          </mxGeometry>
        </mxCell>
        <mxCell id="ecnfo4OH-dt6vmVNhMm7-200" value="seg_sel_1" style="edgeLabel;html=1;align=center;verticalAlign=middle;resizable=0;points=[];container=0;" parent="ecnfo4OH-dt6vmVNhMm7-181" vertex="1" connectable="0">
          <mxGeometry x="0.1328" y="-1" relative="1" as="geometry">
            <mxPoint x="-29" as="offset" />
          </mxGeometry>
        </mxCell>
        <mxCell id="ecnfo4OH-dt6vmVNhMm7-19" value="" style="endArrow=none;html=1;rounded=0;" parent="1" edge="1">
          <mxGeometry width="50" height="50" relative="1" as="geometry">
            <mxPoint x="1250" y="754" as="sourcePoint" />
            <mxPoint x="1374.1666666666665" y="753.5206611570248" as="targetPoint" />
          </mxGeometry>
        </mxCell>
        <mxCell id="ecnfo4OH-dt6vmVNhMm7-185" value="a" style="edgeLabel;html=1;align=center;verticalAlign=middle;resizable=0;points=[];container=0;" parent="ecnfo4OH-dt6vmVNhMm7-19" vertex="1" connectable="0">
          <mxGeometry x="0.0475" y="-2" relative="1" as="geometry">
            <mxPoint x="-5" y="-3" as="offset" />
          </mxGeometry>
        </mxCell>
        <mxCell id="ecnfo4OH-dt6vmVNhMm7-29" value="" style="endArrow=none;html=1;rounded=0;" parent="1" edge="1">
          <mxGeometry width="50" height="50" relative="1" as="geometry">
            <mxPoint x="1250" y="766" as="sourcePoint" />
            <mxPoint x="1374.1666666666665" y="766.0413223140496" as="targetPoint" />
          </mxGeometry>
        </mxCell>
        <mxCell id="ecnfo4OH-dt6vmVNhMm7-187" value="b" style="edgeLabel;html=1;align=center;verticalAlign=middle;resizable=0;points=[];container=0;" parent="ecnfo4OH-dt6vmVNhMm7-29" vertex="1" connectable="0">
          <mxGeometry x="-0.0406" relative="1" as="geometry">
            <mxPoint as="offset" />
          </mxGeometry>
        </mxCell>
        <mxCell id="ecnfo4OH-dt6vmVNhMm7-30" value="" style="endArrow=none;html=1;rounded=0;" parent="1" edge="1">
          <mxGeometry width="50" height="50" relative="1" as="geometry">
            <mxPoint x="1250" y="780" as="sourcePoint" />
            <mxPoint x="1374.1666666666665" y="779.8705234159779" as="targetPoint" />
          </mxGeometry>
        </mxCell>
        <mxCell id="ecnfo4OH-dt6vmVNhMm7-188" value="c" style="edgeLabel;html=1;align=center;verticalAlign=middle;resizable=0;points=[];container=0;" parent="ecnfo4OH-dt6vmVNhMm7-30" vertex="1" connectable="0">
          <mxGeometry x="-0.0171" relative="1" as="geometry">
            <mxPoint x="-2" as="offset" />
          </mxGeometry>
        </mxCell>
        <mxCell id="ecnfo4OH-dt6vmVNhMm7-31" value="" style="endArrow=none;html=1;rounded=0;" parent="1" edge="1">
          <mxGeometry width="50" height="50" relative="1" as="geometry">
            <mxPoint x="1250" y="794" as="sourcePoint" />
            <mxPoint x="1374.1666666666665" y="793.6997245179064" as="targetPoint" />
          </mxGeometry>
        </mxCell>
        <mxCell id="ecnfo4OH-dt6vmVNhMm7-189" value="d" style="edgeLabel;html=1;align=center;verticalAlign=middle;resizable=0;points=[];container=0;" parent="ecnfo4OH-dt6vmVNhMm7-31" vertex="1" connectable="0">
          <mxGeometry x="-0.0054" relative="1" as="geometry">
            <mxPoint x="-3" as="offset" />
          </mxGeometry>
        </mxCell>
        <mxCell id="ecnfo4OH-dt6vmVNhMm7-32" value="" style="endArrow=none;html=1;rounded=0;" parent="1" edge="1">
          <mxGeometry width="50" height="50" relative="1" as="geometry">
            <mxPoint x="1250" y="807" as="sourcePoint" />
            <mxPoint x="1374.1666666666665" y="806.70608815427" as="targetPoint" />
          </mxGeometry>
        </mxCell>
        <mxCell id="ecnfo4OH-dt6vmVNhMm7-190" value="e" style="edgeLabel;html=1;align=center;verticalAlign=middle;resizable=0;points=[];container=0;" parent="ecnfo4OH-dt6vmVNhMm7-32" vertex="1" connectable="0">
          <mxGeometry x="-0.0171" y="1" relative="1" as="geometry">
            <mxPoint x="-2" as="offset" />
          </mxGeometry>
        </mxCell>
        <mxCell id="ecnfo4OH-dt6vmVNhMm7-33" value="" style="endArrow=none;html=1;rounded=0;" parent="1" edge="1">
          <mxGeometry width="50" height="50" relative="1" as="geometry">
            <mxPoint x="1250" y="821" as="sourcePoint" />
            <mxPoint x="1374.1666666666665" y="821.358126721763" as="targetPoint" />
          </mxGeometry>
        </mxCell>
        <mxCell id="ecnfo4OH-dt6vmVNhMm7-191" value="f" style="edgeLabel;html=1;align=center;verticalAlign=middle;resizable=0;points=[];container=0;" parent="ecnfo4OH-dt6vmVNhMm7-33" vertex="1" connectable="0">
          <mxGeometry x="-0.0171" relative="1" as="geometry">
            <mxPoint x="-2" as="offset" />
          </mxGeometry>
        </mxCell>
        <mxCell id="ecnfo4OH-dt6vmVNhMm7-34" value="" style="endArrow=none;html=1;rounded=0;" parent="1" edge="1">
          <mxGeometry width="50" height="50" relative="1" as="geometry">
            <mxPoint x="1250" y="834" as="sourcePoint" />
            <mxPoint x="1374.1666666666665" y="835.1873278236915" as="targetPoint" />
          </mxGeometry>
        </mxCell>
        <mxCell id="ecnfo4OH-dt6vmVNhMm7-192" value="g" style="edgeLabel;html=1;align=center;verticalAlign=middle;resizable=0;points=[];container=0;" parent="ecnfo4OH-dt6vmVNhMm7-34" vertex="1" connectable="0">
          <mxGeometry x="-0.0171" y="1" relative="1" as="geometry">
            <mxPoint x="-2" as="offset" />
          </mxGeometry>
        </mxCell>
        <mxCell id="ecnfo4OH-dt6vmVNhMm7-35" value="" style="endArrow=none;html=1;rounded=0;" parent="1" edge="1">
          <mxGeometry width="50" height="50" relative="1" as="geometry">
            <mxPoint x="1350" y="849" as="sourcePoint" />
            <mxPoint x="1375.1666666666665" y="849.0165289256198" as="targetPoint" />
          </mxGeometry>
        </mxCell>
        <mxCell id="ecnfo4OH-dt6vmVNhMm7-193" value="dp" style="edgeLabel;html=1;align=center;verticalAlign=middle;resizable=0;points=[];container=0;" parent="ecnfo4OH-dt6vmVNhMm7-35" vertex="1" connectable="0">
          <mxGeometry x="0.0674" y="-2" relative="1" as="geometry">
            <mxPoint x="-2" y="-2" as="offset" />
          </mxGeometry>
        </mxCell>
        <mxCell id="ecnfo4OH-dt6vmVNhMm7-36" value="" style="endArrow=none;html=1;rounded=0;" parent="1" edge="1">
          <mxGeometry width="50" height="50" relative="1" as="geometry">
            <mxPoint x="1482.5" y="750.9190909090909" as="sourcePoint" />
            <mxPoint x="1536.6666666666665" y="750.9190909090909" as="targetPoint" />
          </mxGeometry>
        </mxCell>
        <mxCell id="ecnfo4OH-dt6vmVNhMm7-37" value="" style="endArrow=none;html=1;rounded=0;" parent="1" edge="1">
          <mxGeometry width="50" height="50" relative="1" as="geometry">
            <mxPoint x="1482.5" y="765.4397520661157" as="sourcePoint" />
            <mxPoint x="1536.6666666666665" y="765.4397520661157" as="targetPoint" />
          </mxGeometry>
        </mxCell>
        <mxCell id="ecnfo4OH-dt6vmVNhMm7-38" value="" style="endArrow=none;html=1;rounded=0;" parent="1" edge="1">
          <mxGeometry width="50" height="50" relative="1" as="geometry">
            <mxPoint x="1482.5" y="779.268953168044" as="sourcePoint" />
            <mxPoint x="1536.6666666666665" y="779.268953168044" as="targetPoint" />
          </mxGeometry>
        </mxCell>
        <mxCell id="ecnfo4OH-dt6vmVNhMm7-39" value="" style="endArrow=none;html=1;rounded=0;" parent="1" edge="1">
          <mxGeometry width="50" height="50" relative="1" as="geometry">
            <mxPoint x="1482.5" y="793.0981542699725" as="sourcePoint" />
            <mxPoint x="1536.6666666666665" y="793.0981542699725" as="targetPoint" />
          </mxGeometry>
        </mxCell>
        <mxCell id="ecnfo4OH-dt6vmVNhMm7-40" value="" style="endArrow=none;html=1;rounded=0;" parent="1" edge="1">
          <mxGeometry width="50" height="50" relative="1" as="geometry">
            <mxPoint x="1482.5" y="806.104517906336" as="sourcePoint" />
            <mxPoint x="1536.6666666666665" y="806.104517906336" as="targetPoint" />
          </mxGeometry>
        </mxCell>
        <mxCell id="ecnfo4OH-dt6vmVNhMm7-41" value="" style="endArrow=none;html=1;rounded=0;" parent="1" edge="1">
          <mxGeometry width="50" height="50" relative="1" as="geometry">
            <mxPoint x="1482.5" y="820.7565564738292" as="sourcePoint" />
            <mxPoint x="1536.6666666666665" y="820.7565564738292" as="targetPoint" />
          </mxGeometry>
        </mxCell>
        <mxCell id="ecnfo4OH-dt6vmVNhMm7-42" value="" style="endArrow=none;html=1;rounded=0;" parent="1" edge="1">
          <mxGeometry width="50" height="50" relative="1" as="geometry">
            <mxPoint x="1482.5" y="834.5857575757576" as="sourcePoint" />
            <mxPoint x="1536.6666666666665" y="834.5857575757576" as="targetPoint" />
          </mxGeometry>
        </mxCell>
        <mxCell id="ecnfo4OH-dt6vmVNhMm7-43" value="" style="endArrow=none;html=1;rounded=0;" parent="1" edge="1">
          <mxGeometry width="50" height="50" relative="1" as="geometry">
            <mxPoint x="1482.5" y="848.414958677686" as="sourcePoint" />
            <mxPoint x="1536.6666666666665" y="848.414958677686" as="targetPoint" />
          </mxGeometry>
        </mxCell>
        <mxCell id="ecnfo4OH-dt6vmVNhMm7-1" value="" style="rounded=0;whiteSpace=wrap;html=1;container=0;" parent="1" vertex="1">
          <mxGeometry x="1374.1666666666665" y="737" width="108.33333333333337" height="124.46280991735539" as="geometry" />
        </mxCell>
        <mxCell id="ecnfo4OH-dt6vmVNhMm7-2" value="" style="endArrow=none;html=1;rounded=0;" parent="1" edge="1">
          <mxGeometry width="50" height="50" relative="1" as="geometry">
            <mxPoint x="1398.5597222222223" y="799.2963420768955" as="sourcePoint" />
            <mxPoint x="1410.5606481481482" y="756.0049299317284" as="targetPoint" />
          </mxGeometry>
        </mxCell>
        <mxCell id="ecnfo4OH-dt6vmVNhMm7-3" value="" style="endArrow=none;html=1;rounded=0;" parent="1" edge="1">
          <mxGeometry width="50" height="50" relative="1" as="geometry">
            <mxPoint x="1385.3189814814814" y="847.9991807402084" as="sourcePoint" />
            <mxPoint x="1397.3199074074073" y="804.7077685950413" as="targetPoint" />
          </mxGeometry>
        </mxCell>
        <mxCell id="ecnfo4OH-dt6vmVNhMm7-4" value="" style="endArrow=none;html=1;rounded=0;" parent="1" edge="1">
          <mxGeometry width="50" height="50" relative="1" as="geometry">
            <mxPoint x="1458.1430555555555" y="799.2963420768955" as="sourcePoint" />
            <mxPoint x="1470.1439814814814" y="756.0049299317284" as="targetPoint" />
          </mxGeometry>
        </mxCell>
        <mxCell id="ecnfo4OH-dt6vmVNhMm7-5" value="" style="endArrow=none;html=1;rounded=0;" parent="1" edge="1">
          <mxGeometry width="50" height="50" relative="1" as="geometry">
            <mxPoint x="1444.9023148148149" y="847.9991807402084" as="sourcePoint" />
            <mxPoint x="1456.9032407407408" y="804.7077685950413" as="targetPoint" />
          </mxGeometry>
        </mxCell>
        <mxCell id="ecnfo4OH-dt6vmVNhMm7-6" value="" style="endArrow=none;html=1;rounded=0;" parent="1" edge="1">
          <mxGeometry width="50" height="50" relative="1" as="geometry">
            <mxPoint x="1413.6060185185183" y="750.5935034135824" as="sourcePoint" />
            <mxPoint x="1467.7726851851853" y="750.5935034135824" as="targetPoint" />
          </mxGeometry>
        </mxCell>
        <mxCell id="ecnfo4OH-dt6vmVNhMm7-7" value="" style="endArrow=none;html=1;rounded=0;" parent="1" edge="1">
          <mxGeometry width="50" height="50" relative="1" as="geometry">
            <mxPoint x="1400.9671296296297" y="802.0020553359684" as="sourcePoint" />
            <mxPoint x="1455.1337962962962" y="802.0020553359684" as="targetPoint" />
          </mxGeometry>
        </mxCell>
        <mxCell id="ecnfo4OH-dt6vmVNhMm7-8" value="" style="endArrow=none;html=1;rounded=0;" parent="1" edge="1">
          <mxGeometry width="50" height="50" relative="1" as="geometry">
            <mxPoint x="1387.1245370370368" y="849.6226086956522" as="sourcePoint" />
            <mxPoint x="1441.2912037037036" y="849.6226086956522" as="targetPoint" />
          </mxGeometry>
        </mxCell>
        <mxCell id="ecnfo4OH-dt6vmVNhMm7-57" value="" style="endArrow=none;html=1;rounded=0;" parent="1" edge="1">
          <mxGeometry width="50" height="50" relative="1" as="geometry">
            <mxPoint x="1645.0000000000002" y="752.3020110192837" as="sourcePoint" />
            <mxPoint x="1699.1666666666667" y="752.3020110192837" as="targetPoint" />
          </mxGeometry>
        </mxCell>
        <mxCell id="ecnfo4OH-dt6vmVNhMm7-58" value="" style="endArrow=none;html=1;rounded=0;" parent="1" edge="1">
          <mxGeometry width="50" height="50" relative="1" as="geometry">
            <mxPoint x="1645.0000000000002" y="766.8226721763085" as="sourcePoint" />
            <mxPoint x="1699.1666666666667" y="766.8226721763085" as="targetPoint" />
          </mxGeometry>
        </mxCell>
        <mxCell id="ecnfo4OH-dt6vmVNhMm7-59" value="" style="endArrow=none;html=1;rounded=0;" parent="1" edge="1">
          <mxGeometry width="50" height="50" relative="1" as="geometry">
            <mxPoint x="1645.0000000000002" y="780.6518732782368" as="sourcePoint" />
            <mxPoint x="1699.1666666666667" y="780.6518732782368" as="targetPoint" />
          </mxGeometry>
        </mxCell>
        <mxCell id="ecnfo4OH-dt6vmVNhMm7-60" value="" style="endArrow=none;html=1;rounded=0;" parent="1" edge="1">
          <mxGeometry width="50" height="50" relative="1" as="geometry">
            <mxPoint x="1645.0000000000002" y="794.4810743801653" as="sourcePoint" />
            <mxPoint x="1699.1666666666667" y="794.4810743801653" as="targetPoint" />
          </mxGeometry>
        </mxCell>
        <mxCell id="ecnfo4OH-dt6vmVNhMm7-61" value="" style="endArrow=none;html=1;rounded=0;" parent="1" edge="1">
          <mxGeometry width="50" height="50" relative="1" as="geometry">
            <mxPoint x="1645.0000000000002" y="807.4874380165288" as="sourcePoint" />
            <mxPoint x="1699.1666666666667" y="807.4874380165288" as="targetPoint" />
          </mxGeometry>
        </mxCell>
        <mxCell id="ecnfo4OH-dt6vmVNhMm7-62" value="" style="endArrow=none;html=1;rounded=0;" parent="1" edge="1">
          <mxGeometry width="50" height="50" relative="1" as="geometry">
            <mxPoint x="1645.0000000000002" y="822.139476584022" as="sourcePoint" />
            <mxPoint x="1699.1666666666667" y="822.139476584022" as="targetPoint" />
          </mxGeometry>
        </mxCell>
        <mxCell id="ecnfo4OH-dt6vmVNhMm7-63" value="" style="endArrow=none;html=1;rounded=0;" parent="1" edge="1">
          <mxGeometry width="50" height="50" relative="1" as="geometry">
            <mxPoint x="1645.0000000000002" y="835.9686776859504" as="sourcePoint" />
            <mxPoint x="1699.1666666666667" y="835.9686776859504" as="targetPoint" />
          </mxGeometry>
        </mxCell>
        <mxCell id="ecnfo4OH-dt6vmVNhMm7-64" value="" style="endArrow=none;html=1;rounded=0;" parent="1" edge="1">
          <mxGeometry width="50" height="50" relative="1" as="geometry">
            <mxPoint x="1645.0000000000002" y="849.7978787878787" as="sourcePoint" />
            <mxPoint x="1699.1666666666667" y="849.7978787878787" as="targetPoint" />
          </mxGeometry>
        </mxCell>
        <mxCell id="ecnfo4OH-dt6vmVNhMm7-65" value="" style="rounded=0;whiteSpace=wrap;html=1;container=0;" parent="1" vertex="1">
          <mxGeometry x="1536.6666666666667" y="738.3829201101928" width="108.33333333333337" height="124.46280991735539" as="geometry" />
        </mxCell>
        <mxCell id="ecnfo4OH-dt6vmVNhMm7-66" value="" style="endArrow=none;html=1;rounded=0;" parent="1" edge="1">
          <mxGeometry width="50" height="50" relative="1" as="geometry">
            <mxPoint x="1561.0597222222223" y="800.6792621870883" as="sourcePoint" />
            <mxPoint x="1573.0606481481484" y="757.3878500419212" as="targetPoint" />
          </mxGeometry>
        </mxCell>
        <mxCell id="ecnfo4OH-dt6vmVNhMm7-67" value="" style="endArrow=none;html=1;rounded=0;" parent="1" edge="1">
          <mxGeometry width="50" height="50" relative="1" as="geometry">
            <mxPoint x="1547.8189814814816" y="849.3821008504012" as="sourcePoint" />
            <mxPoint x="1559.8199074074075" y="806.0906887052341" as="targetPoint" />
          </mxGeometry>
        </mxCell>
        <mxCell id="ecnfo4OH-dt6vmVNhMm7-68" value="" style="endArrow=none;html=1;rounded=0;" parent="1" edge="1">
          <mxGeometry width="50" height="50" relative="1" as="geometry">
            <mxPoint x="1620.6430555555557" y="800.6792621870883" as="sourcePoint" />
            <mxPoint x="1632.6439814814817" y="757.3878500419212" as="targetPoint" />
          </mxGeometry>
        </mxCell>
        <mxCell id="ecnfo4OH-dt6vmVNhMm7-69" value="" style="endArrow=none;html=1;rounded=0;" parent="1" edge="1">
          <mxGeometry width="50" height="50" relative="1" as="geometry">
            <mxPoint x="1607.4023148148149" y="849.3821008504012" as="sourcePoint" />
            <mxPoint x="1619.403240740741" y="806.0906887052341" as="targetPoint" />
          </mxGeometry>
        </mxCell>
        <mxCell id="ecnfo4OH-dt6vmVNhMm7-70" value="" style="endArrow=none;html=1;rounded=0;" parent="1" edge="1">
          <mxGeometry width="50" height="50" relative="1" as="geometry">
            <mxPoint x="1576.1060185185183" y="751.9764235237752" as="sourcePoint" />
            <mxPoint x="1630.2726851851855" y="751.9764235237752" as="targetPoint" />
          </mxGeometry>
        </mxCell>
        <mxCell id="ecnfo4OH-dt6vmVNhMm7-71" value="" style="endArrow=none;html=1;rounded=0;" parent="1" edge="1">
          <mxGeometry width="50" height="50" relative="1" as="geometry">
            <mxPoint x="1563.4671296296297" y="803.3849754461612" as="sourcePoint" />
            <mxPoint x="1617.6337962962964" y="803.3849754461612" as="targetPoint" />
          </mxGeometry>
        </mxCell>
        <mxCell id="ecnfo4OH-dt6vmVNhMm7-72" value="" style="endArrow=none;html=1;rounded=0;" parent="1" edge="1">
          <mxGeometry width="50" height="50" relative="1" as="geometry">
            <mxPoint x="1549.624537037037" y="851.005528805845" as="sourcePoint" />
            <mxPoint x="1603.7912037037038" y="851.005528805845" as="targetPoint" />
          </mxGeometry>
        </mxCell>
        <mxCell id="ecnfo4OH-dt6vmVNhMm7-74" value="" style="endArrow=none;html=1;rounded=0;" parent="1" edge="1">
          <mxGeometry width="50" height="50" relative="1" as="geometry">
            <mxPoint x="1807.5000000000002" y="751.6105509641873" as="sourcePoint" />
            <mxPoint x="1861.6666666666667" y="751.6105509641873" as="targetPoint" />
          </mxGeometry>
        </mxCell>
        <mxCell id="ecnfo4OH-dt6vmVNhMm7-75" value="" style="endArrow=none;html=1;rounded=0;" parent="1" edge="1">
          <mxGeometry width="50" height="50" relative="1" as="geometry">
            <mxPoint x="1807.5000000000002" y="766.1312121212121" as="sourcePoint" />
            <mxPoint x="1861.6666666666667" y="766.1312121212121" as="targetPoint" />
          </mxGeometry>
        </mxCell>
        <mxCell id="ecnfo4OH-dt6vmVNhMm7-76" value="" style="endArrow=none;html=1;rounded=0;" parent="1" edge="1">
          <mxGeometry width="50" height="50" relative="1" as="geometry">
            <mxPoint x="1807.5000000000002" y="779.9604132231404" as="sourcePoint" />
            <mxPoint x="1861.6666666666667" y="779.9604132231404" as="targetPoint" />
          </mxGeometry>
        </mxCell>
        <mxCell id="ecnfo4OH-dt6vmVNhMm7-77" value="" style="endArrow=none;html=1;rounded=0;" parent="1" edge="1">
          <mxGeometry width="50" height="50" relative="1" as="geometry">
            <mxPoint x="1807.5000000000002" y="793.7896143250689" as="sourcePoint" />
            <mxPoint x="1861.6666666666667" y="793.7896143250689" as="targetPoint" />
          </mxGeometry>
        </mxCell>
        <mxCell id="ecnfo4OH-dt6vmVNhMm7-78" value="" style="endArrow=none;html=1;rounded=0;" parent="1" edge="1">
          <mxGeometry width="50" height="50" relative="1" as="geometry">
            <mxPoint x="1807.5000000000002" y="806.7959779614324" as="sourcePoint" />
            <mxPoint x="1861.6666666666667" y="806.7959779614324" as="targetPoint" />
          </mxGeometry>
        </mxCell>
        <mxCell id="ecnfo4OH-dt6vmVNhMm7-79" value="" style="endArrow=none;html=1;rounded=0;" parent="1" edge="1">
          <mxGeometry width="50" height="50" relative="1" as="geometry">
            <mxPoint x="1807.5000000000002" y="821.4480165289256" as="sourcePoint" />
            <mxPoint x="1861.6666666666667" y="821.4480165289256" as="targetPoint" />
          </mxGeometry>
        </mxCell>
        <mxCell id="ecnfo4OH-dt6vmVNhMm7-80" value="" style="endArrow=none;html=1;rounded=0;" parent="1" edge="1">
          <mxGeometry width="50" height="50" relative="1" as="geometry">
            <mxPoint x="1807.5000000000002" y="835.277217630854" as="sourcePoint" />
            <mxPoint x="1861.6666666666667" y="835.277217630854" as="targetPoint" />
          </mxGeometry>
        </mxCell>
        <mxCell id="ecnfo4OH-dt6vmVNhMm7-81" value="" style="endArrow=none;html=1;rounded=0;" parent="1" edge="1">
          <mxGeometry width="50" height="50" relative="1" as="geometry">
            <mxPoint x="1807.5000000000002" y="849.1064187327823" as="sourcePoint" />
            <mxPoint x="1861.6666666666667" y="849.1064187327823" as="targetPoint" />
          </mxGeometry>
        </mxCell>
        <mxCell id="ecnfo4OH-dt6vmVNhMm7-82" value="" style="rounded=0;whiteSpace=wrap;html=1;container=0;" parent="1" vertex="1">
          <mxGeometry x="1699.1666666666667" y="737.6914600550964" width="108.33333333333337" height="124.46280991735539" as="geometry" />
        </mxCell>
        <mxCell id="ecnfo4OH-dt6vmVNhMm7-83" value="" style="endArrow=none;html=1;rounded=0;" parent="1" edge="1">
          <mxGeometry width="50" height="50" relative="1" as="geometry">
            <mxPoint x="1723.5597222222223" y="799.9878021319919" as="sourcePoint" />
            <mxPoint x="1735.5606481481484" y="756.6963899868248" as="targetPoint" />
          </mxGeometry>
        </mxCell>
        <mxCell id="ecnfo4OH-dt6vmVNhMm7-84" value="" style="endArrow=none;html=1;rounded=0;" parent="1" edge="1">
          <mxGeometry width="50" height="50" relative="1" as="geometry">
            <mxPoint x="1710.3189814814816" y="848.6906407953048" as="sourcePoint" />
            <mxPoint x="1722.3199074074075" y="805.3992286501377" as="targetPoint" />
          </mxGeometry>
        </mxCell>
        <mxCell id="ecnfo4OH-dt6vmVNhMm7-85" value="" style="endArrow=none;html=1;rounded=0;" parent="1" edge="1">
          <mxGeometry width="50" height="50" relative="1" as="geometry">
            <mxPoint x="1783.1430555555557" y="799.9878021319919" as="sourcePoint" />
            <mxPoint x="1795.1439814814817" y="756.6963899868248" as="targetPoint" />
          </mxGeometry>
        </mxCell>
        <mxCell id="ecnfo4OH-dt6vmVNhMm7-86" value="" style="endArrow=none;html=1;rounded=0;" parent="1" edge="1">
          <mxGeometry width="50" height="50" relative="1" as="geometry">
            <mxPoint x="1769.9023148148149" y="848.6906407953048" as="sourcePoint" />
            <mxPoint x="1781.9032407407408" y="805.3992286501377" as="targetPoint" />
          </mxGeometry>
        </mxCell>
        <mxCell id="ecnfo4OH-dt6vmVNhMm7-87" value="" style="endArrow=none;html=1;rounded=0;" parent="1" edge="1">
          <mxGeometry width="50" height="50" relative="1" as="geometry">
            <mxPoint x="1738.6060185185183" y="751.2849634686788" as="sourcePoint" />
            <mxPoint x="1792.7726851851855" y="751.2849634686788" as="targetPoint" />
          </mxGeometry>
        </mxCell>
        <mxCell id="ecnfo4OH-dt6vmVNhMm7-88" value="" style="endArrow=none;html=1;rounded=0;" parent="1" edge="1">
          <mxGeometry width="50" height="50" relative="1" as="geometry">
            <mxPoint x="1725.9671296296297" y="802.6935153910648" as="sourcePoint" />
            <mxPoint x="1780.1337962962964" y="802.6935153910648" as="targetPoint" />
          </mxGeometry>
        </mxCell>
        <mxCell id="ecnfo4OH-dt6vmVNhMm7-89" value="" style="endArrow=none;html=1;rounded=0;" parent="1" edge="1">
          <mxGeometry width="50" height="50" relative="1" as="geometry">
            <mxPoint x="1712.124537037037" y="850.3140687507486" as="sourcePoint" />
            <mxPoint x="1766.2912037037038" y="850.3140687507486" as="targetPoint" />
          </mxGeometry>
        </mxCell>
        <mxCell id="ecnfo4OH-dt6vmVNhMm7-91" value="" style="endArrow=none;html=1;rounded=0;" parent="1" edge="1">
          <mxGeometry width="50" height="50" relative="1" as="geometry">
            <mxPoint x="1970.0000000000002" y="751.6105509641873" as="sourcePoint" />
            <mxPoint x="2024.1666666666667" y="751.6105509641873" as="targetPoint" />
          </mxGeometry>
        </mxCell>
        <mxCell id="ecnfo4OH-dt6vmVNhMm7-92" value="" style="endArrow=none;html=1;rounded=0;" parent="1" edge="1">
          <mxGeometry width="50" height="50" relative="1" as="geometry">
            <mxPoint x="1970.0000000000002" y="766.1312121212121" as="sourcePoint" />
            <mxPoint x="2024.1666666666667" y="766.1312121212121" as="targetPoint" />
          </mxGeometry>
        </mxCell>
        <mxCell id="ecnfo4OH-dt6vmVNhMm7-93" value="" style="endArrow=none;html=1;rounded=0;" parent="1" edge="1">
          <mxGeometry width="50" height="50" relative="1" as="geometry">
            <mxPoint x="1970.0000000000002" y="779.9604132231404" as="sourcePoint" />
            <mxPoint x="2024.1666666666667" y="779.9604132231404" as="targetPoint" />
          </mxGeometry>
        </mxCell>
        <mxCell id="ecnfo4OH-dt6vmVNhMm7-94" value="" style="endArrow=none;html=1;rounded=0;" parent="1" edge="1">
          <mxGeometry width="50" height="50" relative="1" as="geometry">
            <mxPoint x="1970.0000000000002" y="793.7896143250689" as="sourcePoint" />
            <mxPoint x="2024.1666666666667" y="793.7896143250689" as="targetPoint" />
          </mxGeometry>
        </mxCell>
        <mxCell id="ecnfo4OH-dt6vmVNhMm7-95" value="" style="endArrow=none;html=1;rounded=0;" parent="1" edge="1">
          <mxGeometry width="50" height="50" relative="1" as="geometry">
            <mxPoint x="1970.0000000000002" y="806.7959779614324" as="sourcePoint" />
            <mxPoint x="2024.1666666666667" y="806.7959779614324" as="targetPoint" />
          </mxGeometry>
        </mxCell>
        <mxCell id="ecnfo4OH-dt6vmVNhMm7-96" value="" style="endArrow=none;html=1;rounded=0;" parent="1" edge="1">
          <mxGeometry width="50" height="50" relative="1" as="geometry">
            <mxPoint x="1970.0000000000002" y="821.4480165289256" as="sourcePoint" />
            <mxPoint x="2024.1666666666667" y="821.4480165289256" as="targetPoint" />
          </mxGeometry>
        </mxCell>
        <mxCell id="ecnfo4OH-dt6vmVNhMm7-97" value="" style="endArrow=none;html=1;rounded=0;" parent="1" edge="1">
          <mxGeometry width="50" height="50" relative="1" as="geometry">
            <mxPoint x="1970.0000000000002" y="835.277217630854" as="sourcePoint" />
            <mxPoint x="2024.1666666666667" y="835.277217630854" as="targetPoint" />
          </mxGeometry>
        </mxCell>
        <mxCell id="ecnfo4OH-dt6vmVNhMm7-98" value="" style="endArrow=none;html=1;rounded=0;" parent="1" edge="1">
          <mxGeometry width="50" height="50" relative="1" as="geometry">
            <mxPoint x="1970.0000000000002" y="849.1064187327823" as="sourcePoint" />
            <mxPoint x="2024.1666666666667" y="849.1064187327823" as="targetPoint" />
          </mxGeometry>
        </mxCell>
        <mxCell id="ecnfo4OH-dt6vmVNhMm7-99" value="" style="rounded=0;whiteSpace=wrap;html=1;container=0;" parent="1" vertex="1">
          <mxGeometry x="1861.6666666666667" y="737.6914600550964" width="108.33333333333337" height="124.46280991735539" as="geometry" />
        </mxCell>
        <mxCell id="ecnfo4OH-dt6vmVNhMm7-100" value="" style="endArrow=none;html=1;rounded=0;" parent="1" edge="1">
          <mxGeometry width="50" height="50" relative="1" as="geometry">
            <mxPoint x="1886.0597222222223" y="799.9878021319919" as="sourcePoint" />
            <mxPoint x="1898.0606481481482" y="756.6963899868248" as="targetPoint" />
          </mxGeometry>
        </mxCell>
        <mxCell id="ecnfo4OH-dt6vmVNhMm7-101" value="" style="endArrow=none;html=1;rounded=0;" parent="1" edge="1">
          <mxGeometry width="50" height="50" relative="1" as="geometry">
            <mxPoint x="1872.8189814814818" y="848.6906407953048" as="sourcePoint" />
            <mxPoint x="1884.8199074074073" y="805.3992286501377" as="targetPoint" />
          </mxGeometry>
        </mxCell>
        <mxCell id="ecnfo4OH-dt6vmVNhMm7-102" value="" style="endArrow=none;html=1;rounded=0;" parent="1" edge="1">
          <mxGeometry width="50" height="50" relative="1" as="geometry">
            <mxPoint x="1945.6430555555557" y="799.9878021319919" as="sourcePoint" />
            <mxPoint x="1957.6439814814817" y="756.6963899868248" as="targetPoint" />
          </mxGeometry>
        </mxCell>
        <mxCell id="ecnfo4OH-dt6vmVNhMm7-103" value="" style="endArrow=none;html=1;rounded=0;" parent="1" edge="1">
          <mxGeometry width="50" height="50" relative="1" as="geometry">
            <mxPoint x="1932.4023148148149" y="848.6906407953048" as="sourcePoint" />
            <mxPoint x="1944.4032407407408" y="805.3992286501377" as="targetPoint" />
          </mxGeometry>
        </mxCell>
        <mxCell id="ecnfo4OH-dt6vmVNhMm7-104" value="" style="endArrow=none;html=1;rounded=0;" parent="1" edge="1">
          <mxGeometry width="50" height="50" relative="1" as="geometry">
            <mxPoint x="1901.1060185185183" y="751.2849634686788" as="sourcePoint" />
            <mxPoint x="1955.2726851851853" y="751.2849634686788" as="targetPoint" />
          </mxGeometry>
        </mxCell>
        <mxCell id="ecnfo4OH-dt6vmVNhMm7-105" value="" style="endArrow=none;html=1;rounded=0;" parent="1" edge="1">
          <mxGeometry width="50" height="50" relative="1" as="geometry">
            <mxPoint x="1888.4671296296297" y="802.6935153910648" as="sourcePoint" />
            <mxPoint x="1942.6337962962962" y="802.6935153910648" as="targetPoint" />
          </mxGeometry>
        </mxCell>
        <mxCell id="ecnfo4OH-dt6vmVNhMm7-106" value="" style="endArrow=none;html=1;rounded=0;" parent="1" edge="1">
          <mxGeometry width="50" height="50" relative="1" as="geometry">
            <mxPoint x="1874.624537037037" y="850.3140687507486" as="sourcePoint" />
            <mxPoint x="1928.7912037037036" y="850.3140687507486" as="targetPoint" />
          </mxGeometry>
        </mxCell>
        <mxCell id="ecnfo4OH-dt6vmVNhMm7-108" value="" style="endArrow=none;html=1;rounded=0;" parent="1" edge="1">
          <mxGeometry width="50" height="50" relative="1" as="geometry">
            <mxPoint x="2132.5" y="750.9190909090909" as="sourcePoint" />
            <mxPoint x="2186.666666666667" y="750.9190909090909" as="targetPoint" />
          </mxGeometry>
        </mxCell>
        <mxCell id="ecnfo4OH-dt6vmVNhMm7-109" value="" style="endArrow=none;html=1;rounded=0;" parent="1" edge="1">
          <mxGeometry width="50" height="50" relative="1" as="geometry">
            <mxPoint x="2132.5" y="765.4397520661157" as="sourcePoint" />
            <mxPoint x="2186.666666666667" y="765.4397520661157" as="targetPoint" />
          </mxGeometry>
        </mxCell>
        <mxCell id="ecnfo4OH-dt6vmVNhMm7-110" value="" style="endArrow=none;html=1;rounded=0;" parent="1" edge="1">
          <mxGeometry width="50" height="50" relative="1" as="geometry">
            <mxPoint x="2132.5" y="779.268953168044" as="sourcePoint" />
            <mxPoint x="2186.666666666667" y="779.268953168044" as="targetPoint" />
          </mxGeometry>
        </mxCell>
        <mxCell id="ecnfo4OH-dt6vmVNhMm7-111" value="" style="endArrow=none;html=1;rounded=0;" parent="1" edge="1">
          <mxGeometry width="50" height="50" relative="1" as="geometry">
            <mxPoint x="2132.5" y="793.0981542699725" as="sourcePoint" />
            <mxPoint x="2186.666666666667" y="793.0981542699725" as="targetPoint" />
          </mxGeometry>
        </mxCell>
        <mxCell id="ecnfo4OH-dt6vmVNhMm7-112" value="" style="endArrow=none;html=1;rounded=0;" parent="1" edge="1">
          <mxGeometry width="50" height="50" relative="1" as="geometry">
            <mxPoint x="2132.5" y="806.104517906336" as="sourcePoint" />
            <mxPoint x="2186.666666666667" y="806.104517906336" as="targetPoint" />
          </mxGeometry>
        </mxCell>
        <mxCell id="ecnfo4OH-dt6vmVNhMm7-113" value="" style="endArrow=none;html=1;rounded=0;" parent="1" edge="1">
          <mxGeometry width="50" height="50" relative="1" as="geometry">
            <mxPoint x="2132.5" y="820.7565564738292" as="sourcePoint" />
            <mxPoint x="2186.666666666667" y="820.7565564738292" as="targetPoint" />
          </mxGeometry>
        </mxCell>
        <mxCell id="ecnfo4OH-dt6vmVNhMm7-114" value="" style="endArrow=none;html=1;rounded=0;" parent="1" edge="1">
          <mxGeometry width="50" height="50" relative="1" as="geometry">
            <mxPoint x="2132.5" y="834.5857575757576" as="sourcePoint" />
            <mxPoint x="2186.666666666667" y="834.5857575757576" as="targetPoint" />
          </mxGeometry>
        </mxCell>
        <mxCell id="ecnfo4OH-dt6vmVNhMm7-115" value="" style="endArrow=none;html=1;rounded=0;" parent="1" edge="1">
          <mxGeometry width="50" height="50" relative="1" as="geometry">
            <mxPoint x="2132.5" y="848.414958677686" as="sourcePoint" />
            <mxPoint x="2186.666666666667" y="848.414958677686" as="targetPoint" />
          </mxGeometry>
        </mxCell>
        <mxCell id="ecnfo4OH-dt6vmVNhMm7-116" value="" style="rounded=0;whiteSpace=wrap;html=1;container=0;" parent="1" vertex="1">
          <mxGeometry x="2024.166666666667" y="737" width="108.33333333333337" height="124.46280991735539" as="geometry" />
        </mxCell>
        <mxCell id="ecnfo4OH-dt6vmVNhMm7-117" value="" style="endArrow=none;html=1;rounded=0;" parent="1" edge="1">
          <mxGeometry width="50" height="50" relative="1" as="geometry">
            <mxPoint x="2048.5597222222227" y="799.2963420768955" as="sourcePoint" />
            <mxPoint x="2060.5606481481486" y="756.0049299317284" as="targetPoint" />
          </mxGeometry>
        </mxCell>
        <mxCell id="ecnfo4OH-dt6vmVNhMm7-118" value="" style="endArrow=none;html=1;rounded=0;" parent="1" edge="1">
          <mxGeometry width="50" height="50" relative="1" as="geometry">
            <mxPoint x="2035.3189814814818" y="847.9991807402084" as="sourcePoint" />
            <mxPoint x="2047.3199074074078" y="804.7077685950413" as="targetPoint" />
          </mxGeometry>
        </mxCell>
        <mxCell id="ecnfo4OH-dt6vmVNhMm7-119" value="" style="endArrow=none;html=1;rounded=0;" parent="1" edge="1">
          <mxGeometry width="50" height="50" relative="1" as="geometry">
            <mxPoint x="2108.1430555555557" y="799.2963420768955" as="sourcePoint" />
            <mxPoint x="2120.1439814814817" y="756.0049299317284" as="targetPoint" />
          </mxGeometry>
        </mxCell>
        <mxCell id="ecnfo4OH-dt6vmVNhMm7-120" value="" style="endArrow=none;html=1;rounded=0;" parent="1" edge="1">
          <mxGeometry width="50" height="50" relative="1" as="geometry">
            <mxPoint x="2094.9023148148153" y="847.9991807402084" as="sourcePoint" />
            <mxPoint x="2106.903240740741" y="804.7077685950413" as="targetPoint" />
          </mxGeometry>
        </mxCell>
        <mxCell id="ecnfo4OH-dt6vmVNhMm7-121" value="" style="endArrow=none;html=1;rounded=0;" parent="1" edge="1">
          <mxGeometry width="50" height="50" relative="1" as="geometry">
            <mxPoint x="2063.606018518519" y="750.5935034135824" as="sourcePoint" />
            <mxPoint x="2117.7726851851858" y="750.5935034135824" as="targetPoint" />
          </mxGeometry>
        </mxCell>
        <mxCell id="ecnfo4OH-dt6vmVNhMm7-122" value="" style="endArrow=none;html=1;rounded=0;" parent="1" edge="1">
          <mxGeometry width="50" height="50" relative="1" as="geometry">
            <mxPoint x="2050.96712962963" y="802.0020553359684" as="sourcePoint" />
            <mxPoint x="2105.1337962962966" y="802.0020553359684" as="targetPoint" />
          </mxGeometry>
        </mxCell>
        <mxCell id="ecnfo4OH-dt6vmVNhMm7-123" value="" style="endArrow=none;html=1;rounded=0;" parent="1" edge="1">
          <mxGeometry width="50" height="50" relative="1" as="geometry">
            <mxPoint x="2037.1245370370373" y="849.6226086956522" as="sourcePoint" />
            <mxPoint x="2091.291203703704" y="849.6226086956522" as="targetPoint" />
          </mxGeometry>
        </mxCell>
        <mxCell id="ecnfo4OH-dt6vmVNhMm7-125" value="" style="endArrow=none;html=1;rounded=0;" parent="1" edge="1">
          <mxGeometry width="50" height="50" relative="1" as="geometry">
            <mxPoint x="2295.0000000000005" y="751.6105509641873" as="sourcePoint" />
            <mxPoint x="2349.1666666666674" y="751.6105509641873" as="targetPoint" />
          </mxGeometry>
        </mxCell>
        <mxCell id="ecnfo4OH-dt6vmVNhMm7-126" value="" style="endArrow=none;html=1;rounded=0;" parent="1" edge="1">
          <mxGeometry width="50" height="50" relative="1" as="geometry">
            <mxPoint x="2295.0000000000005" y="766.1312121212121" as="sourcePoint" />
            <mxPoint x="2349.1666666666674" y="766.1312121212121" as="targetPoint" />
          </mxGeometry>
        </mxCell>
        <mxCell id="ecnfo4OH-dt6vmVNhMm7-127" value="" style="endArrow=none;html=1;rounded=0;" parent="1" edge="1">
          <mxGeometry width="50" height="50" relative="1" as="geometry">
            <mxPoint x="2295.0000000000005" y="779.9604132231404" as="sourcePoint" />
            <mxPoint x="2349.1666666666674" y="779.9604132231404" as="targetPoint" />
          </mxGeometry>
        </mxCell>
        <mxCell id="ecnfo4OH-dt6vmVNhMm7-128" value="" style="endArrow=none;html=1;rounded=0;" parent="1" edge="1">
          <mxGeometry width="50" height="50" relative="1" as="geometry">
            <mxPoint x="2295.0000000000005" y="793.7896143250689" as="sourcePoint" />
            <mxPoint x="2349.1666666666674" y="793.7896143250689" as="targetPoint" />
          </mxGeometry>
        </mxCell>
        <mxCell id="ecnfo4OH-dt6vmVNhMm7-129" value="" style="endArrow=none;html=1;rounded=0;" parent="1" edge="1">
          <mxGeometry width="50" height="50" relative="1" as="geometry">
            <mxPoint x="2295.0000000000005" y="806.7959779614324" as="sourcePoint" />
            <mxPoint x="2349.1666666666674" y="806.7959779614324" as="targetPoint" />
          </mxGeometry>
        </mxCell>
        <mxCell id="ecnfo4OH-dt6vmVNhMm7-130" value="" style="endArrow=none;html=1;rounded=0;" parent="1" edge="1">
          <mxGeometry width="50" height="50" relative="1" as="geometry">
            <mxPoint x="2295.0000000000005" y="821.4480165289256" as="sourcePoint" />
            <mxPoint x="2349.1666666666674" y="821.4480165289256" as="targetPoint" />
          </mxGeometry>
        </mxCell>
        <mxCell id="ecnfo4OH-dt6vmVNhMm7-131" value="" style="endArrow=none;html=1;rounded=0;" parent="1" edge="1">
          <mxGeometry width="50" height="50" relative="1" as="geometry">
            <mxPoint x="2295.0000000000005" y="835.277217630854" as="sourcePoint" />
            <mxPoint x="2349.1666666666674" y="835.277217630854" as="targetPoint" />
          </mxGeometry>
        </mxCell>
        <mxCell id="ecnfo4OH-dt6vmVNhMm7-132" value="" style="endArrow=none;html=1;rounded=0;" parent="1" edge="1">
          <mxGeometry width="50" height="50" relative="1" as="geometry">
            <mxPoint x="2295.0000000000005" y="849.1064187327823" as="sourcePoint" />
            <mxPoint x="2349.1666666666674" y="849.1064187327823" as="targetPoint" />
          </mxGeometry>
        </mxCell>
        <mxCell id="ecnfo4OH-dt6vmVNhMm7-133" value="" style="rounded=0;whiteSpace=wrap;html=1;container=0;" parent="1" vertex="1">
          <mxGeometry x="2186.666666666667" y="737.6914600550964" width="108.33333333333337" height="124.46280991735539" as="geometry" />
        </mxCell>
        <mxCell id="ecnfo4OH-dt6vmVNhMm7-134" value="" style="endArrow=none;html=1;rounded=0;" parent="1" edge="1">
          <mxGeometry width="50" height="50" relative="1" as="geometry">
            <mxPoint x="2211.0597222222227" y="799.9878021319919" as="sourcePoint" />
            <mxPoint x="2223.0606481481486" y="756.6963899868248" as="targetPoint" />
          </mxGeometry>
        </mxCell>
        <mxCell id="ecnfo4OH-dt6vmVNhMm7-135" value="" style="endArrow=none;html=1;rounded=0;" parent="1" edge="1">
          <mxGeometry width="50" height="50" relative="1" as="geometry">
            <mxPoint x="2197.818981481482" y="848.6906407953048" as="sourcePoint" />
            <mxPoint x="2209.819907407408" y="805.3992286501377" as="targetPoint" />
          </mxGeometry>
        </mxCell>
        <mxCell id="ecnfo4OH-dt6vmVNhMm7-136" value="" style="endArrow=none;html=1;rounded=0;" parent="1" edge="1">
          <mxGeometry width="50" height="50" relative="1" as="geometry">
            <mxPoint x="2270.643055555556" y="799.9878021319919" as="sourcePoint" />
            <mxPoint x="2282.6439814814817" y="756.6963899868248" as="targetPoint" />
          </mxGeometry>
        </mxCell>
        <mxCell id="ecnfo4OH-dt6vmVNhMm7-137" value="" style="endArrow=none;html=1;rounded=0;" parent="1" edge="1">
          <mxGeometry width="50" height="50" relative="1" as="geometry">
            <mxPoint x="2257.4023148148153" y="848.6906407953048" as="sourcePoint" />
            <mxPoint x="2269.4032407407412" y="805.3992286501377" as="targetPoint" />
          </mxGeometry>
        </mxCell>
        <mxCell id="ecnfo4OH-dt6vmVNhMm7-138" value="" style="endArrow=none;html=1;rounded=0;" parent="1" edge="1">
          <mxGeometry width="50" height="50" relative="1" as="geometry">
            <mxPoint x="2226.106018518519" y="751.2849634686788" as="sourcePoint" />
            <mxPoint x="2280.2726851851858" y="751.2849634686788" as="targetPoint" />
          </mxGeometry>
        </mxCell>
        <mxCell id="ecnfo4OH-dt6vmVNhMm7-139" value="" style="endArrow=none;html=1;rounded=0;" parent="1" edge="1">
          <mxGeometry width="50" height="50" relative="1" as="geometry">
            <mxPoint x="2213.46712962963" y="802.6935153910648" as="sourcePoint" />
            <mxPoint x="2267.633796296297" y="802.6935153910648" as="targetPoint" />
          </mxGeometry>
        </mxCell>
        <mxCell id="ecnfo4OH-dt6vmVNhMm7-140" value="" style="endArrow=none;html=1;rounded=0;" parent="1" edge="1">
          <mxGeometry width="50" height="50" relative="1" as="geometry">
            <mxPoint x="2199.6245370370375" y="850.3140687507486" as="sourcePoint" />
            <mxPoint x="2253.791203703704" y="850.3140687507486" as="targetPoint" />
          </mxGeometry>
        </mxCell>
        <mxCell id="ecnfo4OH-dt6vmVNhMm7-142" value="" style="endArrow=none;html=1;rounded=0;" parent="1" edge="1">
          <mxGeometry width="50" height="50" relative="1" as="geometry">
            <mxPoint x="2457.5" y="751.6105509641873" as="sourcePoint" />
            <mxPoint x="2511.666666666667" y="751.6105509641873" as="targetPoint" />
          </mxGeometry>
        </mxCell>
        <mxCell id="ecnfo4OH-dt6vmVNhMm7-143" value="" style="endArrow=none;html=1;rounded=0;" parent="1" edge="1">
          <mxGeometry width="50" height="50" relative="1" as="geometry">
            <mxPoint x="2457.5" y="766.1312121212121" as="sourcePoint" />
            <mxPoint x="2511.666666666667" y="766.1312121212121" as="targetPoint" />
          </mxGeometry>
        </mxCell>
        <mxCell id="ecnfo4OH-dt6vmVNhMm7-144" value="" style="endArrow=none;html=1;rounded=0;" parent="1" edge="1">
          <mxGeometry width="50" height="50" relative="1" as="geometry">
            <mxPoint x="2457.5" y="779.9604132231404" as="sourcePoint" />
            <mxPoint x="2511.666666666667" y="779.9604132231404" as="targetPoint" />
          </mxGeometry>
        </mxCell>
        <mxCell id="ecnfo4OH-dt6vmVNhMm7-145" value="" style="endArrow=none;html=1;rounded=0;" parent="1" edge="1">
          <mxGeometry width="50" height="50" relative="1" as="geometry">
            <mxPoint x="2457.5" y="793.7896143250689" as="sourcePoint" />
            <mxPoint x="2511.666666666667" y="793.7896143250689" as="targetPoint" />
          </mxGeometry>
        </mxCell>
        <mxCell id="ecnfo4OH-dt6vmVNhMm7-146" value="" style="endArrow=none;html=1;rounded=0;" parent="1" edge="1">
          <mxGeometry width="50" height="50" relative="1" as="geometry">
            <mxPoint x="2457.5" y="806.7959779614324" as="sourcePoint" />
            <mxPoint x="2511.666666666667" y="806.7959779614324" as="targetPoint" />
          </mxGeometry>
        </mxCell>
        <mxCell id="ecnfo4OH-dt6vmVNhMm7-147" value="" style="endArrow=none;html=1;rounded=0;" parent="1" edge="1">
          <mxGeometry width="50" height="50" relative="1" as="geometry">
            <mxPoint x="2457.5" y="821.4480165289256" as="sourcePoint" />
            <mxPoint x="2511.666666666667" y="821.4480165289256" as="targetPoint" />
          </mxGeometry>
        </mxCell>
        <mxCell id="ecnfo4OH-dt6vmVNhMm7-148" value="" style="endArrow=none;html=1;rounded=0;" parent="1" edge="1">
          <mxGeometry width="50" height="50" relative="1" as="geometry">
            <mxPoint x="2457.5" y="835.277217630854" as="sourcePoint" />
            <mxPoint x="2511.666666666667" y="835.277217630854" as="targetPoint" />
          </mxGeometry>
        </mxCell>
        <mxCell id="ecnfo4OH-dt6vmVNhMm7-149" value="" style="endArrow=none;html=1;rounded=0;" parent="1" edge="1">
          <mxGeometry width="50" height="50" relative="1" as="geometry">
            <mxPoint x="2457.5" y="849.1064187327823" as="sourcePoint" />
            <mxPoint x="2511.666666666667" y="849.1064187327823" as="targetPoint" />
          </mxGeometry>
        </mxCell>
        <mxCell id="ecnfo4OH-dt6vmVNhMm7-150" value="" style="rounded=0;whiteSpace=wrap;html=1;container=0;" parent="1" vertex="1">
          <mxGeometry x="2349.166666666667" y="737.6914600550964" width="108.33333333333337" height="124.46280991735539" as="geometry" />
        </mxCell>
        <mxCell id="ecnfo4OH-dt6vmVNhMm7-151" value="" style="endArrow=none;html=1;rounded=0;" parent="1" edge="1">
          <mxGeometry width="50" height="50" relative="1" as="geometry">
            <mxPoint x="2373.5597222222223" y="799.9878021319919" as="sourcePoint" />
            <mxPoint x="2385.5606481481486" y="756.6963899868248" as="targetPoint" />
          </mxGeometry>
        </mxCell>
        <mxCell id="ecnfo4OH-dt6vmVNhMm7-152" value="" style="endArrow=none;html=1;rounded=0;" parent="1" edge="1">
          <mxGeometry width="50" height="50" relative="1" as="geometry">
            <mxPoint x="2360.3189814814814" y="848.6906407953048" as="sourcePoint" />
            <mxPoint x="2372.3199074074078" y="805.3992286501377" as="targetPoint" />
          </mxGeometry>
        </mxCell>
        <mxCell id="ecnfo4OH-dt6vmVNhMm7-153" value="" style="endArrow=none;html=1;rounded=0;" parent="1" edge="1">
          <mxGeometry width="50" height="50" relative="1" as="geometry">
            <mxPoint x="2433.1430555555557" y="799.9878021319919" as="sourcePoint" />
            <mxPoint x="2445.1439814814817" y="756.6963899868248" as="targetPoint" />
          </mxGeometry>
        </mxCell>
        <mxCell id="ecnfo4OH-dt6vmVNhMm7-154" value="" style="endArrow=none;html=1;rounded=0;" parent="1" edge="1">
          <mxGeometry width="50" height="50" relative="1" as="geometry">
            <mxPoint x="2419.9023148148153" y="848.6906407953048" as="sourcePoint" />
            <mxPoint x="2431.903240740741" y="805.3992286501377" as="targetPoint" />
          </mxGeometry>
        </mxCell>
        <mxCell id="ecnfo4OH-dt6vmVNhMm7-155" value="" style="endArrow=none;html=1;rounded=0;" parent="1" edge="1">
          <mxGeometry width="50" height="50" relative="1" as="geometry">
            <mxPoint x="2388.606018518519" y="751.2849634686788" as="sourcePoint" />
            <mxPoint x="2442.7726851851858" y="751.2849634686788" as="targetPoint" />
          </mxGeometry>
        </mxCell>
        <mxCell id="ecnfo4OH-dt6vmVNhMm7-156" value="" style="endArrow=none;html=1;rounded=0;" parent="1" edge="1">
          <mxGeometry width="50" height="50" relative="1" as="geometry">
            <mxPoint x="2375.9671296296297" y="802.6935153910648" as="sourcePoint" />
            <mxPoint x="2430.1337962962966" y="802.6935153910648" as="targetPoint" />
          </mxGeometry>
        </mxCell>
        <mxCell id="ecnfo4OH-dt6vmVNhMm7-157" value="" style="endArrow=none;html=1;rounded=0;" parent="1" edge="1">
          <mxGeometry width="50" height="50" relative="1" as="geometry">
            <mxPoint x="2362.124537037037" y="850.3140687507486" as="sourcePoint" />
            <mxPoint x="2416.291203703704" y="850.3140687507486" as="targetPoint" />
          </mxGeometry>
        </mxCell>
        <mxCell id="ecnfo4OH-dt6vmVNhMm7-167" value="" style="rounded=0;whiteSpace=wrap;html=1;container=0;" parent="1" vertex="1">
          <mxGeometry x="2511.666666666667" y="737.6914600550964" width="108.33333333333337" height="124.46280991735539" as="geometry" />
        </mxCell>
        <mxCell id="ecnfo4OH-dt6vmVNhMm7-168" value="" style="endArrow=none;html=1;rounded=0;" parent="1" edge="1">
          <mxGeometry width="50" height="50" relative="1" as="geometry">
            <mxPoint x="2536.0597222222223" y="799.9878021319919" as="sourcePoint" />
            <mxPoint x="2548.060648148148" y="756.6963899868248" as="targetPoint" />
          </mxGeometry>
        </mxCell>
        <mxCell id="ecnfo4OH-dt6vmVNhMm7-169" value="" style="endArrow=none;html=1;rounded=0;" parent="1" edge="1">
          <mxGeometry width="50" height="50" relative="1" as="geometry">
            <mxPoint x="2522.8189814814814" y="848.6906407953048" as="sourcePoint" />
            <mxPoint x="2534.8199074074073" y="805.3992286501377" as="targetPoint" />
          </mxGeometry>
        </mxCell>
        <mxCell id="ecnfo4OH-dt6vmVNhMm7-170" value="" style="endArrow=none;html=1;rounded=0;" parent="1" edge="1">
          <mxGeometry width="50" height="50" relative="1" as="geometry">
            <mxPoint x="2595.6430555555553" y="799.9878021319919" as="sourcePoint" />
            <mxPoint x="2607.643981481481" y="756.6963899868248" as="targetPoint" />
          </mxGeometry>
        </mxCell>
        <mxCell id="ecnfo4OH-dt6vmVNhMm7-171" value="" style="endArrow=none;html=1;rounded=0;" parent="1" edge="1">
          <mxGeometry width="50" height="50" relative="1" as="geometry">
            <mxPoint x="2582.402314814815" y="848.6906407953048" as="sourcePoint" />
            <mxPoint x="2594.4032407407403" y="805.3992286501377" as="targetPoint" />
          </mxGeometry>
        </mxCell>
        <mxCell id="ecnfo4OH-dt6vmVNhMm7-172" value="" style="endArrow=none;html=1;rounded=0;" parent="1" edge="1">
          <mxGeometry width="50" height="50" relative="1" as="geometry">
            <mxPoint x="2551.1060185185183" y="751.2849634686788" as="sourcePoint" />
            <mxPoint x="2605.2726851851858" y="751.2849634686788" as="targetPoint" />
          </mxGeometry>
        </mxCell>
        <mxCell id="ecnfo4OH-dt6vmVNhMm7-173" value="" style="endArrow=none;html=1;rounded=0;" parent="1" edge="1">
          <mxGeometry width="50" height="50" relative="1" as="geometry">
            <mxPoint x="2538.467129629629" y="802.6935153910648" as="sourcePoint" />
            <mxPoint x="2592.633796296296" y="802.6935153910648" as="targetPoint" />
          </mxGeometry>
        </mxCell>
        <mxCell id="ecnfo4OH-dt6vmVNhMm7-174" value="" style="endArrow=none;html=1;rounded=0;" parent="1" edge="1">
          <mxGeometry width="50" height="50" relative="1" as="geometry">
            <mxPoint x="2524.624537037037" y="850.3140687507486" as="sourcePoint" />
            <mxPoint x="2578.7912037037036" y="850.3140687507486" as="targetPoint" />
          </mxGeometry>
        </mxCell>
        <mxCell id="ecnfo4OH-dt6vmVNhMm7-386" value="" style="endArrow=none;html=1;rounded=0;" parent="1" edge="1">
          <mxGeometry width="50" height="50" relative="1" as="geometry">
            <mxPoint x="200" y="1254" as="sourcePoint" />
            <mxPoint x="200" y="241.05" as="targetPoint" />
          </mxGeometry>
        </mxCell>
        <mxCell id="ecnfo4OH-dt6vmVNhMm7-387" value="" style="endArrow=oval;html=1;rounded=0;endFill=1;" parent="1" edge="1">
          <mxGeometry width="50" height="50" relative="1" as="geometry">
            <mxPoint x="110" y="241" as="sourcePoint" />
            <mxPoint x="200" y="241" as="targetPoint" />
          </mxGeometry>
        </mxCell>
        <mxCell id="ecnfo4OH-dt6vmVNhMm7-388" value="" style="endArrow=none;html=1;rounded=0;" parent="1" edge="1">
          <mxGeometry width="50" height="50" relative="1" as="geometry">
            <mxPoint x="150" y="251.25" as="sourcePoint" />
            <mxPoint x="170" y="231.25" as="targetPoint" />
          </mxGeometry>
        </mxCell>
        <mxCell id="ecnfo4OH-dt6vmVNhMm7-389" value="4" style="text;html=1;align=center;verticalAlign=middle;resizable=0;points=[];autosize=1;strokeColor=none;fillColor=none;" parent="1" vertex="1">
          <mxGeometry x="140" y="214" width="30" height="30" as="geometry" />
        </mxCell>
        <mxCell id="ecnfo4OH-dt6vmVNhMm7-390" value="num" style="text;html=1;align=center;verticalAlign=middle;resizable=0;points=[];autosize=1;strokeColor=none;fillColor=none;" parent="1" vertex="1">
          <mxGeometry x="71" y="226" width="50" height="30" as="geometry" />
        </mxCell>
        <mxCell id="ecnfo4OH-dt6vmVNhMm7-391" value="" style="endArrow=none;html=1;rounded=0;" parent="1" edge="1">
          <mxGeometry width="50" height="50" relative="1" as="geometry">
            <mxPoint x="230" y="251.25" as="sourcePoint" />
            <mxPoint x="250" y="231.25" as="targetPoint" />
          </mxGeometry>
        </mxCell>
        <mxCell id="ecnfo4OH-dt6vmVNhMm7-392" value="4" style="text;html=1;align=center;verticalAlign=middle;resizable=0;points=[];autosize=1;strokeColor=none;fillColor=none;" parent="1" vertex="1">
          <mxGeometry x="220" y="214" width="30" height="30" as="geometry" />
        </mxCell>
        <mxCell id="ecnfo4OH-dt6vmVNhMm7-393" value="" style="endArrow=none;html=1;rounded=0;" parent="1" edge="1">
          <mxGeometry width="50" height="50" relative="1" as="geometry">
            <mxPoint x="230" y="395.25" as="sourcePoint" />
            <mxPoint x="250" y="375.25" as="targetPoint" />
          </mxGeometry>
        </mxCell>
        <mxCell id="ecnfo4OH-dt6vmVNhMm7-394" value="4" style="text;html=1;align=center;verticalAlign=middle;resizable=0;points=[];autosize=1;strokeColor=none;fillColor=none;" parent="1" vertex="1">
          <mxGeometry x="220" y="358" width="30" height="30" as="geometry" />
        </mxCell>
        <mxCell id="ecnfo4OH-dt6vmVNhMm7-395" value="" style="endArrow=none;html=1;rounded=0;" parent="1" edge="1">
          <mxGeometry width="50" height="50" relative="1" as="geometry">
            <mxPoint x="230" y="541.25" as="sourcePoint" />
            <mxPoint x="250" y="521.25" as="targetPoint" />
          </mxGeometry>
        </mxCell>
        <mxCell id="ecnfo4OH-dt6vmVNhMm7-396" value="4" style="text;html=1;align=center;verticalAlign=middle;resizable=0;points=[];autosize=1;strokeColor=none;fillColor=none;" parent="1" vertex="1">
          <mxGeometry x="220" y="504" width="30" height="30" as="geometry" />
        </mxCell>
        <mxCell id="ecnfo4OH-dt6vmVNhMm7-397" value="" style="endArrow=none;html=1;rounded=0;" parent="1" edge="1">
          <mxGeometry width="50" height="50" relative="1" as="geometry">
            <mxPoint x="230" y="687.98" as="sourcePoint" />
            <mxPoint x="250" y="667.98" as="targetPoint" />
          </mxGeometry>
        </mxCell>
        <mxCell id="ecnfo4OH-dt6vmVNhMm7-398" value="4" style="text;html=1;align=center;verticalAlign=middle;resizable=0;points=[];autosize=1;strokeColor=none;fillColor=none;" parent="1" vertex="1">
          <mxGeometry x="220" y="650.73" width="30" height="30" as="geometry" />
        </mxCell>
        <mxCell id="ecnfo4OH-dt6vmVNhMm7-399" value="" style="endArrow=none;html=1;rounded=0;" parent="1" edge="1">
          <mxGeometry width="50" height="50" relative="1" as="geometry">
            <mxPoint x="230" y="831.25" as="sourcePoint" />
            <mxPoint x="250" y="811.25" as="targetPoint" />
          </mxGeometry>
        </mxCell>
        <mxCell id="ecnfo4OH-dt6vmVNhMm7-400" value="4" style="text;html=1;align=center;verticalAlign=middle;resizable=0;points=[];autosize=1;strokeColor=none;fillColor=none;" parent="1" vertex="1">
          <mxGeometry x="220" y="794" width="30" height="30" as="geometry" />
        </mxCell>
        <mxCell id="ecnfo4OH-dt6vmVNhMm7-401" value="" style="endArrow=none;html=1;rounded=0;" parent="1" edge="1">
          <mxGeometry width="50" height="50" relative="1" as="geometry">
            <mxPoint x="230" y="976.25" as="sourcePoint" />
            <mxPoint x="250" y="956.25" as="targetPoint" />
          </mxGeometry>
        </mxCell>
        <mxCell id="ecnfo4OH-dt6vmVNhMm7-402" value="4" style="text;html=1;align=center;verticalAlign=middle;resizable=0;points=[];autosize=1;strokeColor=none;fillColor=none;" parent="1" vertex="1">
          <mxGeometry x="220" y="939" width="30" height="30" as="geometry" />
        </mxCell>
        <mxCell id="ecnfo4OH-dt6vmVNhMm7-403" value="" style="endArrow=none;html=1;rounded=0;" parent="1" edge="1">
          <mxGeometry width="50" height="50" relative="1" as="geometry">
            <mxPoint x="230" y="1121.25" as="sourcePoint" />
            <mxPoint x="250" y="1101.25" as="targetPoint" />
          </mxGeometry>
        </mxCell>
        <mxCell id="ecnfo4OH-dt6vmVNhMm7-404" value="4" style="text;html=1;align=center;verticalAlign=middle;resizable=0;points=[];autosize=1;strokeColor=none;fillColor=none;" parent="1" vertex="1">
          <mxGeometry x="220" y="1084" width="30" height="30" as="geometry" />
        </mxCell>
        <mxCell id="ecnfo4OH-dt6vmVNhMm7-405" value="" style="endArrow=none;html=1;rounded=0;" parent="1" edge="1">
          <mxGeometry width="50" height="50" relative="1" as="geometry">
            <mxPoint x="230" y="1265.25" as="sourcePoint" />
            <mxPoint x="250" y="1245.25" as="targetPoint" />
          </mxGeometry>
        </mxCell>
        <mxCell id="ecnfo4OH-dt6vmVNhMm7-406" value="4" style="text;html=1;align=center;verticalAlign=middle;resizable=0;points=[];autosize=1;strokeColor=none;fillColor=none;" parent="1" vertex="1">
          <mxGeometry x="220" y="1228" width="30" height="30" as="geometry" />
        </mxCell>
        <mxCell id="ecnfo4OH-dt6vmVNhMm7-438" style="edgeStyle=orthogonalEdgeStyle;rounded=0;orthogonalLoop=1;jettySize=auto;html=1;exitX=0;exitY=0.75;exitDx=0;exitDy=0;exitPerimeter=0;entryX=0;entryY=0.75;entryDx=0;entryDy=0;entryPerimeter=0;" parent="1" edge="1">
          <mxGeometry relative="1" as="geometry">
            <mxPoint x="1443.33" y="1066.05" as="targetPoint" />
            <mxPoint x="1442.8571428571431" y="1193" as="sourcePoint" />
          </mxGeometry>
        </mxCell>
        <mxCell id="ecnfo4OH-dt6vmVNhMm7-407" value="" style="verticalLabelPosition=bottom;shadow=0;dashed=0;align=center;html=1;verticalAlign=top;shape=mxgraph.electrical.logic_gates.logic_gate;operation=or;rotation=-90;" parent="1" vertex="1">
          <mxGeometry x="1378.33" y="1007.05" width="100" height="60" as="geometry" />
        </mxCell>
        <mxCell id="ecnfo4OH-dt6vmVNhMm7-439" style="edgeStyle=orthogonalEdgeStyle;rounded=0;orthogonalLoop=1;jettySize=auto;html=1;exitX=0;exitY=0.75;exitDx=0;exitDy=0;exitPerimeter=0;entryX=0;entryY=0.75;entryDx=0;entryDy=0;entryPerimeter=0;" parent="1" edge="1">
          <mxGeometry relative="1" as="geometry">
            <mxPoint x="1605.83" y="1066.05" as="targetPoint" />
            <mxPoint x="1605.6" y="1193" as="sourcePoint" />
          </mxGeometry>
        </mxCell>
        <mxCell id="ecnfo4OH-dt6vmVNhMm7-408" value="" style="verticalLabelPosition=bottom;shadow=0;dashed=0;align=center;html=1;verticalAlign=top;shape=mxgraph.electrical.logic_gates.logic_gate;operation=or;rotation=-90;" parent="1" vertex="1">
          <mxGeometry x="1540.83" y="1007.05" width="100" height="60" as="geometry" />
        </mxCell>
        <mxCell id="ecnfo4OH-dt6vmVNhMm7-440" style="edgeStyle=orthogonalEdgeStyle;rounded=0;orthogonalLoop=1;jettySize=auto;html=1;exitX=0;exitY=0.75;exitDx=0;exitDy=0;exitPerimeter=0;entryX=0;entryY=0.75;entryDx=0;entryDy=0;entryPerimeter=0;" parent="1" edge="1">
          <mxGeometry relative="1" as="geometry">
            <mxPoint x="1768.33" y="1066.05" as="targetPoint" />
            <mxPoint x="1768" y="1193" as="sourcePoint" />
          </mxGeometry>
        </mxCell>
        <mxCell id="ecnfo4OH-dt6vmVNhMm7-409" value="" style="verticalLabelPosition=bottom;shadow=0;dashed=0;align=center;html=1;verticalAlign=top;shape=mxgraph.electrical.logic_gates.logic_gate;operation=or;rotation=-90;" parent="1" vertex="1">
          <mxGeometry x="1703.33" y="1007.05" width="100" height="60" as="geometry" />
        </mxCell>
        <mxCell id="ecnfo4OH-dt6vmVNhMm7-441" style="edgeStyle=orthogonalEdgeStyle;rounded=0;orthogonalLoop=1;jettySize=auto;html=1;exitX=0;exitY=0.75;exitDx=0;exitDy=0;exitPerimeter=0;entryX=0;entryY=0.75;entryDx=0;entryDy=0;entryPerimeter=0;" parent="1" edge="1">
          <mxGeometry relative="1" as="geometry">
            <mxPoint x="1930.83" y="1066.05" as="targetPoint" />
            <mxPoint x="1931.1999999999998" y="1193" as="sourcePoint" />
          </mxGeometry>
        </mxCell>
        <mxCell id="ecnfo4OH-dt6vmVNhMm7-410" value="" style="verticalLabelPosition=bottom;shadow=0;dashed=0;align=center;html=1;verticalAlign=top;shape=mxgraph.electrical.logic_gates.logic_gate;operation=or;rotation=-90;" parent="1" vertex="1">
          <mxGeometry x="1865.83" y="1007.05" width="100" height="60" as="geometry" />
        </mxCell>
        <mxCell id="ecnfo4OH-dt6vmVNhMm7-443" style="edgeStyle=orthogonalEdgeStyle;rounded=0;orthogonalLoop=1;jettySize=auto;html=1;exitX=0;exitY=0.75;exitDx=0;exitDy=0;exitPerimeter=0;entryX=0;entryY=0.75;entryDx=0;entryDy=0;entryPerimeter=0;" parent="1" edge="1">
          <mxGeometry relative="1" as="geometry">
            <mxPoint x="2093.33" y="1066.05" as="targetPoint" />
            <mxPoint x="2093.6" y="1193" as="sourcePoint" />
          </mxGeometry>
        </mxCell>
        <mxCell id="ecnfo4OH-dt6vmVNhMm7-411" value="" style="verticalLabelPosition=bottom;shadow=0;dashed=0;align=center;html=1;verticalAlign=top;shape=mxgraph.electrical.logic_gates.logic_gate;operation=or;rotation=-90;" parent="1" vertex="1">
          <mxGeometry x="2028.33" y="1007.05" width="100" height="60" as="geometry" />
        </mxCell>
        <mxCell id="ecnfo4OH-dt6vmVNhMm7-413" style="edgeStyle=orthogonalEdgeStyle;rounded=0;orthogonalLoop=1;jettySize=auto;html=1;exitX=1;exitY=0.5;exitDx=0;exitDy=0;exitPerimeter=0;entryX=0.5;entryY=1;entryDx=0;entryDy=0;endArrow=classic;startFill=0;endFill=1;" parent="1" source="ecnfo4OH-dt6vmVNhMm7-412" target="ecnfo4OH-dt6vmVNhMm7-133" edge="1">
          <mxGeometry relative="1" as="geometry" />
        </mxCell>
        <mxCell id="ecnfo4OH-dt6vmVNhMm7-417" value="seg_sel_2" style="edgeLabel;html=1;align=center;verticalAlign=middle;resizable=0;points=[];" parent="ecnfo4OH-dt6vmVNhMm7-413" vertex="1" connectable="0">
          <mxGeometry x="0.1465" y="1" relative="1" as="geometry">
            <mxPoint x="-30" as="offset" />
          </mxGeometry>
        </mxCell>
        <mxCell id="ecnfo4OH-dt6vmVNhMm7-444" style="edgeStyle=orthogonalEdgeStyle;rounded=0;orthogonalLoop=1;jettySize=auto;html=1;exitX=0;exitY=0.75;exitDx=0;exitDy=0;exitPerimeter=0;entryX=0;entryY=0.75;entryDx=0;entryDy=0;entryPerimeter=0;" parent="1" edge="1">
          <mxGeometry relative="1" as="geometry">
            <mxPoint x="2255.83" y="1065.05" as="targetPoint" />
            <mxPoint x="2256" y="1192" as="sourcePoint" />
          </mxGeometry>
        </mxCell>
        <mxCell id="ecnfo4OH-dt6vmVNhMm7-412" value="" style="verticalLabelPosition=bottom;shadow=0;dashed=0;align=center;html=1;verticalAlign=top;shape=mxgraph.electrical.logic_gates.logic_gate;operation=or;rotation=-90;" parent="1" vertex="1">
          <mxGeometry x="2190.83" y="1007.05" width="100" height="60" as="geometry" />
        </mxCell>
        <mxCell id="ecnfo4OH-dt6vmVNhMm7-445" style="edgeStyle=orthogonalEdgeStyle;rounded=0;orthogonalLoop=1;jettySize=auto;html=1;exitX=0;exitY=0.75;exitDx=0;exitDy=0;exitPerimeter=0;entryX=0;entryY=0.75;entryDx=0;entryDy=0;entryPerimeter=0;" parent="1" edge="1">
          <mxGeometry relative="1" as="geometry">
            <mxPoint x="2418.33" y="1066.05" as="targetPoint" />
            <mxPoint x="2418.4" y="1193" as="sourcePoint" />
          </mxGeometry>
        </mxCell>
        <mxCell id="ecnfo4OH-dt6vmVNhMm7-414" value="" style="verticalLabelPosition=bottom;shadow=0;dashed=0;align=center;html=1;verticalAlign=top;shape=mxgraph.electrical.logic_gates.logic_gate;operation=or;rotation=-90;" parent="1" vertex="1">
          <mxGeometry x="2353.33" y="1007.05" width="100" height="60" as="geometry" />
        </mxCell>
        <mxCell id="ecnfo4OH-dt6vmVNhMm7-416" style="edgeStyle=orthogonalEdgeStyle;rounded=0;orthogonalLoop=1;jettySize=auto;html=1;exitX=1;exitY=0.5;exitDx=0;exitDy=0;exitPerimeter=0;entryX=0.5;entryY=1;entryDx=0;entryDy=0;endArrow=classic;startFill=0;endFill=1;" parent="1" source="ecnfo4OH-dt6vmVNhMm7-415" target="ecnfo4OH-dt6vmVNhMm7-167" edge="1">
          <mxGeometry relative="1" as="geometry">
            <mxPoint x="2565.7272727272725" y="864" as="targetPoint" />
          </mxGeometry>
        </mxCell>
        <mxCell id="ecnfo4OH-dt6vmVNhMm7-446" style="edgeStyle=orthogonalEdgeStyle;rounded=0;orthogonalLoop=1;jettySize=auto;html=1;exitX=0;exitY=0.75;exitDx=0;exitDy=0;exitPerimeter=0;entryX=0;entryY=0.75;entryDx=0;entryDy=0;entryPerimeter=0;" parent="1" edge="1">
          <mxGeometry relative="1" as="geometry">
            <mxPoint x="2580.83" y="1066.05" as="targetPoint" />
            <mxPoint x="2580.8" y="1193" as="sourcePoint" />
          </mxGeometry>
        </mxCell>
        <mxCell id="ecnfo4OH-dt6vmVNhMm7-415" value="" style="verticalLabelPosition=bottom;shadow=0;dashed=0;align=center;html=1;verticalAlign=top;shape=mxgraph.electrical.logic_gates.logic_gate;operation=or;rotation=-90;" parent="1" vertex="1">
          <mxGeometry x="2515.83" y="1007.05" width="100" height="60" as="geometry" />
        </mxCell>
        <mxCell id="ecnfo4OH-dt6vmVNhMm7-418" value="seg_sel_0" style="text;html=1;align=center;verticalAlign=middle;resizable=0;points=[];autosize=1;strokeColor=none;fillColor=none;" parent="1" vertex="1">
          <mxGeometry x="2490" y="902.75" width="80" height="30" as="geometry" />
        </mxCell>
        <mxCell id="ecnfo4OH-dt6vmVNhMm7-419" style="edgeStyle=orthogonalEdgeStyle;rounded=0;orthogonalLoop=1;jettySize=auto;html=1;exitX=0;exitY=0.25;exitDx=0;exitDy=0;exitPerimeter=0;entryX=0;entryY=0.25;entryDx=0;entryDy=0;entryPerimeter=0;endArrow=none;startFill=0;" parent="1" source="ecnfo4OH-dt6vmVNhMm7-407" target="ecnfo4OH-dt6vmVNhMm7-415" edge="1">
          <mxGeometry relative="1" as="geometry" />
        </mxCell>
        <mxCell id="ecnfo4OH-dt6vmVNhMm7-422" style="edgeStyle=orthogonalEdgeStyle;rounded=0;orthogonalLoop=1;jettySize=auto;html=1;exitX=0;exitY=0.25;exitDx=0;exitDy=0;exitPerimeter=0;entryX=0;entryY=0.25;entryDx=0;entryDy=0;entryPerimeter=0;endArrow=none;startFill=0;" parent="1" source="ecnfo4OH-dt6vmVNhMm7-409" target="ecnfo4OH-dt6vmVNhMm7-408" edge="1">
          <mxGeometry relative="1" as="geometry" />
        </mxCell>
        <mxCell id="ecnfo4OH-dt6vmVNhMm7-423" style="edgeStyle=orthogonalEdgeStyle;rounded=0;orthogonalLoop=1;jettySize=auto;html=1;exitX=0;exitY=0.25;exitDx=0;exitDy=0;exitPerimeter=0;entryX=0;entryY=0.25;entryDx=0;entryDy=0;entryPerimeter=0;endArrow=none;startFill=0;" parent="1" source="ecnfo4OH-dt6vmVNhMm7-410" target="ecnfo4OH-dt6vmVNhMm7-409" edge="1">
          <mxGeometry relative="1" as="geometry" />
        </mxCell>
        <mxCell id="ecnfo4OH-dt6vmVNhMm7-424" style="edgeStyle=orthogonalEdgeStyle;rounded=0;orthogonalLoop=1;jettySize=auto;html=1;exitX=0;exitY=0.25;exitDx=0;exitDy=0;exitPerimeter=0;entryX=0;entryY=0.25;entryDx=0;entryDy=0;entryPerimeter=0;endArrow=none;startFill=0;" parent="1" source="ecnfo4OH-dt6vmVNhMm7-411" target="ecnfo4OH-dt6vmVNhMm7-410" edge="1">
          <mxGeometry relative="1" as="geometry" />
        </mxCell>
        <mxCell id="ecnfo4OH-dt6vmVNhMm7-425" style="edgeStyle=orthogonalEdgeStyle;rounded=0;orthogonalLoop=1;jettySize=auto;html=1;exitX=0;exitY=0.25;exitDx=0;exitDy=0;exitPerimeter=0;entryX=0;entryY=0.25;entryDx=0;entryDy=0;entryPerimeter=0;endArrow=none;startFill=0;" parent="1" source="ecnfo4OH-dt6vmVNhMm7-412" target="ecnfo4OH-dt6vmVNhMm7-411" edge="1">
          <mxGeometry relative="1" as="geometry" />
        </mxCell>
        <mxCell id="ecnfo4OH-dt6vmVNhMm7-426" style="edgeStyle=orthogonalEdgeStyle;rounded=0;orthogonalLoop=1;jettySize=auto;html=1;exitX=0;exitY=0.25;exitDx=0;exitDy=0;exitPerimeter=0;entryX=0;entryY=0.25;entryDx=0;entryDy=0;entryPerimeter=0;endArrow=none;startFill=0;" parent="1" source="ecnfo4OH-dt6vmVNhMm7-414" target="ecnfo4OH-dt6vmVNhMm7-412" edge="1">
          <mxGeometry relative="1" as="geometry" />
        </mxCell>
        <mxCell id="ecnfo4OH-dt6vmVNhMm7-428" value="write" style="text;html=1;align=center;verticalAlign=middle;resizable=0;points=[];autosize=1;strokeColor=none;fillColor=none;" parent="1" vertex="1">
          <mxGeometry x="1232.67" y="1093.0500000000002" width="50" height="30" as="geometry" />
        </mxCell>
        <mxCell id="ecnfo4OH-dt6vmVNhMm7-429" value="" style="endArrow=oval;html=1;rounded=0;endFill=1;" parent="1" edge="1">
          <mxGeometry width="50" height="50" relative="1" as="geometry">
            <mxPoint x="1545.83" y="1107.0700000000002" as="sourcePoint" />
            <mxPoint x="1575.83" y="1107.0700000000002" as="targetPoint" />
          </mxGeometry>
        </mxCell>
        <mxCell id="ecnfo4OH-dt6vmVNhMm7-431" value="" style="endArrow=oval;html=1;rounded=0;endFill=1;" parent="1" edge="1">
          <mxGeometry width="50" height="50" relative="1" as="geometry">
            <mxPoint x="1708" y="1106.93" as="sourcePoint" />
            <mxPoint x="1738" y="1106.93" as="targetPoint" />
          </mxGeometry>
        </mxCell>
        <mxCell id="ecnfo4OH-dt6vmVNhMm7-432" value="" style="endArrow=oval;html=1;rounded=0;endFill=1;" parent="1" edge="1">
          <mxGeometry width="50" height="50" relative="1" as="geometry">
            <mxPoint x="1870.83" y="1106.93" as="sourcePoint" />
            <mxPoint x="1900.83" y="1106.93" as="targetPoint" />
          </mxGeometry>
        </mxCell>
        <mxCell id="ecnfo4OH-dt6vmVNhMm7-433" value="" style="endArrow=oval;html=1;rounded=0;endFill=1;" parent="1" edge="1">
          <mxGeometry width="50" height="50" relative="1" as="geometry">
            <mxPoint x="2033" y="1106.93" as="sourcePoint" />
            <mxPoint x="2063" y="1106.93" as="targetPoint" />
          </mxGeometry>
        </mxCell>
        <mxCell id="ecnfo4OH-dt6vmVNhMm7-434" value="" style="endArrow=oval;html=1;rounded=0;endFill=1;" parent="1" edge="1">
          <mxGeometry width="50" height="50" relative="1" as="geometry">
            <mxPoint x="2195.83" y="1106.93" as="sourcePoint" />
            <mxPoint x="2225.83" y="1106.93" as="targetPoint" />
          </mxGeometry>
        </mxCell>
        <mxCell id="ecnfo4OH-dt6vmVNhMm7-435" value="" style="endArrow=oval;html=1;rounded=0;endFill=1;" parent="1" edge="1">
          <mxGeometry width="50" height="50" relative="1" as="geometry">
            <mxPoint x="2358.33" y="1107.0500000000002" as="sourcePoint" />
            <mxPoint x="2388.33" y="1107.0500000000002" as="targetPoint" />
          </mxGeometry>
        </mxCell>
        <mxCell id="ecnfo4OH-dt6vmVNhMm7-436" value="" style="endArrow=oval;html=1;rounded=0;endFill=1;" parent="1" edge="1">
          <mxGeometry width="50" height="50" relative="1" as="geometry">
            <mxPoint x="2520.83" y="1106.94" as="sourcePoint" />
            <mxPoint x="2550.83" y="1106.94" as="targetPoint" />
          </mxGeometry>
        </mxCell>
        <mxCell id="ecnfo4OH-dt6vmVNhMm7-459" style="edgeStyle=orthogonalEdgeStyle;rounded=0;orthogonalLoop=1;jettySize=auto;html=1;exitX=0;exitY=0.25;exitDx=0;exitDy=0;exitPerimeter=0;entryX=0;entryY=0.75;entryDx=0;entryDy=0;entryPerimeter=0;" parent="1" source="ecnfo4OH-dt6vmVNhMm7-407" edge="1">
          <mxGeometry relative="1" as="geometry">
            <mxPoint x="1413.47" y="1065.8" as="targetPoint" />
            <mxPoint x="1412.9971428571432" y="1192.75" as="sourcePoint" />
          </mxGeometry>
        </mxCell>
        <mxCell id="ecnfo4OH-dt6vmVNhMm7-460" style="edgeStyle=orthogonalEdgeStyle;rounded=0;orthogonalLoop=1;jettySize=auto;html=1;entryX=0.202;entryY=0.249;entryDx=0;entryDy=0;entryPerimeter=0;exitX=0.02;exitY=0.249;exitDx=0;exitDy=0;exitPerimeter=0;" parent="1" source="ecnfo4OH-dt6vmVNhMm7-408" edge="1">
          <mxGeometry relative="1" as="geometry">
            <mxPoint x="1576.04" y="1065.8499999999997" as="targetPoint" />
            <mxPoint x="1576" y="1084" as="sourcePoint" />
          </mxGeometry>
        </mxCell>
        <mxCell id="ecnfo4OH-dt6vmVNhMm7-461" style="edgeStyle=orthogonalEdgeStyle;rounded=0;orthogonalLoop=1;jettySize=auto;html=1;entryX=0.209;entryY=0.25;entryDx=0;entryDy=0;entryPerimeter=0;exitX=0.074;exitY=0.249;exitDx=0;exitDy=0;exitPerimeter=0;" parent="1" edge="1">
          <mxGeometry relative="1" as="geometry">
            <mxPoint x="1738.3299999999997" y="1066.05" as="targetPoint" />
            <mxPoint x="1738.2699999999998" y="1080.5499999999997" as="sourcePoint" />
          </mxGeometry>
        </mxCell>
        <mxCell id="ecnfo4OH-dt6vmVNhMm7-463" style="edgeStyle=orthogonalEdgeStyle;rounded=0;orthogonalLoop=1;jettySize=auto;html=1;entryX=0.206;entryY=0.249;entryDx=0;entryDy=0;entryPerimeter=0;exitX=0.034;exitY=0.25;exitDx=0;exitDy=0;exitPerimeter=0;" parent="1" edge="1">
          <mxGeometry relative="1" as="geometry">
            <mxPoint x="1900.77" y="1065.4499999999998" as="targetPoint" />
            <mxPoint x="1900.83" y="1082.65" as="sourcePoint" />
          </mxGeometry>
        </mxCell>
        <mxCell id="ecnfo4OH-dt6vmVNhMm7-464" style="edgeStyle=orthogonalEdgeStyle;rounded=0;orthogonalLoop=1;jettySize=auto;html=1;entryX=0.207;entryY=0.25;entryDx=0;entryDy=0;entryPerimeter=0;exitX=0.027;exitY=0.248;exitDx=0;exitDy=0;exitPerimeter=0;" parent="1" edge="1">
          <mxGeometry relative="1" as="geometry">
            <mxPoint x="2063.33" y="1065.35" as="targetPoint" />
            <mxPoint x="2063.2099999999996" y="1083.35" as="sourcePoint" />
          </mxGeometry>
        </mxCell>
        <mxCell id="ecnfo4OH-dt6vmVNhMm7-465" style="edgeStyle=orthogonalEdgeStyle;rounded=0;orthogonalLoop=1;jettySize=auto;html=1;entryX=0.206;entryY=0.251;entryDx=0;entryDy=0;entryPerimeter=0;exitX=0.008;exitY=0.252;exitDx=0;exitDy=0;exitPerimeter=0;" parent="1" edge="1">
          <mxGeometry relative="1" as="geometry">
            <mxPoint x="2225.89" y="1065.45" as="targetPoint" />
            <mxPoint x="2225.95" y="1085.25" as="sourcePoint" />
          </mxGeometry>
        </mxCell>
        <mxCell id="ecnfo4OH-dt6vmVNhMm7-466" style="edgeStyle=orthogonalEdgeStyle;rounded=0;orthogonalLoop=1;jettySize=auto;html=1;entryX=0.209;entryY=0.252;entryDx=0;entryDy=0;entryPerimeter=0;exitX=0.056;exitY=0.25;exitDx=0;exitDy=0;exitPerimeter=0;" parent="1" edge="1">
          <mxGeometry relative="1" as="geometry">
            <mxPoint x="2388.4500000000003" y="1066.1499999999996" as="targetPoint" />
            <mxPoint x="2388.33" y="1082.45" as="sourcePoint" />
          </mxGeometry>
        </mxCell>
        <mxCell id="ecnfo4OH-dt6vmVNhMm7-467" style="edgeStyle=orthogonalEdgeStyle;rounded=0;orthogonalLoop=1;jettySize=auto;html=1;entryX=0.207;entryY=0.248;entryDx=0;entryDy=0;entryPerimeter=0;exitX=0.019;exitY=0.251;exitDx=0;exitDy=0;exitPerimeter=0;" parent="1" edge="1">
          <mxGeometry relative="1" as="geometry">
            <mxPoint x="2550.71" y="1065.3500000000004" as="targetPoint" />
            <mxPoint x="2550.89" y="1084.15" as="sourcePoint" />
          </mxGeometry>
        </mxCell>
        <mxCell id="ecnfo4OH-dt6vmVNhMm7-468" value="" style="endArrow=none;html=1;rounded=0;" parent="1" edge="1">
          <mxGeometry width="50" height="50" relative="1" as="geometry">
            <mxPoint x="1443" y="1192.75" as="sourcePoint" />
            <mxPoint x="2581.7776150173613" y="1193" as="targetPoint" />
          </mxGeometry>
        </mxCell>
        <mxCell id="ecnfo4OH-dt6vmVNhMm7-469" value="" style="endArrow=none;html=1;rounded=0;" parent="1" edge="1">
          <mxGeometry width="50" height="50" relative="1" as="geometry">
            <mxPoint x="2010" y="1254" as="sourcePoint" />
            <mxPoint x="2010" y="1192.75" as="targetPoint" />
          </mxGeometry>
        </mxCell>
        <mxCell id="ecnfo4OH-dt6vmVNhMm7-470" value="Segment Select Decoder" style="rounded=0;whiteSpace=wrap;html=1;" parent="1" vertex="1">
          <mxGeometry x="1038" y="1184.05" width="110" height="138.54" as="geometry" />
        </mxCell>
        <mxCell id="ecnfo4OH-dt6vmVNhMm7-471" value="" style="endArrow=none;html=1;rounded=0;" parent="1" edge="1">
          <mxGeometry width="50" height="50" relative="1" as="geometry">
            <mxPoint x="1148.3448949353449" y="1254" as="sourcePoint" />
            <mxPoint x="2010" y="1254" as="targetPoint" />
          </mxGeometry>
        </mxCell>
        <mxCell id="ecnfo4OH-dt6vmVNhMm7-474" style="edgeStyle=orthogonalEdgeStyle;rounded=0;orthogonalLoop=1;jettySize=auto;html=1;exitX=0.5;exitY=0;exitDx=0;exitDy=0;" parent="1" edge="1">
          <mxGeometry relative="1" as="geometry">
            <mxPoint x="953" y="1257.6758823529412" as="targetPoint" />
            <mxPoint x="802" y="1257.97" as="sourcePoint" />
          </mxGeometry>
        </mxCell>
        <mxCell id="ecnfo4OH-dt6vmVNhMm7-475" value="sel" style="text;html=1;align=center;verticalAlign=middle;resizable=0;points=[];autosize=1;strokeColor=none;fillColor=none;" parent="1" vertex="1">
          <mxGeometry x="770" y="1242.25" width="40" height="30" as="geometry" />
        </mxCell>
        <mxCell id="ecnfo4OH-dt6vmVNhMm7-479" value="" style="endArrow=none;html=1;rounded=0;" parent="1" edge="1">
          <mxGeometry width="50" height="50" relative="1" as="geometry">
            <mxPoint x="950" y="796.72" as="sourcePoint" />
            <mxPoint x="970" y="776.72" as="targetPoint" />
            <Array as="points">
              <mxPoint x="960" y="786.47" />
            </Array>
          </mxGeometry>
        </mxCell>
        <mxCell id="ecnfo4OH-dt6vmVNhMm7-480" value="4" style="text;html=1;align=center;verticalAlign=middle;resizable=0;points=[];autosize=1;strokeColor=none;fillColor=none;" parent="1" vertex="1">
          <mxGeometry x="940" y="759.19" width="30" height="30" as="geometry" />
        </mxCell>
        <mxCell id="ecnfo4OH-dt6vmVNhMm7-483" value="" style="endArrow=none;html=1;rounded=0;" parent="1" edge="1">
          <mxGeometry width="50" height="50" relative="1" as="geometry">
            <mxPoint x="865" y="1267.79" as="sourcePoint" />
            <mxPoint x="885" y="1247.79" as="targetPoint" />
            <Array as="points">
              <mxPoint x="875" y="1257.54" />
            </Array>
          </mxGeometry>
        </mxCell>
        <mxCell id="ecnfo4OH-dt6vmVNhMm7-484" value="3" style="text;html=1;align=center;verticalAlign=middle;resizable=0;points=[];autosize=1;strokeColor=none;fillColor=none;" parent="1" vertex="1">
          <mxGeometry x="855" y="1231.26" width="30" height="30" as="geometry" />
        </mxCell>
        <mxCell id="ecnfo4OH-dt6vmVNhMm7-485" value="" style="endArrow=none;html=1;rounded=0;" parent="1" edge="1">
          <mxGeometry width="50" height="50" relative="1" as="geometry">
            <mxPoint x="1190" y="1263.77" as="sourcePoint" />
            <mxPoint x="1210" y="1243.77" as="targetPoint" />
          </mxGeometry>
        </mxCell>
        <mxCell id="ecnfo4OH-dt6vmVNhMm7-486" value="8" style="text;html=1;align=center;verticalAlign=middle;resizable=0;points=[];autosize=1;strokeColor=none;fillColor=none;" parent="1" vertex="1">
          <mxGeometry x="1180" y="1226.24" width="30" height="30" as="geometry" />
        </mxCell>
        <mxCell id="ecnfo4OH-dt6vmVNhMm7-487" value="" style="endArrow=none;html=1;rounded=0;" parent="1" edge="1">
          <mxGeometry width="50" height="50" relative="1" as="geometry">
            <mxPoint x="1447" y="1434" as="sourcePoint" />
            <mxPoint x="2591" y="1434" as="targetPoint" />
          </mxGeometry>
        </mxCell>
        <mxCell id="ecnfo4OH-dt6vmVNhMm7-493" style="edgeStyle=orthogonalEdgeStyle;rounded=0;orthogonalLoop=1;jettySize=auto;html=1;exitX=0;exitY=0.5;exitDx=0;exitDy=0;exitPerimeter=0;endArrow=none;startFill=0;" parent="1" source="ecnfo4OH-dt6vmVNhMm7-489" edge="1">
          <mxGeometry relative="1" as="geometry">
            <mxPoint x="2010.082191780822" y="1254" as="targetPoint" />
          </mxGeometry>
        </mxCell>
        <mxCell id="ecnfo4OH-dt6vmVNhMm7-494" style="edgeStyle=orthogonalEdgeStyle;rounded=0;orthogonalLoop=1;jettySize=auto;html=1;exitX=1;exitY=0.5;exitDx=0;exitDy=0;exitPerimeter=0;endArrow=none;startFill=0;" parent="1" source="ecnfo4OH-dt6vmVNhMm7-489" edge="1">
          <mxGeometry relative="1" as="geometry">
            <mxPoint x="2010" y="1434" as="targetPoint" />
          </mxGeometry>
        </mxCell>
        <mxCell id="ecnfo4OH-dt6vmVNhMm7-489" value="" style="verticalLabelPosition=bottom;shadow=0;dashed=0;align=center;html=1;verticalAlign=top;shape=mxgraph.electrical.logic_gates.inverter_2;rotation=90;" parent="1" vertex="1">
          <mxGeometry x="1960" y="1323.25" width="100" height="60" as="geometry" />
        </mxCell>
        <mxCell id="ecnfo4OH-dt6vmVNhMm7-495" value="" style="endArrow=oval;html=1;rounded=0;endFill=1;" parent="1" edge="1">
          <mxGeometry width="50" height="50" relative="1" as="geometry">
            <mxPoint x="1980.52" y="1254.0500000000002" as="sourcePoint" />
            <mxPoint x="2010.52" y="1254.0500000000002" as="targetPoint" />
          </mxGeometry>
        </mxCell>
        <mxCell id="ecnfo4OH-dt6vmVNhMm7-504" style="edgeStyle=orthogonalEdgeStyle;rounded=0;orthogonalLoop=1;jettySize=auto;html=1;exitX=0;exitY=0.25;exitDx=0;exitDy=0;exitPerimeter=0;entryX=0;entryY=0.25;entryDx=0;entryDy=0;entryPerimeter=0;" parent="1" target="ecnfo4OH-dt6vmVNhMm7-496" edge="1">
          <mxGeometry relative="1" as="geometry">
            <mxPoint x="1445.8461538461538" y="1434" as="sourcePoint" />
          </mxGeometry>
        </mxCell>
        <mxCell id="ecnfo4OH-dt6vmVNhMm7-512" value="sel_en_7" style="edgeLabel;html=1;align=center;verticalAlign=middle;resizable=0;points=[];" parent="ecnfo4OH-dt6vmVNhMm7-504" vertex="1" connectable="0">
          <mxGeometry x="-0.0625" y="1" relative="1" as="geometry">
            <mxPoint x="28" as="offset" />
          </mxGeometry>
        </mxCell>
        <mxCell id="ecnfo4OH-dt6vmVNhMm7-520" style="edgeStyle=orthogonalEdgeStyle;rounded=0;orthogonalLoop=1;jettySize=auto;html=1;exitX=0;exitY=0.75;exitDx=0;exitDy=0;exitPerimeter=0;entryX=0;entryY=0.75;entryDx=0;entryDy=0;entryPerimeter=0;" parent="1" edge="1">
          <mxGeometry relative="1" as="geometry">
            <mxPoint x="1413.83" y="1514" as="targetPoint" />
            <mxPoint x="1413.7894736842109" y="1104" as="sourcePoint" />
          </mxGeometry>
        </mxCell>
        <mxCell id="ecnfo4OH-dt6vmVNhMm7-536" style="edgeStyle=orthogonalEdgeStyle;rounded=0;orthogonalLoop=1;jettySize=auto;html=1;exitX=1;exitY=0.5;exitDx=0;exitDy=0;exitPerimeter=0;entryX=0;entryY=0.5;entryDx=0;entryDy=0;" parent="1" source="ecnfo4OH-dt6vmVNhMm7-496" target="ecnfo4OH-dt6vmVNhMm7-296" edge="1">
          <mxGeometry relative="1" as="geometry">
            <Array as="points">
              <mxPoint x="1428" y="1724" />
              <mxPoint x="300" y="1724" />
              <mxPoint x="300" y="1283" />
            </Array>
          </mxGeometry>
        </mxCell>
        <mxCell id="ecnfo4OH-dt6vmVNhMm7-496" value="" style="shape=or;whiteSpace=wrap;html=1;rotation=90;" parent="1" vertex="1">
          <mxGeometry x="1403.33" y="1504" width="50" height="70" as="geometry" />
        </mxCell>
        <mxCell id="ecnfo4OH-dt6vmVNhMm7-505" style="edgeStyle=orthogonalEdgeStyle;rounded=0;orthogonalLoop=1;jettySize=auto;html=1;exitX=0;exitY=0.25;exitDx=0;exitDy=0;exitPerimeter=0;entryX=0;entryY=0.25;entryDx=0;entryDy=0;entryPerimeter=0;" parent="1" target="ecnfo4OH-dt6vmVNhMm7-497" edge="1">
          <mxGeometry relative="1" as="geometry">
            <mxPoint x="1608.2790697674418" y="1434" as="sourcePoint" />
          </mxGeometry>
        </mxCell>
        <mxCell id="ecnfo4OH-dt6vmVNhMm7-513" value="sel_en_6" style="edgeLabel;html=1;align=center;verticalAlign=middle;resizable=0;points=[];" parent="ecnfo4OH-dt6vmVNhMm7-505" vertex="1" connectable="0">
          <mxGeometry x="-0.0235" y="-1" relative="1" as="geometry">
            <mxPoint x="28" as="offset" />
          </mxGeometry>
        </mxCell>
        <mxCell id="ecnfo4OH-dt6vmVNhMm7-521" style="edgeStyle=orthogonalEdgeStyle;rounded=0;orthogonalLoop=1;jettySize=auto;html=1;exitX=0;exitY=0.75;exitDx=0;exitDy=0;exitPerimeter=0;" parent="1" edge="1">
          <mxGeometry relative="1" as="geometry">
            <mxPoint x="1576.33" y="1514" as="targetPoint" />
            <mxPoint x="1575.8947368421054" y="1104" as="sourcePoint" />
          </mxGeometry>
        </mxCell>
        <mxCell id="ecnfo4OH-dt6vmVNhMm7-535" style="edgeStyle=orthogonalEdgeStyle;rounded=0;orthogonalLoop=1;jettySize=auto;html=1;exitX=1;exitY=0.5;exitDx=0;exitDy=0;exitPerimeter=0;entryX=0;entryY=0.5;entryDx=0;entryDy=0;" parent="1" source="ecnfo4OH-dt6vmVNhMm7-497" target="ecnfo4OH-dt6vmVNhMm7-285" edge="1">
          <mxGeometry relative="1" as="geometry">
            <Array as="points">
              <mxPoint x="1591" y="1704" />
              <mxPoint x="320" y="1704" />
              <mxPoint x="320" y="1138" />
            </Array>
          </mxGeometry>
        </mxCell>
        <mxCell id="ecnfo4OH-dt6vmVNhMm7-497" value="" style="shape=or;whiteSpace=wrap;html=1;rotation=90;" parent="1" vertex="1">
          <mxGeometry x="1565.83" y="1504" width="50" height="70" as="geometry" />
        </mxCell>
        <mxCell id="ecnfo4OH-dt6vmVNhMm7-506" style="edgeStyle=orthogonalEdgeStyle;rounded=0;orthogonalLoop=1;jettySize=auto;html=1;exitX=0;exitY=0.25;exitDx=0;exitDy=0;exitPerimeter=0;entryX=0;entryY=0.25;entryDx=0;entryDy=0;entryPerimeter=0;" parent="1" target="ecnfo4OH-dt6vmVNhMm7-498" edge="1">
          <mxGeometry relative="1" as="geometry">
            <mxPoint x="1770.604651162791" y="1434" as="sourcePoint" />
          </mxGeometry>
        </mxCell>
        <mxCell id="ecnfo4OH-dt6vmVNhMm7-514" value="sel_en_5" style="edgeLabel;html=1;align=center;verticalAlign=middle;resizable=0;points=[];" parent="ecnfo4OH-dt6vmVNhMm7-506" vertex="1" connectable="0">
          <mxGeometry x="-0.0915" y="1" relative="1" as="geometry">
            <mxPoint x="28" as="offset" />
          </mxGeometry>
        </mxCell>
        <mxCell id="ecnfo4OH-dt6vmVNhMm7-522" style="edgeStyle=orthogonalEdgeStyle;rounded=0;orthogonalLoop=1;jettySize=auto;html=1;exitX=0;exitY=0.75;exitDx=0;exitDy=0;exitPerimeter=0;entryX=0;entryY=0.75;entryDx=0;entryDy=0;entryPerimeter=0;" parent="1" edge="1">
          <mxGeometry relative="1" as="geometry">
            <mxPoint x="1737.83" y="1514" as="targetPoint" />
            <mxPoint x="1738.0526315789475" y="1104" as="sourcePoint" />
          </mxGeometry>
        </mxCell>
        <mxCell id="ecnfo4OH-dt6vmVNhMm7-534" style="edgeStyle=orthogonalEdgeStyle;rounded=0;orthogonalLoop=1;jettySize=auto;html=1;exitX=1;exitY=0.5;exitDx=0;exitDy=0;exitPerimeter=0;entryX=0;entryY=0.5;entryDx=0;entryDy=0;" parent="1" source="ecnfo4OH-dt6vmVNhMm7-498" target="ecnfo4OH-dt6vmVNhMm7-274" edge="1">
          <mxGeometry relative="1" as="geometry">
            <Array as="points">
              <mxPoint x="1753" y="1684" />
              <mxPoint x="340" y="1684" />
              <mxPoint x="340" y="993" />
            </Array>
          </mxGeometry>
        </mxCell>
        <mxCell id="ecnfo4OH-dt6vmVNhMm7-498" value="" style="shape=or;whiteSpace=wrap;html=1;rotation=90;" parent="1" vertex="1">
          <mxGeometry x="1728.33" y="1504" width="50" height="70" as="geometry" />
        </mxCell>
        <mxCell id="ecnfo4OH-dt6vmVNhMm7-507" style="edgeStyle=orthogonalEdgeStyle;rounded=0;orthogonalLoop=1;jettySize=auto;html=1;exitX=0;exitY=0.25;exitDx=0;exitDy=0;exitPerimeter=0;entryX=0;entryY=0.25;entryDx=0;entryDy=0;entryPerimeter=0;" parent="1" target="ecnfo4OH-dt6vmVNhMm7-499" edge="1">
          <mxGeometry relative="1" as="geometry">
            <mxPoint x="1933.3953488372094" y="1434" as="sourcePoint" />
          </mxGeometry>
        </mxCell>
        <mxCell id="ecnfo4OH-dt6vmVNhMm7-515" value="sel_en_4" style="edgeLabel;html=1;align=center;verticalAlign=middle;resizable=0;points=[];" parent="ecnfo4OH-dt6vmVNhMm7-507" vertex="1" connectable="0">
          <mxGeometry x="-0.1424" relative="1" as="geometry">
            <mxPoint x="28" as="offset" />
          </mxGeometry>
        </mxCell>
        <mxCell id="ecnfo4OH-dt6vmVNhMm7-524" style="edgeStyle=orthogonalEdgeStyle;rounded=0;orthogonalLoop=1;jettySize=auto;html=1;exitX=0;exitY=0.75;exitDx=0;exitDy=0;exitPerimeter=0;entryX=0;entryY=0.75;entryDx=0;entryDy=0;entryPerimeter=0;" parent="1" edge="1">
          <mxGeometry relative="1" as="geometry">
            <mxPoint x="1901.33" y="1514" as="targetPoint" />
            <mxPoint x="1901" y="1104" as="sourcePoint" />
          </mxGeometry>
        </mxCell>
        <mxCell id="ecnfo4OH-dt6vmVNhMm7-533" style="edgeStyle=orthogonalEdgeStyle;rounded=0;orthogonalLoop=1;jettySize=auto;html=1;exitX=1;exitY=0.5;exitDx=0;exitDy=0;exitPerimeter=0;entryX=0;entryY=0.5;entryDx=0;entryDy=0;" parent="1" source="ecnfo4OH-dt6vmVNhMm7-499" target="ecnfo4OH-dt6vmVNhMm7-252" edge="1">
          <mxGeometry relative="1" as="geometry">
            <Array as="points">
              <mxPoint x="1916" y="1664" />
              <mxPoint x="360" y="1664" />
              <mxPoint x="360" y="848" />
            </Array>
          </mxGeometry>
        </mxCell>
        <mxCell id="ecnfo4OH-dt6vmVNhMm7-499" value="" style="shape=or;whiteSpace=wrap;html=1;rotation=90;" parent="1" vertex="1">
          <mxGeometry x="1890.83" y="1504" width="50" height="70" as="geometry" />
        </mxCell>
        <mxCell id="ecnfo4OH-dt6vmVNhMm7-508" style="edgeStyle=orthogonalEdgeStyle;rounded=0;orthogonalLoop=1;jettySize=auto;html=1;exitX=0;exitY=0.25;exitDx=0;exitDy=0;exitPerimeter=0;entryX=0;entryY=0.25;entryDx=0;entryDy=0;entryPerimeter=0;" parent="1" target="ecnfo4OH-dt6vmVNhMm7-500" edge="1">
          <mxGeometry relative="1" as="geometry">
            <mxPoint x="2095.720930232558" y="1434" as="sourcePoint" />
          </mxGeometry>
        </mxCell>
        <mxCell id="ecnfo4OH-dt6vmVNhMm7-516" value="sel_en_3" style="edgeLabel;html=1;align=center;verticalAlign=middle;resizable=0;points=[];" parent="ecnfo4OH-dt6vmVNhMm7-508" vertex="1" connectable="0">
          <mxGeometry x="-0.1173" y="-2" relative="1" as="geometry">
            <mxPoint x="28" as="offset" />
          </mxGeometry>
        </mxCell>
        <mxCell id="ecnfo4OH-dt6vmVNhMm7-525" style="edgeStyle=orthogonalEdgeStyle;rounded=0;orthogonalLoop=1;jettySize=auto;html=1;exitX=0;exitY=0.75;exitDx=0;exitDy=0;exitPerimeter=0;entryX=0;entryY=0.75;entryDx=0;entryDy=0;entryPerimeter=0;" parent="1" edge="1">
          <mxGeometry relative="1" as="geometry">
            <mxPoint x="2062.83" y="1514" as="targetPoint" />
            <mxPoint x="2063" y="1104" as="sourcePoint" />
          </mxGeometry>
        </mxCell>
        <mxCell id="ecnfo4OH-dt6vmVNhMm7-532" style="edgeStyle=orthogonalEdgeStyle;rounded=0;orthogonalLoop=1;jettySize=auto;html=1;exitX=1;exitY=0.5;exitDx=0;exitDy=0;exitPerimeter=0;entryX=0;entryY=0.5;entryDx=0;entryDy=0;" parent="1" source="ecnfo4OH-dt6vmVNhMm7-500" target="ecnfo4OH-dt6vmVNhMm7-241" edge="1">
          <mxGeometry relative="1" as="geometry">
            <Array as="points">
              <mxPoint x="2078" y="1644" />
              <mxPoint x="380" y="1644" />
              <mxPoint x="380" y="703" />
            </Array>
          </mxGeometry>
        </mxCell>
        <mxCell id="ecnfo4OH-dt6vmVNhMm7-500" value="" style="shape=or;whiteSpace=wrap;html=1;rotation=90;" parent="1" vertex="1">
          <mxGeometry x="2053.33" y="1504" width="50" height="70" as="geometry" />
        </mxCell>
        <mxCell id="ecnfo4OH-dt6vmVNhMm7-509" style="edgeStyle=orthogonalEdgeStyle;rounded=0;orthogonalLoop=1;jettySize=auto;html=1;exitX=0;exitY=0.25;exitDx=0;exitDy=0;exitPerimeter=0;entryX=0;entryY=0.25;entryDx=0;entryDy=0;entryPerimeter=0;" parent="1" target="ecnfo4OH-dt6vmVNhMm7-501" edge="1">
          <mxGeometry relative="1" as="geometry">
            <mxPoint x="2258.511627906977" y="1434" as="sourcePoint" />
          </mxGeometry>
        </mxCell>
        <mxCell id="ecnfo4OH-dt6vmVNhMm7-517" value="sel_en_2" style="edgeLabel;html=1;align=center;verticalAlign=middle;resizable=0;points=[];" parent="ecnfo4OH-dt6vmVNhMm7-509" vertex="1" connectable="0">
          <mxGeometry x="-0.1202" y="-1" relative="1" as="geometry">
            <mxPoint x="28" as="offset" />
          </mxGeometry>
        </mxCell>
        <mxCell id="ecnfo4OH-dt6vmVNhMm7-526" style="edgeStyle=orthogonalEdgeStyle;rounded=0;orthogonalLoop=1;jettySize=auto;html=1;exitX=0;exitY=0.75;exitDx=0;exitDy=0;exitPerimeter=0;entryX=0;entryY=0.75;entryDx=0;entryDy=0;entryPerimeter=0;" parent="1" edge="1">
          <mxGeometry relative="1" as="geometry">
            <mxPoint x="2226.33" y="1514" as="targetPoint" />
            <mxPoint x="2226" y="1104" as="sourcePoint" />
          </mxGeometry>
        </mxCell>
        <mxCell id="ecnfo4OH-dt6vmVNhMm7-531" style="edgeStyle=orthogonalEdgeStyle;rounded=0;orthogonalLoop=1;jettySize=auto;html=1;exitX=1;exitY=0.5;exitDx=0;exitDy=0;exitPerimeter=0;entryX=0;entryY=0.5;entryDx=0;entryDy=0;" parent="1" source="ecnfo4OH-dt6vmVNhMm7-501" target="ecnfo4OH-dt6vmVNhMm7-230" edge="1">
          <mxGeometry relative="1" as="geometry">
            <mxPoint x="390" y="485.5999755859375" as="targetPoint" />
            <Array as="points">
              <mxPoint x="2241" y="1624" />
              <mxPoint x="400" y="1624" />
              <mxPoint x="400" y="558" />
            </Array>
          </mxGeometry>
        </mxCell>
        <mxCell id="ecnfo4OH-dt6vmVNhMm7-501" value="" style="shape=or;whiteSpace=wrap;html=1;rotation=90;" parent="1" vertex="1">
          <mxGeometry x="2215.83" y="1504" width="50" height="70" as="geometry" />
        </mxCell>
        <mxCell id="ecnfo4OH-dt6vmVNhMm7-510" style="edgeStyle=orthogonalEdgeStyle;rounded=0;orthogonalLoop=1;jettySize=auto;html=1;exitX=0;exitY=0.25;exitDx=0;exitDy=0;exitPerimeter=0;entryX=0;entryY=0.25;entryDx=0;entryDy=0;entryPerimeter=0;" parent="1" target="ecnfo4OH-dt6vmVNhMm7-502" edge="1">
          <mxGeometry relative="1" as="geometry">
            <mxPoint x="2420.837209302326" y="1434" as="sourcePoint" />
          </mxGeometry>
        </mxCell>
        <mxCell id="ecnfo4OH-dt6vmVNhMm7-518" value="sel_en_1" style="edgeLabel;html=1;align=center;verticalAlign=middle;resizable=0;points=[];" parent="ecnfo4OH-dt6vmVNhMm7-510" vertex="1" connectable="0">
          <mxGeometry x="-0.0864" y="-2" relative="1" as="geometry">
            <mxPoint x="28" as="offset" />
          </mxGeometry>
        </mxCell>
        <mxCell id="ecnfo4OH-dt6vmVNhMm7-527" style="edgeStyle=orthogonalEdgeStyle;rounded=0;orthogonalLoop=1;jettySize=auto;html=1;exitX=0;exitY=0.75;exitDx=0;exitDy=0;exitPerimeter=0;entryX=0;entryY=0.75;entryDx=0;entryDy=0;entryPerimeter=0;" parent="1" edge="1">
          <mxGeometry relative="1" as="geometry">
            <mxPoint x="2388.83" y="1514" as="targetPoint" />
            <mxPoint x="2389" y="1104" as="sourcePoint" />
          </mxGeometry>
        </mxCell>
        <mxCell id="ecnfo4OH-dt6vmVNhMm7-530" style="edgeStyle=orthogonalEdgeStyle;rounded=0;orthogonalLoop=1;jettySize=auto;html=1;exitX=1;exitY=0.5;exitDx=0;exitDy=0;exitPerimeter=0;entryX=0;entryY=0.5;entryDx=0;entryDy=0;" parent="1" source="ecnfo4OH-dt6vmVNhMm7-502" target="ecnfo4OH-dt6vmVNhMm7-219" edge="1">
          <mxGeometry relative="1" as="geometry">
            <Array as="points">
              <mxPoint x="2403" y="1604" />
              <mxPoint x="420" y="1604" />
              <mxPoint x="420" y="413" />
            </Array>
          </mxGeometry>
        </mxCell>
        <mxCell id="ecnfo4OH-dt6vmVNhMm7-502" value="" style="shape=or;whiteSpace=wrap;html=1;rotation=90;" parent="1" vertex="1">
          <mxGeometry x="2378.33" y="1504" width="50" height="70" as="geometry" />
        </mxCell>
        <mxCell id="ecnfo4OH-dt6vmVNhMm7-511" style="edgeStyle=orthogonalEdgeStyle;rounded=0;orthogonalLoop=1;jettySize=auto;html=1;exitX=0;exitY=0.25;exitDx=0;exitDy=0;exitPerimeter=0;entryX=0;entryY=0.25;entryDx=0;entryDy=0;entryPerimeter=0;" parent="1" target="ecnfo4OH-dt6vmVNhMm7-503" edge="1">
          <mxGeometry relative="1" as="geometry">
            <mxPoint x="2591.1627906976746" y="1434" as="sourcePoint" />
          </mxGeometry>
        </mxCell>
        <mxCell id="ecnfo4OH-dt6vmVNhMm7-519" value="sel_en_0" style="edgeLabel;html=1;align=center;verticalAlign=middle;resizable=0;points=[];" parent="ecnfo4OH-dt6vmVNhMm7-511" vertex="1" connectable="0">
          <mxGeometry x="-0.0086" relative="1" as="geometry">
            <mxPoint x="28" as="offset" />
          </mxGeometry>
        </mxCell>
        <mxCell id="ecnfo4OH-dt6vmVNhMm7-528" style="edgeStyle=orthogonalEdgeStyle;rounded=0;orthogonalLoop=1;jettySize=auto;html=1;exitX=0;exitY=0.75;exitDx=0;exitDy=0;exitPerimeter=0;entryX=0;entryY=0.75;entryDx=0;entryDy=0;entryPerimeter=0;" parent="1" edge="1">
          <mxGeometry relative="1" as="geometry">
            <mxPoint x="2549.83" y="1514.5" as="targetPoint" />
            <mxPoint x="2550" y="1104" as="sourcePoint" />
          </mxGeometry>
        </mxCell>
        <mxCell id="ecnfo4OH-dt6vmVNhMm7-529" style="edgeStyle=orthogonalEdgeStyle;rounded=0;orthogonalLoop=1;jettySize=auto;html=1;exitX=1;exitY=0.5;exitDx=0;exitDy=0;exitPerimeter=0;entryX=-0.006;entryY=0.546;entryDx=0;entryDy=0;entryPerimeter=0;" parent="1" source="ecnfo4OH-dt6vmVNhMm7-503" target="ecnfo4OH-dt6vmVNhMm7-204" edge="1">
          <mxGeometry relative="1" as="geometry" />
        </mxCell>
        <mxCell id="ecnfo4OH-dt6vmVNhMm7-503" value="" style="shape=or;whiteSpace=wrap;html=1;rotation=90;" parent="1" vertex="1">
          <mxGeometry x="2549.83" y="1504" width="50" height="70" as="geometry" />
        </mxCell>
        <mxCell id="0WWqZJ1e9FoO65VM5oEF-2" value="" style="endArrow=oval;html=1;rounded=0;endFill=1;" parent="1" edge="1">
          <mxGeometry width="50" height="50" relative="1" as="geometry">
            <mxPoint x="1354" y="1107.1100000000001" as="sourcePoint" />
            <mxPoint x="1414" y="1107.1100000000001" as="targetPoint" />
          </mxGeometry>
        </mxCell>
        <mxCell id="0WWqZJ1e9FoO65VM5oEF-56" value="" style="group" parent="1" vertex="1" connectable="0">
          <mxGeometry x="79.33" y="-406" width="936.67" height="530" as="geometry" />
        </mxCell>
        <mxCell id="0WWqZJ1e9FoO65VM5oEF-4" value="" style="rounded=0;whiteSpace=wrap;html=1;container=0;" parent="0WWqZJ1e9FoO65VM5oEF-56" vertex="1">
          <mxGeometry x="320.0033333333334" y="390" width="83.33333333333333" height="108.74999999999999" as="geometry" />
        </mxCell>
        <mxCell id="0WWqZJ1e9FoO65VM5oEF-5" value="" style="triangle;whiteSpace=wrap;html=1;container=0;" parent="0WWqZJ1e9FoO65VM5oEF-56" vertex="1">
          <mxGeometry x="320.0033333333334" y="460" width="16.666666666666668" height="21.749999999999996" as="geometry" />
        </mxCell>
        <mxCell id="0WWqZJ1e9FoO65VM5oEF-6" value="D_1" style="text;html=1;align=center;verticalAlign=middle;resizable=0;points=[];autosize=1;strokeColor=none;fillColor=none;" parent="0WWqZJ1e9FoO65VM5oEF-56" vertex="1">
          <mxGeometry x="310.3400000000001" y="396" width="50" height="30" as="geometry" />
        </mxCell>
        <mxCell id="0WWqZJ1e9FoO65VM5oEF-7" value="Q_1" style="text;html=1;align=center;verticalAlign=middle;resizable=0;points=[];autosize=1;strokeColor=none;fillColor=none;" parent="0WWqZJ1e9FoO65VM5oEF-56" vertex="1">
          <mxGeometry x="361.67" y="396" width="50" height="30" as="geometry" />
        </mxCell>
        <mxCell id="0WWqZJ1e9FoO65VM5oEF-15" style="edgeStyle=orthogonalEdgeStyle;rounded=0;orthogonalLoop=1;jettySize=auto;html=1;exitX=1;exitY=0.5;exitDx=0;exitDy=0;exitPerimeter=0;entryX=0.159;entryY=0.998;entryDx=0;entryDy=0;entryPerimeter=0;" parent="0WWqZJ1e9FoO65VM5oEF-56" source="0WWqZJ1e9FoO65VM5oEF-8" target="0WWqZJ1e9FoO65VM5oEF-9" edge="1">
          <mxGeometry relative="1" as="geometry">
            <mxPoint x="211.67000000000002" y="385.75" as="targetPoint" />
          </mxGeometry>
        </mxCell>
        <mxCell id="0WWqZJ1e9FoO65VM5oEF-8" value="" style="verticalLabelPosition=bottom;shadow=0;dashed=0;align=center;html=1;verticalAlign=top;shape=mxgraph.electrical.abstract.summation_point;" parent="0WWqZJ1e9FoO65VM5oEF-56" vertex="1">
          <mxGeometry x="81.67" y="361" width="50" height="50" as="geometry" />
        </mxCell>
        <mxCell id="0WWqZJ1e9FoO65VM5oEF-22" style="edgeStyle=orthogonalEdgeStyle;rounded=0;orthogonalLoop=1;jettySize=auto;html=1;exitX=1;exitY=0.5;exitDx=0;exitDy=0;entryX=1;entryY=0.5;entryDx=0;entryDy=0;" parent="0WWqZJ1e9FoO65VM5oEF-56" target="0WWqZJ1e9FoO65VM5oEF-9" edge="1">
          <mxGeometry relative="1" as="geometry">
            <mxPoint x="201.67000000000002" y="474" as="targetPoint" />
            <mxPoint x="582.17" y="390" as="sourcePoint" />
            <Array as="points">
              <mxPoint x="582.67" y="180" />
              <mxPoint x="0.6700000000000017" y="180" />
              <mxPoint x="0.6700000000000017" y="530" />
              <mxPoint x="241.67000000000002" y="530" />
            </Array>
          </mxGeometry>
        </mxCell>
        <mxCell id="0WWqZJ1e9FoO65VM5oEF-9" value="" style="shape=trapezoid;perimeter=trapezoidPerimeter;whiteSpace=wrap;html=1;fixedSize=1;rotation=90;size=25;" parent="0WWqZJ1e9FoO65VM5oEF-56" vertex="1">
          <mxGeometry x="181.67000000000002" y="411" width="120" height="30" as="geometry" />
        </mxCell>
        <mxCell id="0WWqZJ1e9FoO65VM5oEF-10" value="0" style="text;html=1;align=center;verticalAlign=middle;resizable=0;points=[];autosize=1;strokeColor=none;fillColor=none;" parent="0WWqZJ1e9FoO65VM5oEF-56" vertex="1">
          <mxGeometry x="221.67000000000002" y="371" width="30" height="30" as="geometry" />
        </mxCell>
        <mxCell id="0WWqZJ1e9FoO65VM5oEF-11" value="1" style="text;html=1;align=center;verticalAlign=middle;resizable=0;points=[];autosize=1;strokeColor=none;fillColor=none;" parent="0WWqZJ1e9FoO65VM5oEF-56" vertex="1">
          <mxGeometry x="221.67000000000002" y="445" width="30" height="30" as="geometry" />
        </mxCell>
        <mxCell id="0WWqZJ1e9FoO65VM5oEF-12" value="" style="endArrow=classic;html=1;rounded=0;" parent="0WWqZJ1e9FoO65VM5oEF-56" edge="1">
          <mxGeometry width="50" height="50" relative="1" as="geometry">
            <mxPoint x="31.67" y="385" as="sourcePoint" />
            <mxPoint x="81.67" y="385.44" as="targetPoint" />
          </mxGeometry>
        </mxCell>
        <mxCell id="0WWqZJ1e9FoO65VM5oEF-13" value="19&#39;d1" style="text;html=1;align=center;verticalAlign=middle;resizable=0;points=[];autosize=1;strokeColor=none;fillColor=none;" parent="0WWqZJ1e9FoO65VM5oEF-56" vertex="1">
          <mxGeometry x="-9.329999999999998" y="370" width="50" height="30" as="geometry" />
        </mxCell>
        <mxCell id="0WWqZJ1e9FoO65VM5oEF-14" style="edgeStyle=orthogonalEdgeStyle;rounded=0;orthogonalLoop=1;jettySize=auto;html=1;exitX=1;exitY=0.25;exitDx=0;exitDy=0;entryX=0.5;entryY=0;entryDx=0;entryDy=0;entryPerimeter=0;" parent="0WWqZJ1e9FoO65VM5oEF-56" source="0WWqZJ1e9FoO65VM5oEF-4" target="0WWqZJ1e9FoO65VM5oEF-8" edge="1">
          <mxGeometry relative="1" as="geometry">
            <Array as="points">
              <mxPoint x="521.67" y="417" />
              <mxPoint x="521.67" y="320" />
              <mxPoint x="106.67" y="320" />
            </Array>
          </mxGeometry>
        </mxCell>
        <mxCell id="0WWqZJ1e9FoO65VM5oEF-16" value="" style="endArrow=classic;html=1;rounded=0;" parent="0WWqZJ1e9FoO65VM5oEF-56" edge="1">
          <mxGeometry width="50" height="50" relative="1" as="geometry">
            <mxPoint x="156.67000000000002" y="460" as="sourcePoint" />
            <mxPoint x="226.67000000000002" y="460" as="targetPoint" />
          </mxGeometry>
        </mxCell>
        <mxCell id="0WWqZJ1e9FoO65VM5oEF-17" value="19&#39;d0" style="text;html=1;align=center;verticalAlign=middle;resizable=0;points=[];autosize=1;strokeColor=none;fillColor=none;" parent="0WWqZJ1e9FoO65VM5oEF-56" vertex="1">
          <mxGeometry x="116.67000000000002" y="445" width="50" height="30" as="geometry" />
        </mxCell>
        <mxCell id="0WWqZJ1e9FoO65VM5oEF-21" style="edgeStyle=orthogonalEdgeStyle;rounded=0;orthogonalLoop=1;jettySize=auto;html=1;exitX=0.5;exitY=0;exitDx=0;exitDy=0;entryX=-0.004;entryY=0.188;entryDx=0;entryDy=0;entryPerimeter=0;" parent="0WWqZJ1e9FoO65VM5oEF-56" source="0WWqZJ1e9FoO65VM5oEF-9" target="0WWqZJ1e9FoO65VM5oEF-4" edge="1">
          <mxGeometry relative="1" as="geometry">
            <Array as="points">
              <mxPoint x="288.67" y="426" />
              <mxPoint x="288.67" y="410" />
              <mxPoint x="319.67" y="410" />
            </Array>
          </mxGeometry>
        </mxCell>
        <mxCell id="0WWqZJ1e9FoO65VM5oEF-48" style="edgeStyle=orthogonalEdgeStyle;rounded=0;orthogonalLoop=1;jettySize=auto;html=1;exitX=1;exitY=0.5;exitDx=0;exitDy=0;entryX=0;entryY=0.5;entryDx=0;entryDy=0;" parent="0WWqZJ1e9FoO65VM5oEF-56" source="0WWqZJ1e9FoO65VM5oEF-23" target="0WWqZJ1e9FoO65VM5oEF-43" edge="1">
          <mxGeometry relative="1" as="geometry">
            <mxPoint x="751.6700000000002" y="450" as="targetPoint" />
          </mxGeometry>
        </mxCell>
        <mxCell id="0WWqZJ1e9FoO65VM5oEF-23" value="==" style="ellipse;whiteSpace=wrap;html=1;aspect=fixed;" parent="0WWqZJ1e9FoO65VM5oEF-56" vertex="1">
          <mxGeometry x="557.67" y="390" width="51" height="51" as="geometry" />
        </mxCell>
        <mxCell id="0WWqZJ1e9FoO65VM5oEF-24" value="" style="endArrow=classic;html=1;rounded=0;" parent="0WWqZJ1e9FoO65VM5oEF-56" edge="1">
          <mxGeometry width="50" height="50" relative="1" as="geometry">
            <mxPoint x="477.67" y="417.14" as="sourcePoint" />
            <mxPoint x="557.67" y="417.14" as="targetPoint" />
          </mxGeometry>
        </mxCell>
        <mxCell id="0WWqZJ1e9FoO65VM5oEF-25" value="clear_1" style="text;html=1;align=center;verticalAlign=middle;resizable=0;points=[];autosize=1;strokeColor=none;fillColor=none;" parent="0WWqZJ1e9FoO65VM5oEF-56" vertex="1">
          <mxGeometry x="81.67" y="498.75" width="60" height="30" as="geometry" />
        </mxCell>
        <mxCell id="0WWqZJ1e9FoO65VM5oEF-27" value="19&#39;d499999" style="text;html=1;align=center;verticalAlign=middle;resizable=0;points=[];autosize=1;strokeColor=none;fillColor=none;" parent="0WWqZJ1e9FoO65VM5oEF-56" vertex="1">
          <mxGeometry x="538.17" y="440" width="90" height="30" as="geometry" />
        </mxCell>
        <mxCell id="0WWqZJ1e9FoO65VM5oEF-32" value="" style="endArrow=none;html=1;rounded=0;" parent="0WWqZJ1e9FoO65VM5oEF-56" edge="1">
          <mxGeometry width="50" height="50" relative="1" as="geometry">
            <mxPoint x="171.67000000000002" y="395" as="sourcePoint" />
            <mxPoint x="191.67000000000002" y="375" as="targetPoint" />
          </mxGeometry>
        </mxCell>
        <mxCell id="0WWqZJ1e9FoO65VM5oEF-33" value="19" style="text;html=1;align=center;verticalAlign=middle;resizable=0;points=[];autosize=1;strokeColor=none;fillColor=none;" parent="0WWqZJ1e9FoO65VM5oEF-56" vertex="1">
          <mxGeometry x="151.67000000000002" y="360" width="40" height="30" as="geometry" />
        </mxCell>
        <mxCell id="0WWqZJ1e9FoO65VM5oEF-37" value="" style="endArrow=none;html=1;rounded=0;" parent="0WWqZJ1e9FoO65VM5oEF-56" edge="1">
          <mxGeometry width="50" height="50" relative="1" as="geometry">
            <mxPoint x="261.67" y="436" as="sourcePoint" />
            <mxPoint x="281.67" y="416" as="targetPoint" />
          </mxGeometry>
        </mxCell>
        <mxCell id="0WWqZJ1e9FoO65VM5oEF-38" value="19" style="text;html=1;align=center;verticalAlign=middle;resizable=0;points=[];autosize=1;strokeColor=none;fillColor=none;" parent="0WWqZJ1e9FoO65VM5oEF-56" vertex="1">
          <mxGeometry x="251.67000000000002" y="390" width="40" height="30" as="geometry" />
        </mxCell>
        <mxCell id="0WWqZJ1e9FoO65VM5oEF-39" value="" style="endArrow=none;html=1;rounded=0;" parent="0WWqZJ1e9FoO65VM5oEF-56" edge="1">
          <mxGeometry width="50" height="50" relative="1" as="geometry">
            <mxPoint x="452.67" y="427" as="sourcePoint" />
            <mxPoint x="472.67" y="407" as="targetPoint" />
          </mxGeometry>
        </mxCell>
        <mxCell id="0WWqZJ1e9FoO65VM5oEF-40" value="19" style="text;html=1;align=center;verticalAlign=middle;resizable=0;points=[];autosize=1;strokeColor=none;fillColor=none;" parent="0WWqZJ1e9FoO65VM5oEF-56" vertex="1">
          <mxGeometry x="432.67" y="392" width="40" height="30" as="geometry" />
        </mxCell>
        <mxCell id="0WWqZJ1e9FoO65VM5oEF-41" value="" style="endArrow=oval;html=1;rounded=0;endFill=1;" parent="0WWqZJ1e9FoO65VM5oEF-56" edge="1">
          <mxGeometry width="50" height="50" relative="1" as="geometry">
            <mxPoint x="491.67" y="417" as="sourcePoint" />
            <mxPoint x="521.67" y="417" as="targetPoint" />
          </mxGeometry>
        </mxCell>
        <mxCell id="0WWqZJ1e9FoO65VM5oEF-49" style="edgeStyle=orthogonalEdgeStyle;rounded=0;orthogonalLoop=1;jettySize=auto;html=1;exitX=1;exitY=0.25;exitDx=0;exitDy=0;entryX=0;entryY=0.25;entryDx=0;entryDy=0;" parent="0WWqZJ1e9FoO65VM5oEF-56" edge="1">
          <mxGeometry relative="1" as="geometry">
            <mxPoint x="768.3333333333334" y="417.1875" as="targetPoint" />
            <mxPoint x="851.6666666666669" y="417.1875" as="sourcePoint" />
            <Array as="points">
              <mxPoint x="871.67" y="417" />
              <mxPoint x="871.67" y="328" />
              <mxPoint x="711.67" y="328" />
              <mxPoint x="711.67" y="418" />
              <mxPoint x="768.67" y="418" />
            </Array>
          </mxGeometry>
        </mxCell>
        <mxCell id="0WWqZJ1e9FoO65VM5oEF-85" style="edgeStyle=orthogonalEdgeStyle;rounded=0;orthogonalLoop=1;jettySize=auto;html=1;exitX=0.5;exitY=1;exitDx=0;exitDy=0;endArrow=oval;startFill=0;endFill=1;" parent="0WWqZJ1e9FoO65VM5oEF-56" edge="1">
          <mxGeometry relative="1" as="geometry">
            <mxPoint x="420.67" y="560" as="targetPoint" />
            <mxPoint x="809.9999999999999" y="500.75" as="sourcePoint" />
            <Array as="points">
              <mxPoint x="810" y="560" />
            </Array>
          </mxGeometry>
        </mxCell>
        <mxCell id="0WWqZJ1e9FoO65VM5oEF-43" value="" style="rounded=0;whiteSpace=wrap;html=1;container=0;" parent="0WWqZJ1e9FoO65VM5oEF-56" vertex="1">
          <mxGeometry x="768.3333333333334" y="392" width="83.33333333333333" height="108.74999999999999" as="geometry" />
        </mxCell>
        <mxCell id="0WWqZJ1e9FoO65VM5oEF-44" value="" style="triangle;whiteSpace=wrap;html=1;container=0;" parent="0WWqZJ1e9FoO65VM5oEF-56" vertex="1">
          <mxGeometry x="768.3333333333334" y="462" width="16.666666666666668" height="21.749999999999996" as="geometry" />
        </mxCell>
        <mxCell id="0WWqZJ1e9FoO65VM5oEF-45" value="D" style="text;html=1;align=center;verticalAlign=middle;resizable=0;points=[];autosize=1;strokeColor=none;fillColor=none;" parent="0WWqZJ1e9FoO65VM5oEF-56" vertex="1">
          <mxGeometry x="766.67" y="402" width="30" height="30" as="geometry" />
        </mxCell>
        <mxCell id="0WWqZJ1e9FoO65VM5oEF-46" value="Q" style="text;html=1;align=center;verticalAlign=middle;resizable=0;points=[];autosize=1;strokeColor=none;fillColor=none;" parent="0WWqZJ1e9FoO65VM5oEF-56" vertex="1">
          <mxGeometry x="821.6699999999998" y="402" width="30" height="30" as="geometry" />
        </mxCell>
        <mxCell id="0WWqZJ1e9FoO65VM5oEF-47" value="enb" style="text;html=1;align=center;verticalAlign=middle;resizable=0;points=[];autosize=1;strokeColor=none;fillColor=none;" parent="0WWqZJ1e9FoO65VM5oEF-56" vertex="1">
          <mxGeometry x="761.67" y="430" width="40" height="30" as="geometry" />
        </mxCell>
        <mxCell id="0WWqZJ1e9FoO65VM5oEF-50" value="" style="verticalLabelPosition=bottom;shadow=0;dashed=0;align=center;html=1;verticalAlign=top;shape=mxgraph.electrical.logic_gates.inverter_2" parent="0WWqZJ1e9FoO65VM5oEF-56" vertex="1">
          <mxGeometry x="720.67" y="408" width="30" height="20" as="geometry" />
        </mxCell>
        <mxCell id="0WWqZJ1e9FoO65VM5oEF-51" value="out_clock" style="text;html=1;align=center;verticalAlign=middle;resizable=0;points=[];autosize=1;strokeColor=none;fillColor=none;" parent="0WWqZJ1e9FoO65VM5oEF-56" vertex="1">
          <mxGeometry x="868.67" y="401" width="70" height="30" as="geometry" />
        </mxCell>
        <mxCell id="0WWqZJ1e9FoO65VM5oEF-54" value="100 MHz to 100 Hz&amp;nbsp; Frequency Divider" style="text;html=1;align=center;verticalAlign=middle;resizable=0;points=[];autosize=1;strokeColor=none;fillColor=none;fontSize=25;" parent="0WWqZJ1e9FoO65VM5oEF-56" vertex="1">
          <mxGeometry x="173.67000000000002" width="450" height="40" as="geometry" />
        </mxCell>
        <mxCell id="0WWqZJ1e9FoO65VM5oEF-55" value="&lt;div&gt;&lt;b&gt;&lt;font&gt;Specifications:&lt;/font&gt;&lt;/b&gt;&lt;/div&gt;&lt;font&gt;100 Mhz clock time = 10 ns&lt;/font&gt;&lt;div&gt;&lt;font&gt;Time for half period = 500000 x 10 ns = 5 ms&lt;/font&gt;&lt;/div&gt;&lt;div&gt;&lt;font&gt;Time for full period = 10 ms&lt;/font&gt;&lt;/div&gt;&lt;div&gt;&lt;font&gt;Output clock frequency = 1 / 10 ms = 100 Hz&lt;/font&gt;&lt;/div&gt;" style="text;html=1;align=left;verticalAlign=middle;resizable=0;points=[];autosize=1;strokeColor=none;fillColor=none;fontSize=20;" parent="0WWqZJ1e9FoO65VM5oEF-56" vertex="1">
          <mxGeometry y="50" width="420" height="130" as="geometry" />
        </mxCell>
        <mxCell id="0WWqZJ1e9FoO65VM5oEF-94" value="" style="endArrow=oval;html=1;rounded=0;endFill=1;" parent="0WWqZJ1e9FoO65VM5oEF-56" edge="1">
          <mxGeometry width="50" height="50" relative="1" as="geometry">
            <mxPoint x="871.67" y="460.0000000000001" as="sourcePoint" />
            <mxPoint x="871.67" y="418" as="targetPoint" />
          </mxGeometry>
        </mxCell>
        <mxCell id="0WWqZJ1e9FoO65VM5oEF-120" value="" style="endArrow=none;html=1;rounded=0;" parent="0WWqZJ1e9FoO65VM5oEF-56" edge="1">
          <mxGeometry width="50" height="50" relative="1" as="geometry">
            <mxPoint x="40.67" y="395" as="sourcePoint" />
            <mxPoint x="60.67" y="375" as="targetPoint" />
          </mxGeometry>
        </mxCell>
        <mxCell id="0WWqZJ1e9FoO65VM5oEF-121" value="19" style="text;html=1;align=center;verticalAlign=middle;resizable=0;points=[];autosize=1;strokeColor=none;fillColor=none;" parent="0WWqZJ1e9FoO65VM5oEF-56" vertex="1">
          <mxGeometry x="30.67" y="350" width="40" height="30" as="geometry" />
        </mxCell>
        <mxCell id="0WWqZJ1e9FoO65VM5oEF-122" value="" style="endArrow=none;html=1;rounded=0;" parent="0WWqZJ1e9FoO65VM5oEF-56" edge="1">
          <mxGeometry width="50" height="50" relative="1" as="geometry">
            <mxPoint x="171.67000000000002" y="470" as="sourcePoint" />
            <mxPoint x="191.67000000000002" y="450" as="targetPoint" />
          </mxGeometry>
        </mxCell>
        <mxCell id="0WWqZJ1e9FoO65VM5oEF-123" value="19" style="text;html=1;align=center;verticalAlign=middle;resizable=0;points=[];autosize=1;strokeColor=none;fillColor=none;" parent="0WWqZJ1e9FoO65VM5oEF-56" vertex="1">
          <mxGeometry x="151.67000000000002" y="435" width="40" height="30" as="geometry" />
        </mxCell>
        <mxCell id="0WWqZJ1e9FoO65VM5oEF-87" style="edgeStyle=orthogonalEdgeStyle;rounded=0;orthogonalLoop=1;jettySize=auto;html=1;exitX=0.5;exitY=1;exitDx=0;exitDy=0;endArrow=oval;endFill=1;" parent="1" edge="1">
          <mxGeometry relative="1" as="geometry">
            <mxPoint x="889" y="154" as="targetPoint" />
            <mxPoint x="1436.67" y="92.67000000000007" as="sourcePoint" />
            <Array as="points">
              <mxPoint x="1437" y="154" />
            </Array>
          </mxGeometry>
        </mxCell>
        <mxCell id="0WWqZJ1e9FoO65VM5oEF-57" value="" style="rounded=0;whiteSpace=wrap;html=1;container=0;" parent="1" vertex="1">
          <mxGeometry x="1396.0033333333333" y="-16.080000000000013" width="83.33333333333333" height="108.74999999999999" as="geometry" />
        </mxCell>
        <mxCell id="0WWqZJ1e9FoO65VM5oEF-90" style="edgeStyle=orthogonalEdgeStyle;rounded=0;orthogonalLoop=1;jettySize=auto;html=1;exitX=0;exitY=0.5;exitDx=0;exitDy=0;endArrow=classic;endFill=1;startFill=0;entryX=0;entryY=0.5;entryDx=0;entryDy=0;" parent="1" edge="1" target="0WWqZJ1e9FoO65VM5oEF-58">
          <mxGeometry relative="1" as="geometry">
            <Array as="points">
              <mxPoint x="951" y="14" />
              <mxPoint x="951" y="144" />
              <mxPoint x="1380" y="144" />
              <mxPoint x="1380" y="65" />
            </Array>
            <mxPoint x="950" y="14" as="sourcePoint" />
          </mxGeometry>
        </mxCell>
        <mxCell id="0WWqZJ1e9FoO65VM5oEF-58" value="" style="triangle;whiteSpace=wrap;html=1;container=0;" parent="1" vertex="1">
          <mxGeometry x="1396.0033333333333" y="53.92" width="16.666666666666668" height="21.749999999999996" as="geometry" />
        </mxCell>
        <mxCell id="0WWqZJ1e9FoO65VM5oEF-59" value="D_2" style="text;html=1;align=center;verticalAlign=middle;resizable=0;points=[];autosize=1;strokeColor=none;fillColor=none;" parent="1" vertex="1">
          <mxGeometry x="1387.3400000000001" y="-10.080000000000013" width="50" height="30" as="geometry" />
        </mxCell>
        <mxCell id="0WWqZJ1e9FoO65VM5oEF-60" value="Q_2" style="text;html=1;align=center;verticalAlign=middle;resizable=0;points=[];autosize=1;strokeColor=none;fillColor=none;" parent="1" vertex="1">
          <mxGeometry x="1438.67" y="-10.080000000000013" width="50" height="30" as="geometry" />
        </mxCell>
        <mxCell id="0WWqZJ1e9FoO65VM5oEF-61" style="edgeStyle=orthogonalEdgeStyle;rounded=0;orthogonalLoop=1;jettySize=auto;html=1;exitX=1;exitY=0.5;exitDx=0;exitDy=0;exitPerimeter=0;entryX=0.159;entryY=0.998;entryDx=0;entryDy=0;entryPerimeter=0;" parent="1" source="0WWqZJ1e9FoO65VM5oEF-62" target="0WWqZJ1e9FoO65VM5oEF-64" edge="1">
          <mxGeometry relative="1" as="geometry">
            <mxPoint x="1287.67" y="-20.330000000000013" as="targetPoint" />
          </mxGeometry>
        </mxCell>
        <mxCell id="0WWqZJ1e9FoO65VM5oEF-62" value="" style="verticalLabelPosition=bottom;shadow=0;dashed=0;align=center;html=1;verticalAlign=top;shape=mxgraph.electrical.abstract.summation_point;" parent="1" vertex="1">
          <mxGeometry x="1157.67" y="-45.08000000000001" width="50" height="50" as="geometry" />
        </mxCell>
        <mxCell id="0WWqZJ1e9FoO65VM5oEF-63" style="edgeStyle=orthogonalEdgeStyle;rounded=0;orthogonalLoop=1;jettySize=auto;html=1;exitX=1;exitY=0.5;exitDx=0;exitDy=0;entryX=1;entryY=0.5;entryDx=0;entryDy=0;" parent="1" target="0WWqZJ1e9FoO65VM5oEF-64" edge="1">
          <mxGeometry relative="1" as="geometry">
            <mxPoint x="1277.67" y="67.92" as="targetPoint" />
            <mxPoint x="1658.17" y="-16.080000000000013" as="sourcePoint" />
            <Array as="points">
              <mxPoint x="1658.67" y="-226.07999999999998" />
              <mxPoint x="1076.67" y="-226.07999999999998" />
              <mxPoint x="1076.67" y="123.92" />
              <mxPoint x="1317.67" y="123.92" />
            </Array>
          </mxGeometry>
        </mxCell>
        <mxCell id="0WWqZJ1e9FoO65VM5oEF-64" value="" style="shape=trapezoid;perimeter=trapezoidPerimeter;whiteSpace=wrap;html=1;fixedSize=1;rotation=90;size=25;" parent="1" vertex="1">
          <mxGeometry x="1257.67" y="4.9199999999999875" width="120" height="30" as="geometry" />
        </mxCell>
        <mxCell id="0WWqZJ1e9FoO65VM5oEF-65" value="0" style="text;html=1;align=center;verticalAlign=middle;resizable=0;points=[];autosize=1;strokeColor=none;fillColor=none;" parent="1" vertex="1">
          <mxGeometry x="1297.67" y="-35.08000000000001" width="30" height="30" as="geometry" />
        </mxCell>
        <mxCell id="0WWqZJ1e9FoO65VM5oEF-66" value="1" style="text;html=1;align=center;verticalAlign=middle;resizable=0;points=[];autosize=1;strokeColor=none;fillColor=none;" parent="1" vertex="1">
          <mxGeometry x="1297.67" y="38.92" width="30" height="30" as="geometry" />
        </mxCell>
        <mxCell id="0WWqZJ1e9FoO65VM5oEF-67" value="" style="endArrow=classic;html=1;rounded=0;" parent="1" edge="1">
          <mxGeometry width="50" height="50" relative="1" as="geometry">
            <mxPoint x="1107.67" y="-21.080000000000013" as="sourcePoint" />
            <mxPoint x="1157.67" y="-20.640000000000015" as="targetPoint" />
          </mxGeometry>
        </mxCell>
        <mxCell id="0WWqZJ1e9FoO65VM5oEF-68" value="3&#39;d1" style="text;html=1;align=center;verticalAlign=middle;resizable=0;points=[];autosize=1;strokeColor=none;fillColor=none;" parent="1" vertex="1">
          <mxGeometry x="1070.67" y="-36.08000000000001" width="50" height="30" as="geometry" />
        </mxCell>
        <mxCell id="0WWqZJ1e9FoO65VM5oEF-69" style="edgeStyle=orthogonalEdgeStyle;rounded=0;orthogonalLoop=1;jettySize=auto;html=1;exitX=1;exitY=0.25;exitDx=0;exitDy=0;entryX=0.5;entryY=0;entryDx=0;entryDy=0;entryPerimeter=0;" parent="1" source="0WWqZJ1e9FoO65VM5oEF-57" target="0WWqZJ1e9FoO65VM5oEF-62" edge="1">
          <mxGeometry relative="1" as="geometry">
            <Array as="points">
              <mxPoint x="1597.67" y="10.920000000000002" />
              <mxPoint x="1597.67" y="-86.08000000000001" />
              <mxPoint x="1182.67" y="-86.08000000000001" />
            </Array>
          </mxGeometry>
        </mxCell>
        <mxCell id="0WWqZJ1e9FoO65VM5oEF-70" value="" style="endArrow=classic;html=1;rounded=0;" parent="1" edge="1">
          <mxGeometry width="50" height="50" relative="1" as="geometry">
            <mxPoint x="1232.67" y="53.92" as="sourcePoint" />
            <mxPoint x="1302.67" y="53.92" as="targetPoint" />
          </mxGeometry>
        </mxCell>
        <mxCell id="0WWqZJ1e9FoO65VM5oEF-71" value="3&#39;d0" style="text;html=1;align=center;verticalAlign=middle;resizable=0;points=[];autosize=1;strokeColor=none;fillColor=none;" parent="1" vertex="1">
          <mxGeometry x="1193.67" y="38.92" width="50" height="30" as="geometry" />
        </mxCell>
        <mxCell id="0WWqZJ1e9FoO65VM5oEF-72" style="edgeStyle=orthogonalEdgeStyle;rounded=0;orthogonalLoop=1;jettySize=auto;html=1;exitX=0.5;exitY=0;exitDx=0;exitDy=0;entryX=-0.004;entryY=0.188;entryDx=0;entryDy=0;entryPerimeter=0;" parent="1" source="0WWqZJ1e9FoO65VM5oEF-64" target="0WWqZJ1e9FoO65VM5oEF-57" edge="1">
          <mxGeometry relative="1" as="geometry">
            <Array as="points">
              <mxPoint x="1364.67" y="19.92" />
              <mxPoint x="1364.67" y="3.9199999999999875" />
              <mxPoint x="1395.67" y="3.9199999999999875" />
            </Array>
          </mxGeometry>
        </mxCell>
        <mxCell id="0WWqZJ1e9FoO65VM5oEF-73" value="==" style="ellipse;whiteSpace=wrap;html=1;aspect=fixed;" parent="1" vertex="1">
          <mxGeometry x="1633.67" y="-16.080000000000013" width="51" height="51" as="geometry" />
        </mxCell>
        <mxCell id="0WWqZJ1e9FoO65VM5oEF-74" value="" style="endArrow=classic;html=1;rounded=0;" parent="1" edge="1">
          <mxGeometry width="50" height="50" relative="1" as="geometry">
            <mxPoint x="1553.67" y="11.059999999999988" as="sourcePoint" />
            <mxPoint x="1633.67" y="11.059999999999988" as="targetPoint" />
          </mxGeometry>
        </mxCell>
        <mxCell id="0WWqZJ1e9FoO65VM5oEF-75" value="3&#39;d7" style="text;html=1;align=center;verticalAlign=middle;resizable=0;points=[];autosize=1;strokeColor=none;fillColor=none;" parent="1" vertex="1">
          <mxGeometry x="1634.17" y="38.92" width="50" height="30" as="geometry" />
        </mxCell>
        <mxCell id="0WWqZJ1e9FoO65VM5oEF-76" value="" style="endArrow=none;html=1;rounded=0;" parent="1" edge="1">
          <mxGeometry width="50" height="50" relative="1" as="geometry">
            <mxPoint x="1247.67" y="-11.080000000000013" as="sourcePoint" />
            <mxPoint x="1267.67" y="-31.080000000000013" as="targetPoint" />
          </mxGeometry>
        </mxCell>
        <mxCell id="0WWqZJ1e9FoO65VM5oEF-77" value="3" style="text;html=1;align=center;verticalAlign=middle;resizable=0;points=[];autosize=1;strokeColor=none;fillColor=none;" parent="1" vertex="1">
          <mxGeometry x="1232.67" y="-46.08000000000001" width="30" height="30" as="geometry" />
        </mxCell>
        <mxCell id="0WWqZJ1e9FoO65VM5oEF-78" value="" style="endArrow=none;html=1;rounded=0;" parent="1" edge="1">
          <mxGeometry width="50" height="50" relative="1" as="geometry">
            <mxPoint x="1337.67" y="29.92" as="sourcePoint" />
            <mxPoint x="1357.67" y="9.920000000000002" as="targetPoint" />
          </mxGeometry>
        </mxCell>
        <mxCell id="0WWqZJ1e9FoO65VM5oEF-79" value="3" style="text;html=1;align=center;verticalAlign=middle;resizable=0;points=[];autosize=1;strokeColor=none;fillColor=none;" parent="1" vertex="1">
          <mxGeometry x="1332.67" y="-16.080000000000013" width="30" height="30" as="geometry" />
        </mxCell>
        <mxCell id="0WWqZJ1e9FoO65VM5oEF-80" value="" style="endArrow=none;html=1;rounded=0;" parent="1" edge="1">
          <mxGeometry width="50" height="50" relative="1" as="geometry">
            <mxPoint x="1528.67" y="20.92" as="sourcePoint" />
            <mxPoint x="1548.67" y="0.9199999999999875" as="targetPoint" />
          </mxGeometry>
        </mxCell>
        <mxCell id="0WWqZJ1e9FoO65VM5oEF-81" value="3" style="text;html=1;align=center;verticalAlign=middle;resizable=0;points=[];autosize=1;strokeColor=none;fillColor=none;" parent="1" vertex="1">
          <mxGeometry x="1513.67" y="-14.080000000000013" width="30" height="30" as="geometry" />
        </mxCell>
        <mxCell id="0WWqZJ1e9FoO65VM5oEF-82" value="" style="endArrow=oval;html=1;rounded=0;endFill=1;" parent="1" edge="1">
          <mxGeometry width="50" height="50" relative="1" as="geometry">
            <mxPoint x="1567.67" y="10.920000000000002" as="sourcePoint" />
            <mxPoint x="1597.67" y="10.920000000000002" as="targetPoint" />
          </mxGeometry>
        </mxCell>
        <mxCell id="0WWqZJ1e9FoO65VM5oEF-84" style="edgeStyle=orthogonalEdgeStyle;rounded=0;orthogonalLoop=1;jettySize=auto;html=1;exitX=0.5;exitY=1;exitDx=0;exitDy=0;entryX=0.5;entryY=0;entryDx=0;entryDy=0;endArrow=none;startFill=0;" parent="1" source="0WWqZJ1e9FoO65VM5oEF-4" target="ecnfo4OH-dt6vmVNhMm7-204" edge="1">
          <mxGeometry relative="1" as="geometry" />
        </mxCell>
        <mxCell id="0WWqZJ1e9FoO65VM5oEF-89" value="rst" style="text;html=1;align=center;verticalAlign=middle;resizable=0;points=[];autosize=1;strokeColor=none;fillColor=none;" parent="1" vertex="1">
          <mxGeometry x="468" y="182" width="40" height="30" as="geometry" />
        </mxCell>
        <mxCell id="0WWqZJ1e9FoO65VM5oEF-96" value="&lt;font style=&quot;font-size: 25px;&quot;&gt;Automatic Display Driver&lt;/font&gt;" style="text;html=1;align=center;verticalAlign=middle;resizable=0;points=[];autosize=1;strokeColor=none;fillColor=none;" parent="1" vertex="1">
          <mxGeometry x="1243.67" y="-416" width="300" height="40" as="geometry" />
        </mxCell>
        <mxCell id="0WWqZJ1e9FoO65VM5oEF-98" value="display_control" style="text;html=1;align=center;verticalAlign=middle;resizable=0;points=[];autosize=1;strokeColor=none;fillColor=none;" parent="1" vertex="1">
          <mxGeometry x="1500" y="53.91999999999999" width="100" height="30" as="geometry" />
        </mxCell>
        <mxCell id="0WWqZJ1e9FoO65VM5oEF-104" style="edgeStyle=orthogonalEdgeStyle;rounded=0;orthogonalLoop=1;jettySize=auto;html=1;exitX=0.25;exitY=1;exitDx=0;exitDy=0;endArrow=oval;endFill=1;" parent="1" edge="1">
          <mxGeometry relative="1" as="geometry">
            <mxPoint x="910" y="1116" as="targetPoint" />
            <mxPoint x="954" y="1205.25" as="sourcePoint" />
            <Array as="points">
              <mxPoint x="910" y="1205" />
              <mxPoint x="910" y="1116" />
            </Array>
          </mxGeometry>
        </mxCell>
        <mxCell id="0WWqZJ1e9FoO65VM5oEF-106" style="edgeStyle=orthogonalEdgeStyle;rounded=0;orthogonalLoop=1;jettySize=auto;html=1;exitX=0.5;exitY=0;exitDx=0;exitDy=0;entryX=0;entryY=0.5;entryDx=0;entryDy=0;" parent="1" source="0WWqZJ1e9FoO65VM5oEF-101" target="ecnfo4OH-dt6vmVNhMm7-470" edge="1">
          <mxGeometry relative="1" as="geometry" />
        </mxCell>
        <mxCell id="0WWqZJ1e9FoO65VM5oEF-108" style="edgeStyle=orthogonalEdgeStyle;rounded=0;orthogonalLoop=1;jettySize=auto;html=1;exitX=1;exitY=0.5;exitDx=0;exitDy=0;entryX=1;entryY=0.5;entryDx=0;entryDy=0;" parent="1" edge="1">
          <mxGeometry relative="1" as="geometry">
            <mxPoint x="969" y="1282.75" as="targetPoint" />
            <mxPoint x="1360" y="1107.2306565504807" as="sourcePoint" />
            <Array as="points">
              <mxPoint x="1350" y="1107" />
              <mxPoint x="1350" y="1386" />
              <mxPoint x="969" y="1386" />
            </Array>
          </mxGeometry>
        </mxCell>
        <mxCell id="0WWqZJ1e9FoO65VM5oEF-101" value="" style="shape=trapezoid;perimeter=trapezoidPerimeter;whiteSpace=wrap;html=1;fixedSize=1;rotation=90;size=25;" parent="1" vertex="1">
          <mxGeometry x="909" y="1218.2500000000002" width="120" height="30" as="geometry" />
        </mxCell>
        <mxCell id="0WWqZJ1e9FoO65VM5oEF-102" value="0" style="text;html=1;align=center;verticalAlign=middle;resizable=0;points=[];autosize=1;strokeColor=none;fillColor=none;" parent="1" vertex="1">
          <mxGeometry x="949" y="1190.2500000000002" width="30" height="30" as="geometry" />
        </mxCell>
        <mxCell id="0WWqZJ1e9FoO65VM5oEF-103" value="1" style="text;html=1;align=center;verticalAlign=middle;resizable=0;points=[];autosize=1;strokeColor=none;fillColor=none;" parent="1" vertex="1">
          <mxGeometry x="949" y="1241.2500000000002" width="30" height="30" as="geometry" />
        </mxCell>
        <mxCell id="0WWqZJ1e9FoO65VM5oEF-107" style="edgeStyle=orthogonalEdgeStyle;rounded=0;orthogonalLoop=1;jettySize=auto;html=1;entryX=0.044;entryY=0.474;entryDx=0;entryDy=0;entryPerimeter=0;" parent="1" edge="1">
          <mxGeometry relative="1" as="geometry">
            <mxPoint x="954.3200000000002" y="1204.4699999999998" as="targetPoint" />
            <mxPoint x="931" y="1205.33" as="sourcePoint" />
          </mxGeometry>
        </mxCell>
        <mxCell id="0WWqZJ1e9FoO65VM5oEF-109" value="" style="endArrow=none;html=1;rounded=0;" parent="1" edge="1">
          <mxGeometry width="50" height="50" relative="1" as="geometry">
            <mxPoint x="1280.67" y="1107.67" as="sourcePoint" />
            <mxPoint x="1350.67" y="1107.67" as="targetPoint" />
          </mxGeometry>
        </mxCell>
        <mxCell id="0WWqZJ1e9FoO65VM5oEF-110" value="" style="endArrow=oval;html=1;rounded=0;endFill=1;" parent="1" edge="1">
          <mxGeometry width="50" height="50" relative="1" as="geometry">
            <mxPoint x="1350.48" y="1157" as="sourcePoint" />
            <mxPoint x="1350.48" y="1107" as="targetPoint" />
          </mxGeometry>
        </mxCell>
        <mxCell id="0WWqZJ1e9FoO65VM5oEF-111" value="segment 0" style="text;html=1;align=center;verticalAlign=middle;resizable=0;points=[];autosize=1;strokeColor=none;fillColor=none;" parent="1" vertex="1">
          <mxGeometry x="2525.83" y="695.46" width="80" height="30" as="geometry" />
        </mxCell>
        <mxCell id="0WWqZJ1e9FoO65VM5oEF-112" value="segment 1" style="text;html=1;align=center;verticalAlign=middle;resizable=0;points=[];autosize=1;strokeColor=none;fillColor=none;" parent="1" vertex="1">
          <mxGeometry x="2363.33" y="695.46" width="80" height="30" as="geometry" />
        </mxCell>
        <mxCell id="0WWqZJ1e9FoO65VM5oEF-113" value="segment 2" style="text;html=1;align=center;verticalAlign=middle;resizable=0;points=[];autosize=1;strokeColor=none;fillColor=none;" parent="1" vertex="1">
          <mxGeometry x="2200.83" y="695.46" width="80" height="30" as="geometry" />
        </mxCell>
        <mxCell id="0WWqZJ1e9FoO65VM5oEF-115" value="segment 3" style="text;html=1;align=center;verticalAlign=middle;resizable=0;points=[];autosize=1;strokeColor=none;fillColor=none;" parent="1" vertex="1">
          <mxGeometry x="2038.33" y="695.46" width="80" height="30" as="geometry" />
        </mxCell>
        <mxCell id="0WWqZJ1e9FoO65VM5oEF-116" value="segment 4" style="text;html=1;align=center;verticalAlign=middle;resizable=0;points=[];autosize=1;strokeColor=none;fillColor=none;" parent="1" vertex="1">
          <mxGeometry x="1880" y="695.46" width="80" height="30" as="geometry" />
        </mxCell>
        <mxCell id="0WWqZJ1e9FoO65VM5oEF-117" value="segment 5" style="text;html=1;align=center;verticalAlign=middle;resizable=0;points=[];autosize=1;strokeColor=none;fillColor=none;" parent="1" vertex="1">
          <mxGeometry x="1713.33" y="695.46" width="80" height="30" as="geometry" />
        </mxCell>
        <mxCell id="0WWqZJ1e9FoO65VM5oEF-118" value="segment 6" style="text;html=1;align=center;verticalAlign=middle;resizable=0;points=[];autosize=1;strokeColor=none;fillColor=none;" parent="1" vertex="1">
          <mxGeometry x="1550.83" y="699.77" width="80" height="30" as="geometry" />
        </mxCell>
        <mxCell id="0WWqZJ1e9FoO65VM5oEF-119" value="segment 7" style="text;html=1;align=center;verticalAlign=middle;resizable=0;points=[];autosize=1;strokeColor=none;fillColor=none;" parent="1" vertex="1">
          <mxGeometry x="1388.33" y="699.77" width="80" height="30" as="geometry" />
        </mxCell>
        <mxCell id="0WWqZJ1e9FoO65VM5oEF-124" value="&lt;span style=&quot;color: rgb(0, 0, 0); font-family: Helvetica; font-size: 12px; font-style: normal; font-variant-ligatures: normal; font-variant-caps: normal; font-weight: 400; letter-spacing: normal; orphans: 2; text-align: center; text-indent: 0px; text-transform: none; widows: 2; word-spacing: 0px; -webkit-text-stroke-width: 0px; white-space: nowrap; background-color: rgb(251, 251, 251); text-decoration-thickness: initial; text-decoration-style: initial; text-decoration-color: initial; float: none; display: inline !important;&quot;&gt;clear_2&lt;/span&gt;" style="text;whiteSpace=wrap;html=1;" parent="1" vertex="1">
          <mxGeometry x="1173.67" y="92.67" width="70" height="40" as="geometry" />
        </mxCell>
        <mxCell id="0WWqZJ1e9FoO65VM5oEF-125" value="" style="endArrow=none;html=1;rounded=0;" parent="1" edge="1">
          <mxGeometry width="50" height="50" relative="1" as="geometry">
            <mxPoint x="1247.67" y="64.99999999999999" as="sourcePoint" />
            <mxPoint x="1267.67" y="44.999999999999986" as="targetPoint" />
          </mxGeometry>
        </mxCell>
        <mxCell id="0WWqZJ1e9FoO65VM5oEF-126" value="3" style="text;html=1;align=center;verticalAlign=middle;resizable=0;points=[];autosize=1;strokeColor=none;fillColor=none;" parent="1" vertex="1">
          <mxGeometry x="1232.67" y="29.999999999999986" width="30" height="30" as="geometry" />
        </mxCell>
        <mxCell id="0WWqZJ1e9FoO65VM5oEF-127" value="" style="endArrow=none;html=1;rounded=0;" parent="1" edge="1">
          <mxGeometry width="50" height="50" relative="1" as="geometry">
            <mxPoint x="1120" y="-10.080000000000013" as="sourcePoint" />
            <mxPoint x="1140" y="-30.080000000000013" as="targetPoint" />
          </mxGeometry>
        </mxCell>
        <mxCell id="0WWqZJ1e9FoO65VM5oEF-128" value="3" style="text;html=1;align=center;verticalAlign=middle;resizable=0;points=[];autosize=1;strokeColor=none;fillColor=none;" parent="1" vertex="1">
          <mxGeometry x="1105" y="-45.08000000000001" width="30" height="30" as="geometry" />
        </mxCell>
        <mxCell id="0WWqZJ1e9FoO65VM5oEF-131" value="" style="endArrow=oval;html=1;rounded=0;endFill=1;" parent="1" edge="1">
          <mxGeometry width="50" height="50" relative="1" as="geometry">
            <mxPoint x="200" y="427.05" as="sourcePoint" />
            <mxPoint x="200" y="385.55" as="targetPoint" />
          </mxGeometry>
        </mxCell>
        <mxCell id="0WWqZJ1e9FoO65VM5oEF-134" value="" style="endArrow=oval;html=1;rounded=0;endFill=1;" parent="1" edge="1">
          <mxGeometry width="50" height="50" relative="1" as="geometry">
            <mxPoint x="200" y="572.75" as="sourcePoint" />
            <mxPoint x="200" y="531.25" as="targetPoint" />
          </mxGeometry>
        </mxCell>
        <mxCell id="0WWqZJ1e9FoO65VM5oEF-135" value="" style="endArrow=oval;html=1;rounded=0;endFill=1;" parent="1" edge="1">
          <mxGeometry width="50" height="50" relative="1" as="geometry">
            <mxPoint x="200" y="717.05" as="sourcePoint" />
            <mxPoint x="200" y="675.55" as="targetPoint" />
          </mxGeometry>
        </mxCell>
        <mxCell id="0WWqZJ1e9FoO65VM5oEF-136" value="" style="endArrow=oval;html=1;rounded=0;endFill=1;" parent="1" edge="1">
          <mxGeometry width="50" height="50" relative="1" as="geometry">
            <mxPoint x="200" y="862.1500000000001" as="sourcePoint" />
            <mxPoint x="200" y="820.6500000000001" as="targetPoint" />
          </mxGeometry>
        </mxCell>
        <mxCell id="0WWqZJ1e9FoO65VM5oEF-137" value="" style="endArrow=oval;html=1;rounded=0;endFill=1;" parent="1" edge="1">
          <mxGeometry width="50" height="50" relative="1" as="geometry">
            <mxPoint x="200" y="1008.05" as="sourcePoint" />
            <mxPoint x="200" y="966.55" as="targetPoint" />
          </mxGeometry>
        </mxCell>
        <mxCell id="0WWqZJ1e9FoO65VM5oEF-138" value="" style="endArrow=oval;html=1;rounded=0;endFill=1;" parent="1" edge="1">
          <mxGeometry width="50" height="50" relative="1" as="geometry">
            <mxPoint x="200" y="1153.05" as="sourcePoint" />
            <mxPoint x="200" y="1111.55" as="targetPoint" />
          </mxGeometry>
        </mxCell>
        <mxCell id="x7w56RtX_FLnQm-sTqfd-1" value="" style="endArrow=none;html=1;rounded=0;" edge="1" parent="1">
          <mxGeometry width="50" height="50" relative="1" as="geometry">
            <mxPoint x="989" y="1242.25" as="sourcePoint" />
            <mxPoint x="1009" y="1222.25" as="targetPoint" />
            <Array as="points">
              <mxPoint x="999" y="1232" />
            </Array>
          </mxGeometry>
        </mxCell>
        <mxCell id="x7w56RtX_FLnQm-sTqfd-2" value="3" style="text;html=1;align=center;verticalAlign=middle;resizable=0;points=[];autosize=1;strokeColor=none;fillColor=none;" vertex="1" parent="1">
          <mxGeometry x="979" y="1205.72" width="30" height="30" as="geometry" />
        </mxCell>
        <mxCell id="x7w56RtX_FLnQm-sTqfd-5" value="" style="endArrow=none;html=1;rounded=0;" edge="1" parent="1">
          <mxGeometry width="50" height="50" relative="1" as="geometry">
            <mxPoint x="919" y="1214.78" as="sourcePoint" />
            <mxPoint x="939" y="1194.78" as="targetPoint" />
            <Array as="points">
              <mxPoint x="929" y="1204.53" />
            </Array>
          </mxGeometry>
        </mxCell>
        <mxCell id="x7w56RtX_FLnQm-sTqfd-6" value="3" style="text;html=1;align=center;verticalAlign=middle;resizable=0;points=[];autosize=1;strokeColor=none;fillColor=none;" vertex="1" parent="1">
          <mxGeometry x="909" y="1178.25" width="30" height="30" as="geometry" />
        </mxCell>
        <mxCell id="x7w56RtX_FLnQm-sTqfd-7" value="" style="endArrow=none;html=1;rounded=0;" edge="1" parent="1">
          <mxGeometry width="50" height="50" relative="1" as="geometry">
            <mxPoint x="869" y="1126.52" as="sourcePoint" />
            <mxPoint x="889" y="1106.52" as="targetPoint" />
            <Array as="points">
              <mxPoint x="879" y="1116.27" />
            </Array>
          </mxGeometry>
        </mxCell>
        <mxCell id="x7w56RtX_FLnQm-sTqfd-8" value="3" style="text;html=1;align=center;verticalAlign=middle;resizable=0;points=[];autosize=1;strokeColor=none;fillColor=none;" vertex="1" parent="1">
          <mxGeometry x="859" y="1089.99" width="30" height="30" as="geometry" />
        </mxCell>
      </root>
    </mxGraphModel>
  </diagram>
</mxfile>
